<svg xmlns="http://www.w3.org/2000/svg" width="430.866" height="419.003" viewBox="0 0 430.866 419.003"><defs><style>.a{fill:#ebdfd0;}.b{fill:#873938;}.c{fill:#cbd38b;}.d{fill:#2b465e;}.e{fill:#fbf2e8;font-size:29px;font-family:Helvetica;}</style></defs><g transform="translate(-1305.374 -260)"><path class="a" d="M215.433,0c118.98,0,215.433,93.8,215.433,209.5S334.414,419,215.433,419,0,325.206,0,209.5,96.453,0,215.433,0Z" transform="translate(1305.374 260)"/><g transform="translate(1380.689 337.653)"><path class="b" d="M166.644,31.092a46.265,46.265,0,0,0-1.729-5.611,38.455,38.455,0,0,0-12.67-16.808,41.375,41.375,0,0,0-15.181-7.289c-19.1-4.74-41.29,2.9-51.807,19.883A29.936,29.936,0,0,0,80.5,38.792c.461,9.724,4.151,18.563,8.417,27.159a2.038,2.038,0,0,1-.4,2.806A133.342,133.342,0,0,0,75.635,83a131.241,131.241,0,0,0-9.121,13.964c-2.229,3.8-4.625,7.507-6.892,11.171-2.152-2.037-4.138-4.023-6.239-5.88-4.766-4.215-9.365-8.66-14.425-12.478-6.38-4.8-14.092-6.61-21.753-8.289a2.729,2.729,0,0,0-3.395,1.5c-.6,1.525,0,2.524,1.768,3.5,2.268,1.243,4.6,2.408,6.79,3.779,3.561,2.229,7.059,4.574,10.556,6.905,2.37,1.589,4.766,3.151,7.046,4.881,5.073,3.843,10.069,7.789,15.143,11.645.756.576.922.974.474,1.845q-3.113,6.034-6.085,12.119c-2.831,5.816-5.509,11.709-8.442,17.487-1.922,3.792-4.176,7.4-6.239,11.12a83.519,83.519,0,0,0-4.983,9.39c-7.9,19.844-13.81,41.943-28.107,58.418C.551,225.434-.7,227.458.474,228.8c1.038,1.179,3.023.564,4.164-.512,3.715-3.485,7.443-6.982,11.222-10.428a48.692,48.692,0,0,0,11.222-15.117c1.781-3.741,3.19-7.674,4.945-11.427,3.779-8.122,7.879-16.1,11.466-24.315,3.754-8.6,7.02-17.4,10.569-26.083,1.409-3.433,2.639-7.033,4.612-10.133,2.088-3.292,4.932-6.1,7.507-9.07a1.6,1.6,0,0,1,1.448-.32c2.793,1.307,5.522,2.716,8.276,4.087a1.307,1.307,0,0,1,.858,1.755c-1.332,5.56-2.562,11.146-3.856,16.718a62.312,62.312,0,0,1-4.932,14q-14.528,29-28.287,58.405c-1.4,2.972-8.532,12.747-6.239,15.629a3.088,3.088,0,0,0,3.83.743,5.968,5.968,0,0,0,1.845-1.986c13.2-19.485,27.505-38.587,38.8-59.251,3.792-6.944,6.905-14.259,10.313-21.407a12.354,12.354,0,0,0,.474-1.371c1.32-4,2.613-7.994,4-11.965a17.824,17.824,0,0,1,1.384-2.588c.9.359,1.524.641,2.178.858,2.908,1.012,5.739,1.358,8.34-.858,1.665-1.422,3.408-2.754,5.137-4.1,5.124-3.971,8.968-9.121,12.785-14.233,1.627-2.178,2.511-4.945,3.574-7.52,1.563-3.818,3.113-7.661,4.407-11.568.794-2.408.9-5.06,1.678-7.482,1.179-3.664.384-7.161-.423-10.672-.231-.986-.141-1.384.781-1.832a19.92,19.92,0,0,0-2.46-5.06c-.218.179-.423.372-.641.551-.858-1.179-1.589-2.1-2.242-3.075-1.717-2.562-4.356-3.715-7.1-4.74a35.7,35.7,0,0,1-4.317-2.011,15.052,15.052,0,0,0-8.3-2.165A57.106,57.106,0,0,0,99.284,61.3a37.565,37.565,0,0,0-9.877,5.15,37.565,37.565,0,0,1,9.877-5.15A19.267,19.267,0,0,0,95.7,62.479c-.474.218-1,.346-1.537.538-3.126-4.907-4.8-10.338-6.329-15.77a38.407,38.407,0,0,1-1.64-11.133A28.027,28.027,0,0,1,96.235,15.13c5.329-4.663,11.312-8.276,18.2-9.839a41.773,41.773,0,0,1,24.648,2.037c.6.231,1.217.461,1.832.653a24.006,24.006,0,0,1,13.029,9.608c3.292,4.8,6.1,9.826,7.3,15.578,1.166,5.624,1.4,11.376-.538,16.8a21.4,21.4,0,0,1-8.571,11.274c-3.228,2.024-6.572,3.856-9.864,5.778-.115-.128-.231-.269-.346-.41.154-.384.295-.781.461-1.166.961-2.088.269-3.638-2-4.112a2.057,2.057,0,0,0-1.576.756c-2.139,2.434-4.151,4.958-6.3,7.379a23.775,23.775,0,0,1-2.421,2.242,20.839,20.839,0,0,1,2.473,5.06c6.124-2.934,12.17-6.072,18.345-8.891,7.635-3.5,12.042-10.082,15.873-17.244a.839.839,0,0,1,.525.73,91.414,91.414,0,0,0,.4-13.759,44.716,44.716,0,0,0-1.063-6.482ZM69.9,116.554c4.958-5.329,9.736-10.441,14.5-15.552l.2.2c-2.152,6.239-4.317,12.478-6.585,19.063-2.421-1.1-5.035-2.306-8.122-3.715ZM79.133,143.6c-.218-.09-.448-.167-.666-.256,1.115-4.894,2.242-9.788,3.395-14.8,1.589.73,2.934,1.345,4.676,2.152-2.524,4.407-4.958,8.66-7.392,12.913ZM91,122.28a1.715,1.715,0,0,1-2.127,1.166c-1.281-.192-2.562-.346-3.843-.525-1.332-.192-1.794-.82-1.422-2.229,1.307-4.971,2.7-9.89,5.2-14.412a60.794,60.794,0,0,0,3.254-6.111A44.987,44.987,0,0,0,93.648,94.3c.077-.295.154-.589.295-1.166,2.011,2.2,3.344,5.1,7.251,4.24-.91,2.806-1.486,5.214-2.447,7.456-2.511,5.855-5.2,11.62-7.763,17.448Zm17.846-10.531c-.846,2.408-1.832,4.778-3.895,6.405-2.178,1.7-4.5,3.241-7.11,5.1.064-4.317,2.063-7.366,3.382-10.62,1.5-3.741,3.28-7.379,4.791-11.107.423-1.05,1.025-1.486,1.9-1.153a18.546,18.546,0,0,1,3.613,1.947c.256.167.2,1.038.051,1.512C110.7,106.485,109.764,109.111,108.841,111.75Zm9.39-20.126a47.463,47.463,0,0,1,1.4-6.047l.666.077c.038.858.051,1.717.128,2.562a40.756,40.756,0,0,1-.794,10.864c-.641,3.741-.884,7.546-1.345,11.312a4.2,4.2,0,0,1-.551,1.832c-2.4,3.485-4.855,6.931-7.289,10.4-.2-.115-.423-.243-.628-.359.564-1.371,1.05-2.78,1.7-4.112,2.78-5.6,5.573-11.21,6.329-17.5.359-2.985.09-6.034.384-9.032ZM93.878,75.892a35.651,35.651,0,0,1,11.363-8.686,6.127,6.127,0,0,1,7.674,1.281c1.14,1.243,2.588,2.562,2.972,4.074.871,3.446-.461,5.445-4.292,6.956-3,1.179-6.021,2.344-9.006,3.574A65.269,65.269,0,0,0,82.566,95.98c-3.7,3.5-7.008,7.418-10.5,11.133-1.038,1.1-2.165,2.127-3.254,3.19l-.115-.077c1.294-2.2,2.588-4.394,3.882-6.6,3.139-5.355,6.879-10.274,10.518-15.3,3.267-4.5,7.213-8.276,10.787-12.427Z" transform="translate(0 0)"/><path class="b" d="M130.963,32.127a1,1,0,0,0-.013-.167A.73.73,0,0,0,130.963,32.127Z" transform="translate(36.809 8.984)"/><path class="b" d="M262.051,139.207c-1.729-1.614-3.613-3.062-5.47-4.535-5.816-4.638-11.53-9.39-17.974-13.208-4.24-2.511-8.417-5-13.349-5.919a60.42,60.42,0,0,1-6.79-1.486c-9.045-2.639-18.806-3.369-28.184-4.125-.423-.038-.935-.128-1.076-.525a1.163,1.163,0,0,1,.154-.884,151.552,151.552,0,0,1,7.853-14.284c2.4-3.856,4.983-7.623,6.8-11.786,6.034-13.759-1.371-26.608-14.1-32.8-5.073-2.46-10.185-4.945-15.629-6.444a34.976,34.976,0,0,0-10.62-1.32,47.731,47.731,0,0,0-16.846,3.869c-5.317,2.28-10.069,5.829-14.886,9.173a8.36,8.36,0,0,0-2.511,2.408c-1.563,2.677-2.959,5.47-4.3,8.263a20.757,20.757,0,0,0-1.7,4.522,73.467,73.467,0,0,0-1.153,7.494C120.49,93.19,135.21,106.6,149.084,110.382a15.015,15.015,0,0,1,4,1.422c4.433,2.69-.346,17.961-.974,22.637a171.342,171.342,0,0,1-4.753,24.789c-7.968,27.492-24.174,49.514-40.649,72.459-.884,1.243-1.794,2.947-.871,4.164,1.32,1.729,4-.026,5.342-1.729,12.837-16.257,26.685-31.63,36.665-49.924a225.87,225.87,0,0,0,12.529-27.479q2.671-6.995,4.983-14.092c.653-1.973,4.945-11.62,4.048-13.042a6.519,6.519,0,0,1,.717,1.14,20.267,20.267,0,0,0,5.906,9.134c2.37,2.268,5.137,4.112,7.52,6.367,4.189,3.959,8.327,7.981,12.3,12.17,6.162,6.5,11.338,14.22,13.772,22.906a40.457,40.457,0,0,0,2.229,7.033c.833,1.7,2.588,3.433,4.369,2.78,1.87-.679,2-3.241,1.794-5.227-.807-7.725-1.025-16.065-4.689-23.1-1.5-2.87-3.036-5.727-4.471-8.622a161.416,161.416,0,0,0-14.015-23.636,73.476,73.476,0,0,1-4.381-7.8c.141-.128.282-.256.41-.384.564.064,1.153.064,1.7.179,11.069,2.293,22.214,4.33,33.283,6.687,9.275,1.973,18.64,5.252,25.481,11.824.807.781,1.729,1.665,2.857,1.627a11.336,11.336,0,0,0,2.191-.666c1.537-.359,2.216,1.614,3.728,1.281a15.278,15.278,0,0,0,3.356-1.627,9.11,9.11,0,0,0-1.4-2.473Zm-96.607-14.694c-2.05,6.534-4.061,13.067-6.2,19.562-3.2,9.723-5.893,19.626-10.646,28.773a1.315,1.315,0,0,1-.781.743c.9-3.843,1.653-7.712,2.716-11.5,1.345-4.766,2.921-9.48,4.445-14.195a34.77,34.77,0,0,1,1.717-4.509,29.889,29.889,0,0,0,2.575-15.271c-.256-4,.192-7.8,2.191-11.2,1.589.448,3.1.807,4.548,1.32.384.141.9.833.82,1.166-.359,1.729-.846,3.433-1.371,5.124Zm5.124-12.388c-3.587.692-6.431-1.281-9.454-2.562-5.214-2.2-10.595-4.125-15.527-6.854a48.419,48.419,0,0,1-11.069-8.3c-3.818-3.895-5-9.185-5.112-14.617-.09-4.228,0-8.468,1.909-12.363A27.278,27.278,0,0,1,134.6,62.5c4.663-5.893,11.133-8.955,17.987-11.517a30.373,30.373,0,0,1,10.595-1.9,50.073,50.073,0,0,1,8.135,1.012c1.87.307,3.715.82,5.509,1.23-.2,4.574,1.512,7.238,5.944,8.25,2.87.653,4.945,2.421,7.341,3.754a12.02,12.02,0,0,0,2.524.884c1.012.282,2.05.487,3.075.743.256.064.538.307.743.256,2.408-.628,2.485,1.281,2.806,2.69a23.5,23.5,0,0,1-2.1,15.757c-2,4.1-4.74,7.827-6.956,11.837-2.293,4.138-4.369,8.4-6.534,12.619-.192.359-.359.846-.679,1.012-1.358.73-2.793,1.332-4.164,2.05-2.652,1.409-5.547.41-8.276.935Zm27.339,33.308c2.806,4.638,5.406,9.4,8.032,14.143.7,1.255,1.23,2.626,2.024,4.356a151.989,151.989,0,0,0-24.174-24.187c-6.047-4.894-9.288-11.056-9.275-18.9,0-1.166.231-1.742,1.576-1.806,2.127-.115,4.253-.487,6.739-.794a66.67,66.67,0,0,1,2.524,6.175,35.6,35.6,0,0,0,4.727,9.045c2.613,3.984,5.368,7.892,7.84,11.965ZM229.55,125.6c-8.43-1.806-16.885-3.536-25.3-5.432-3.933-.884-7.8-2-11.671-3.139a13.281,13.281,0,0,1-2.844-1.64c.051-.231.115-.461.167-.7,3.395.282,6.79.436,10.172.858,13.08,1.653,25.993,3.83,37.536,11.85-2.959-.666-5.509-1.255-8.058-1.806Z" transform="translate(29.641 11.77)"/><path class="c" d="M131.257,33.035c-.026-.487-.038,5.944.2,5.329,1.845,3.382,3.818.243,5.252,3.433a68.939,68.939,0,0,1,2.806,8.366c.051.167.1,1.371-.038.82,1.781-.794,3.959-1.563,5.829-2.216a2.8,2.8,0,0,1-1.46-1.742c-1.563-8.494-7.558-16.705-13.759-22.765-.295,3.5.82,6.546,1.115,9.852-.038-.333.064-.679.051-1.076Z" transform="translate(36.554 6.819)"/><path class="c" d="M139.822,38.419c-.717-4.753-4.958.974-7.059-3.2a12.36,12.36,0,0,1-1.576-3.126c.295,3.433-1.089,5.252-.986,9.506.884,2.908,2.447,7.418,3.254,10.351,1.653-.73,5.419-2.934,7.11-3.7,1.973-.871-.7-9.531-.743-9.813Z" transform="translate(36.597 9.02)"/><path class="b" d="M123.012,65.643c.154-.384.295-.781.461-1.166.961-2.088.269-3.638-2-4.112a2.057,2.057,0,0,0-1.576.756c-2.139,2.434-4.151,4.958-6.3,7.379a37.546,37.546,0,0,1-3.062,2.793c-.858-1.179-1.589-2.1-2.242-3.075-1.717-2.562-4.343-3.715-7.1-4.74a35.7,35.7,0,0,1-4.317-2.011,15.052,15.052,0,0,0-8.3-2.165c-3.984.346-8.045.525-11.8,2.216-.474.218-1,.346-1.537.538-3.126-4.907-4.8-10.338-6.329-15.77a38.408,38.408,0,0,1-1.64-11.133A28.027,28.027,0,0,1,77.316,14.168c5.329-4.663,11.312-8.276,18.2-9.839a41.773,41.773,0,0,1,24.648,2.037c.6.231,1.217.461,1.832.653a24.006,24.006,0,0,1,13.029,9.608c3.292,4.8,6.1,9.826,7.3,15.578,1.166,5.624,1.4,11.363-.538,16.8a21.4,21.4,0,0,1-8.571,11.274c-3.228,2.024-6.572,3.856-9.864,5.778-.115-.128-.231-.269-.346-.4ZM92.471,17.768c2.908,2.4,4.74,2.421,7.392.538a1.688,1.688,0,0,1,1.191-.154c.41.935,1.14,2.037.948,2.9-.794,3.408-1.665,6.8-4.01,9.608-1.32,1.6-1.217,3.216.128,4.266a6.061,6.061,0,0,0,6.367,1.115c1.345-.551,2.7-1.089,4.061-1.6,1.307-.5,6.585.961,7.392,2.05a3.536,3.536,0,0,1,.423,1.038,39.664,39.664,0,0,0,1.627,5.252,14.287,14.287,0,0,0,2.844,3.792c1.2,1.191,2.742,2.037,3.984,3.19a3.523,3.523,0,0,0,5.65-1.217c1.332-3.267,1.307-6.6.948-10.018-.423-4.023-.935-8.02-3-11.607a25.262,25.262,0,0,0-2.28-3.305c-2.344-2.857-4.65-5.778-7.2-8.455-1.063-1.115-2.947-1.409-4.035-2.511-2.293-2.319-5.278-3.408-8.135-4.356A46.912,46.912,0,0,0,96.532,6.635a5.968,5.968,0,0,0-3.561,1.012c-1.115.73-1.819,2.063-2.844,2.947-3.677,3.151-7.392,6.277-11.171,9.326-1.883,1.525-3.318,3.241-3.382,5.739a3.034,3.034,0,0,0,.82,2.088c1.576,1.473,4.548,1.038,6.124-.525,3.254-3.2,6.61-6.3,9.954-9.493Z" transform="translate(18.907 0.936)"/><path class="b" d="M171.584,49.765c-.2,4.574,1.512,7.238,5.944,8.25,2.87.653,4.945,2.421,7.341,3.754a12.019,12.019,0,0,0,2.524.884c1.012.282,2.05.487,3.075.743.256.064.538.307.743.256,2.408-.628,2.485,1.281,2.806,2.69a23.5,23.5,0,0,1-2.1,15.757c-2,4.1-4.74,7.827-6.956,11.837-2.293,4.138-4.356,8.4-6.534,12.619-.192.359-.359.846-.679,1.012-1.358.73-2.793,1.332-4.164,2.05-2.652,1.409-5.547.41-8.276.935-3.587.692-6.431-1.281-9.454-2.562-5.214-2.2-10.595-4.125-15.527-6.854a48.419,48.419,0,0,1-11.069-8.3c-3.818-3.895-5-9.185-5.112-14.617-.09-4.228,0-8.468,1.909-12.363a27.279,27.279,0,0,1,3.28-4.932C134,55.03,140.466,51.968,147.32,49.406a30.373,30.373,0,0,1,10.595-1.9,50.072,50.072,0,0,1,8.135,1.012c1.87.307,3.715.82,5.509,1.23ZM144.912,68.943c-.423,5.188.717,6.5,4.24,6.405a6.45,6.45,0,0,0,2.882-.769,27.085,27.085,0,0,0,3.677-2.626c1.794-1.435,2.024-1.512,3.779.064A18.061,18.061,0,0,0,169.5,76.924c4.574.551,9.16,1.806,13.721-.128a5.808,5.808,0,0,1,1.589-.269,3.805,3.805,0,0,0,3.626-4.087c-.038-.974-.128-1.934-.256-2.908a7.67,7.67,0,0,0-3.151-5.56c-3-2.191-5.6-4.932-9.339-5.944a1.029,1.029,0,0,1-.41-.243c-2.319-2.127-5.317-2.754-8.161-3.741-3.869-1.332-7.3-.359-10.62,1.691-2.332,1.435-4.74,2.716-7.1,4.112-.589.346-1.384.717-1.6,1.268-1.217,3.075-2.28,6.213-2.857,7.815Zm5.957-17.807c-1.115.154-1.87.192-2.588.372a2.182,2.182,0,0,0-1.473,2.677c.064.436,1.4.935,2.165.961a14.16,14.16,0,0,0,3.8-.487,1.927,1.927,0,0,0,1.2-1.217,1.8,1.8,0,0,0-.73-1.5,11.793,11.793,0,0,0-2.37-.807Z" transform="translate(34.89 13.355)"/><path class="b" d="M53.61,95.642c1.294-2.2,2.588-4.394,3.882-6.6,3.139-5.355,6.879-10.274,10.518-15.3,3.267-4.5,7.213-8.276,10.787-12.427A35.651,35.651,0,0,1,90.16,52.635a6.127,6.127,0,0,1,7.674,1.281c1.14,1.243,2.588,2.562,2.972,4.074.871,3.446-.461,5.445-4.292,6.956-3,1.179-6.021,2.344-9.006,3.574A65.269,65.269,0,0,0,67.484,81.409c-3.7,3.5-7.008,7.418-10.5,11.133-1.038,1.1-2.165,2.127-3.254,3.19l-.115-.077Z" transform="translate(15.069 14.571)"/><path class="b" d="M192.819,147.184A151.989,151.989,0,0,0,168.645,123c-6.047-4.894-9.288-11.056-9.275-18.9,0-1.166.231-1.742,1.576-1.806,2.127-.115,4.253-.487,6.739-.794a66.668,66.668,0,0,1,2.524,6.175,35.6,35.6,0,0,0,4.727,9.045c2.613,4,5.368,7.892,7.84,11.965,2.806,4.638,5.406,9.4,8.032,14.143.7,1.255,1.23,2.626,2.024,4.356Z" transform="translate(44.798 28.531)"/><path class="b" d="M75.628,72.68c2.011,2.2,3.344,5.1,7.251,4.24-.91,2.806-1.486,5.214-2.447,7.456-2.511,5.855-5.2,11.62-7.763,17.448a1.715,1.715,0,0,1-2.127,1.166c-1.281-.192-2.562-.346-3.843-.525-1.332-.192-1.794-.82-1.422-2.229,1.307-4.971,2.7-9.89,5.2-14.412a60.793,60.793,0,0,0,3.254-6.111,44.986,44.986,0,0,0,1.589-5.867c.077-.295.154-.589.295-1.166Z" transform="translate(18.314 20.43)"/><path class="b" d="M152.161,100.44c1.589.448,3.1.807,4.548,1.32.384.141.9.833.82,1.166-.359,1.729-.846,3.433-1.371,5.124-2.05,6.534-4.061,13.067-6.2,19.562-3.2,9.723-5.893,19.626-10.646,28.773a1.315,1.315,0,0,1-.781.743c.9-3.843,1.653-7.712,2.716-11.5,1.345-4.766,2.921-9.48,4.445-14.195a34.768,34.768,0,0,1,1.717-4.509,29.889,29.889,0,0,0,2.575-15.271c-.256-4,.192-7.8,2.191-11.2Z" transform="translate(38.94 28.233)"/><path class="b" d="M219.124,111.441c-2.959-.666-5.509-1.255-8.058-1.806-8.43-1.806-16.885-3.536-25.3-5.432-3.933-.884-7.8-2-11.671-3.139a13.282,13.282,0,0,1-2.844-1.64c.051-.231.115-.461.167-.7,3.395.282,6.79.436,10.172.858,13.08,1.653,25.993,3.83,37.536,11.85Z" transform="translate(48.137 27.75)"/><path class="b" d="M85.713,103.481c.564-1.371,1.05-2.78,1.7-4.112,2.78-5.6,5.573-11.21,6.329-17.5.359-2.985.09-6.034.384-9.032a47.464,47.464,0,0,1,1.4-6.047l.666.077c.038.858.051,1.717.128,2.562a40.756,40.756,0,0,1-.794,10.864c-.641,3.741-.884,7.546-1.345,11.312a4.2,4.2,0,0,1-.551,1.832c-2.4,3.485-4.855,6.931-7.3,10.4-.2-.115-.423-.243-.628-.359Z" transform="translate(24.089 18.774)"/><path class="b" d="M64.635,100.33c1.589.73,2.934,1.345,4.676,2.152-2.524,4.407-4.958,8.66-7.4,12.913-.218-.09-.448-.167-.666-.256,1.115-4.894,2.242-9.788,3.395-14.8Z" transform="translate(17.214 28.202)"/><path class="b" d="M90.648,17.048c-3.356,3.177-6.7,6.29-9.954,9.493-1.576,1.55-4.548,1.986-6.124.525a3.011,3.011,0,0,1-.82-2.088c.064-2.485,1.512-4.215,3.382-5.739C80.9,16.19,84.614,13.064,88.3,9.912c1.038-.884,1.729-2.229,2.844-2.947a5.968,5.968,0,0,1,3.561-1.012,47.694,47.694,0,0,1,10.236,1.653c2.857.948,5.842,2.037,8.135,4.356,1.089,1.089,2.972,1.4,4.035,2.511,2.549,2.677,4.855,5.586,7.2,8.455a23.318,23.318,0,0,1,2.28,3.305c2.063,3.587,2.575,7.571,3,11.607.359,3.421.384,6.751-.948,10.018A3.523,3.523,0,0,1,123,49.075c-1.243-1.153-2.793-2-3.984-3.19a13.89,13.89,0,0,1-2.844-3.792,36.194,36.194,0,0,1-1.627-5.252,3.22,3.22,0,0,0-.423-1.038c-.807-1.089-6.072-2.537-7.392-2.05-1.358.512-2.716,1.05-4.061,1.6A6.087,6.087,0,0,1,96.3,34.24c-1.345-1.05-1.46-2.665-.128-4.266,2.332-2.818,3.216-6.213,4.01-9.608.192-.858-.525-1.96-.948-2.9a1.617,1.617,0,0,0-1.191.154c-2.652,1.883-4.484,1.858-7.392-.538Z" transform="translate(20.73 1.669)"/><path class="b" d="M140.384,67.64c.576-1.6,1.64-4.74,2.857-7.815.218-.551,1.012-.922,1.6-1.268,2.357-1.384,4.766-2.677,7.1-4.112,3.331-2.05,6.764-3.023,10.62-1.691,2.844.986,5.842,1.614,8.161,3.741a1.124,1.124,0,0,0,.41.243c3.741,1.012,6.341,3.766,9.339,5.944a7.67,7.67,0,0,1,3.151,5.56,27.545,27.545,0,0,1,.256,2.908,3.805,3.805,0,0,1-3.626,4.087,5.894,5.894,0,0,0-1.589.269c-4.561,1.947-9.134.692-13.721.128a18.146,18.146,0,0,1-10.005-4.907c-1.755-1.576-2-1.5-3.779-.064a26.312,26.312,0,0,1-3.677,2.626,6.45,6.45,0,0,1-2.882.769c-3.523.09-4.663-1.217-4.24-6.405Z" transform="translate(39.43 14.657)"/><path class="b" d="M145.912,50.34a10.809,10.809,0,0,1,2.37.807,1.771,1.771,0,0,1,.73,1.5,1.927,1.927,0,0,1-1.2,1.217,13.666,13.666,0,0,1-3.8.487c-.769-.026-2.1-.525-2.165-.961a2.182,2.182,0,0,1,1.473-2.677,23.834,23.834,0,0,1,2.588-.372Z" transform="translate(39.859 14.15)"/><path class="c" d="M131.809,63.77a25,25,0,0,0-15.552-14.515,34.186,34.186,0,0,0-17.167-.487c-2.344.487-6.508,1.05-8.391,2.6s-.628,2.434-2.165,3.92A133.34,133.34,0,0,0,75.645,69.535,131.241,131.241,0,0,0,66.524,83.5c-2.229,3.8-4.625,7.507-6.892,11.171-2.152-2.037-4.138-4.023-6.239-5.88-4.766-4.215-9.365-8.66-14.425-12.478-6.38-4.8-14.092-6.61-21.753-8.289a2.729,2.729,0,0,0-3.395,1.5c-.6,1.525,0,2.524,1.768,3.5,2.268,1.243,4.6,2.408,6.79,3.779,3.561,2.229,7.059,4.574,10.556,6.905,2.37,1.589,4.766,3.151,7.046,4.881,5.073,3.843,10.069,7.789,15.143,11.645.756.576.922.974.474,1.845q-3.113,6.034-6.085,12.119C46.68,120.01,44,125.9,41.069,131.68c-1.922,3.792-4.176,7.4-6.239,11.12a83.519,83.519,0,0,0-4.983,9.39c-7.9,19.844-13.81,41.943-28.107,58.418-1.179,1.358-2.434,3.382-1.255,4.727,1.038,1.179,3.023.564,4.164-.512,3.715-3.485,7.443-6.982,11.222-10.428a48.692,48.692,0,0,0,11.222-15.117c1.781-3.741,3.19-7.674,4.945-11.427,3.779-8.122,7.879-16.1,11.466-24.315,3.754-8.6,7.02-17.4,10.569-26.083,1.409-3.433,2.639-7.033,4.612-10.133,2.088-3.292,4.932-6.1,7.507-9.07a1.6,1.6,0,0,1,1.448-.32c2.793,1.307,5.522,2.716,8.276,4.087a1.307,1.307,0,0,1,.858,1.755c-1.332,5.56-2.562,11.146-3.856,16.718a62.312,62.312,0,0,1-4.932,14q-14.528,29-28.287,58.405c-1.4,2.972-8.532,12.747-6.239,15.629a3.088,3.088,0,0,0,3.83.743,5.967,5.967,0,0,0,1.845-1.986c13.2-19.485,27.505-38.587,38.8-59.251,3.792-6.944,6.905-14.259,10.313-21.407a12.354,12.354,0,0,0,.474-1.371c1.32-4,2.613-7.994,4-11.965a17.825,17.825,0,0,1,1.384-2.588c.9.359,1.525.641,2.178.858,2.908,1.012,5.739,1.358,8.34-.858,1.665-1.422,3.408-2.754,5.137-4.1,5.124-3.971,8.968-9.121,12.785-14.233,1.627-2.178,2.511-4.945,3.574-7.52,1.563-3.818,3.113-7.661,4.407-11.568.794-2.408.9-5.06,1.678-7.482a18.025,18.025,0,0,0-.384-12.017ZM68.676,96.745c1.294-2.2,2.588-4.394,3.882-6.6,3.139-5.355,6.879-10.274,10.518-15.3,3.267-4.5,7.213-8.276,10.787-12.427a35.651,35.651,0,0,1,11.363-8.686A6.127,6.127,0,0,1,112.9,55.02c1.14,1.243,2.588,2.562,2.972,4.074a14.041,14.041,0,0,1,.145,2.915,10.17,10.17,0,0,1-4.437,4.042c-3,1.179-6.021,2.344-9.006,3.574A65.269,65.269,0,0,0,82.551,82.512c-3.7,3.5-7.008,7.418-10.5,11.133-1.038,1.1-2.165,2.127-3.254,3.19l-.115-.077Zm1.217,6.341c4.958-5.329,9.736-10.441,14.5-15.552l.2.2c-2.152,6.239-4.317,12.478-6.585,19.063-2.421-1.1-5.035-2.306-8.122-3.715ZM79.13,130.13c-.218-.09-.448-.167-.666-.256,1.115-4.894,2.242-9.788,3.395-14.8,1.589.73,2.934,1.345,4.676,2.152-2.524,4.407-4.958,8.66-7.392,12.913Zm11.863-21.317a1.715,1.715,0,0,1-2.127,1.166c-1.281-.192-2.562-.346-3.843-.525-1.332-.192-1.794-.82-1.422-2.229,1.307-4.971,2.7-9.89,5.2-14.412A60.794,60.794,0,0,0,92.056,86.7a44.987,44.987,0,0,0,1.589-5.867c.077-.295.154-.589.295-1.166,2.011,2.2,3.344,5.1,7.251,4.24-.91,2.806-1.486,5.214-2.447,7.456-2.511,5.855-5.2,11.62-7.763,17.449Zm17.846-10.531c-.846,2.408-1.832,4.778-3.895,6.405-2.178,1.7-4.5,3.241-7.11,5.1.064-4.317,2.063-7.366,3.382-10.62,1.5-3.741,3.28-7.379,4.791-11.107.423-1.05,1.025-1.486,1.9-1.153a18.546,18.546,0,0,1,3.613,1.947c.256.167.2,1.038.051,1.512C110.7,93.017,109.761,95.643,108.839,98.282ZM119.625,85.6c-.641,3.741-.884,7.546-1.345,11.312a4.2,4.2,0,0,1-.551,1.832c-2.4,3.485-4.855,6.931-7.289,10.4-.2-.115-.423-.243-.628-.359.564-1.371,1.05-2.78,1.7-4.112,2.78-5.6,5.573-11.21,6.329-17.5.359-2.985.09-6.034.384-9.032a47.463,47.463,0,0,1,1.4-6.047l.666.077c.038.858.051,1.717.128,2.562a40.756,40.756,0,0,1-.794,10.864Z" transform="translate(0.003 13.467)"/><path class="c" d="M130.963,32.127a1,1,0,0,0-.013-.167A.73.73,0,0,0,130.963,32.127Z" transform="translate(36.809 8.984)"/><path class="c" d="M262.051,124.4c-1.729-1.614-3.613-3.062-5.47-4.535-5.816-4.638-11.53-9.39-17.974-13.208-4.24-2.511-8.417-5-13.349-5.919a60.422,60.422,0,0,1-6.79-1.486,99,99,0,0,0-16.846-3.113c-4.83-.538-9.736-1.87-14.63-1.563-5.317.32-10.287,2.844-15.655,2.818-2.921-.013-5.778-.781-8.686-1.025-2-.167-6.149-.231-7.584,1.563-1.512,1.9-.077,4.843-.269,7.148-.41,4.945-2.037,9.672-2.69,14.566a171.344,171.344,0,0,1-4.753,24.789c-7.968,27.492-24.174,49.514-40.649,72.459-.884,1.243-1.794,2.947-.871,4.164,1.32,1.729,4-.026,5.342-1.729,12.837-16.257,26.685-31.63,36.665-49.924a225.869,225.869,0,0,0,12.529-27.479q2.671-6.995,4.983-14.092c.653-1.973,4.945-11.62,4.048-13.042a6.518,6.518,0,0,1,.717,1.14,20.267,20.267,0,0,0,5.906,9.134c2.37,2.268,5.137,4.112,7.52,6.367,4.189,3.959,8.327,7.981,12.3,12.17,6.162,6.5,11.338,14.22,13.772,22.906a40.454,40.454,0,0,0,2.229,7.033c.833,1.7,2.588,3.433,4.369,2.78,1.87-.679,2-3.241,1.794-5.227-.807-7.725-1.025-16.065-4.689-23.1-1.5-2.87-3.036-5.727-4.471-8.622a161.416,161.416,0,0,0-14.015-23.636,73.479,73.479,0,0,1-4.381-7.8c.141-.128.282-.256.41-.384.564.064,1.153.064,1.7.179,11.069,2.293,22.214,4.33,33.283,6.687,9.275,1.973,18.64,5.252,25.481,11.824.807.781,1.729,1.665,2.857,1.627a11.335,11.335,0,0,0,2.191-.666c1.537-.359,2.216,1.614,3.728,1.281a15.278,15.278,0,0,0,3.356-1.627,9.11,9.11,0,0,0-1.4-2.473ZM165.444,109.71c-2.05,6.534-4.061,13.067-6.2,19.562-3.2,9.723-5.893,19.626-10.646,28.773a1.315,1.315,0,0,1-.781.743c.9-3.843,1.653-7.712,2.716-11.5,1.345-4.766,2.921-9.48,4.445-14.195a34.77,34.77,0,0,1,1.717-4.509,29.889,29.889,0,0,0,2.575-15.271c-.256-4,.192-7.8,2.191-11.2,1.589.448,3.1.807,4.548,1.32.384.141.9.833.82,1.166-.359,1.729-.846,3.433-1.371,5.124Zm32.463,20.933c2.806,4.638,5.406,9.4,8.032,14.143.7,1.255,1.23,2.626,2.024,4.356a151.989,151.989,0,0,0-24.174-24.187c-6.047-4.894-9.288-11.056-9.275-18.9,0-1.166.231-1.742,1.576-1.806,2.127-.115,4.253-.487,6.739-.794a66.67,66.67,0,0,1,2.524,6.175,35.6,35.6,0,0,0,4.727,9.045c2.613,3.984,5.368,7.892,7.84,11.965Zm31.643-19.831c-8.43-1.806-16.885-3.536-25.3-5.432-3.933-.884-7.8-2-11.671-3.139a13.282,13.282,0,0,1-2.844-1.64c.051-.231.115-.461.167-.7,3.395.282,6.79.436,10.172.858,13.08,1.653,25.993,3.83,37.536,11.85-2.959-.666-5.509-1.255-8.058-1.806Z" transform="translate(29.641 26.573)"/><path class="c" d="M53.61,95.642c1.294-2.2,2.588-4.394,3.882-6.6,3.139-5.355,6.879-10.274,10.518-15.3,3.267-4.5,7.213-8.276,10.787-12.427A35.651,35.651,0,0,1,90.16,52.635a6.127,6.127,0,0,1,7.674,1.281c1.14,1.243,2.588,2.562,2.972,4.074.871,3.446-.461,5.445-4.292,6.956-3,1.179-6.021,2.344-9.006,3.574A65.269,65.269,0,0,0,67.484,81.409c-3.7,3.5-7.008,7.418-10.5,11.133-1.038,1.1-2.165,2.127-3.254,3.19l-.115-.077Z" transform="translate(15.069 14.571)"/><path class="c" d="M192.819,147.184A151.989,151.989,0,0,0,168.645,123c-6.047-4.894-9.288-11.056-9.275-18.9,0-1.166.231-1.742,1.576-1.806,2.127-.115,4.253-.487,6.739-.794a66.668,66.668,0,0,1,2.524,6.175,35.6,35.6,0,0,0,4.727,9.045c2.613,4,5.368,7.892,7.84,11.965,2.806,4.638,5.406,9.4,8.032,14.143.7,1.255,1.23,2.626,2.024,4.356Z" transform="translate(44.798 28.531)"/><path class="c" d="M75.628,72.68c2.011,2.2,3.344,5.1,7.251,4.24-.91,2.806-1.486,5.214-2.447,7.456-2.511,5.855-5.2,11.62-7.763,17.448a1.715,1.715,0,0,1-2.127,1.166c-1.281-.192-2.562-.346-3.843-.525-1.332-.192-1.794-.82-1.422-2.229,1.307-4.971,2.7-9.89,5.2-14.412a60.793,60.793,0,0,0,3.254-6.111,44.986,44.986,0,0,0,1.589-5.867c.077-.295.154-.589.295-1.166Z" transform="translate(18.314 20.43)"/><path class="c" d="M152.161,100.44c1.589.448,3.1.807,4.548,1.32.384.141.9.833.82,1.166-.359,1.729-.846,3.433-1.371,5.124-2.05,6.534-4.061,13.067-6.2,19.562-3.2,9.723-5.893,19.626-10.646,28.773a1.315,1.315,0,0,1-.781.743c.9-3.843,1.653-7.712,2.716-11.5,1.345-4.766,2.921-9.48,4.445-14.195a34.768,34.768,0,0,1,1.717-4.509,29.889,29.889,0,0,0,2.575-15.271c-.256-4,.192-7.8,2.191-11.2Z" transform="translate(38.94 28.233)"/><path class="c" d="M219.124,111.441c-2.959-.666-5.509-1.255-8.058-1.806-8.43-1.806-16.885-3.536-25.3-5.432-3.933-.884-7.8-2-11.671-3.139a13.282,13.282,0,0,1-2.844-1.64c.051-.231.115-.461.167-.7,3.395.282,6.79.436,10.172.858,13.08,1.653,25.993,3.83,37.536,11.85Z" transform="translate(48.137 27.75)"/><path class="c" d="M85.713,103.481c.564-1.371,1.05-2.78,1.7-4.112,2.78-5.6,5.573-11.21,6.329-17.5.359-2.985.09-6.034.384-9.032a47.464,47.464,0,0,1,1.4-6.047l.666.077c.038.858.051,1.717.128,2.562a40.756,40.756,0,0,1-.794,10.864c-.641,3.741-.884,7.546-1.345,11.312a4.2,4.2,0,0,1-.551,1.832c-2.4,3.485-4.855,6.931-7.3,10.4-.2-.115-.423-.243-.628-.359Z" transform="translate(24.089 18.774)"/><path class="c" d="M64.635,100.33c1.589.73,2.934,1.345,4.676,2.152-2.524,4.407-4.958,8.66-7.4,12.913-.218-.09-.448-.167-.666-.256,1.115-4.894,2.242-9.788,3.395-14.8Z" transform="translate(17.214 28.202)"/></g><rect class="d" width="330" height="55" transform="translate(1362 504)"/><text class="e" transform="translate(1406 539)"><tspan x="0" y="0">BUSKE &amp; TRÆER</tspan></text></g></svg>