<svg xmlns="http://www.w3.org/2000/svg" xmlns:xlink="http://www.w3.org/1999/xlink" width="264.406" height="186.247" viewBox="0 0 264.406 186.247">
  <defs>
    <clipPath id="clip-path">
      <rect id="Rectangle_533" data-name="Rectangle 533" width="190.03" height="186.247" fill="none"/>
    </clipPath>
    <clipPath id="clip-path-2">
      <rect id="Rectangle_532" data-name="Rectangle 532" width="75.67" height="63.944" fill="none"/>
    </clipPath>
  </defs>
  <g id="Group_552" data-name="Group 552" transform="translate(-123.071 -1389.832)">
    <g id="Group_463" data-name="Group 463" transform="translate(123.071 1389.832)">
      <g id="Group_440" data-name="Group 440" clip-path="url(#clip-path)">
        <path id="Path_71" data-name="Path 71" d="M71.793,219.612c.049-.772-.1-1.644,1.271-1.786l-.638,1.786Z" transform="translate(-41.498 -125.91)" fill="#dd9300"/>
        <path id="Path_72" data-name="Path 72" d="M155.966,93.167l-4.242,2.38-41.708,48.066-6.646,17.047-.034,5.068-.97,10.676.336,4.99-.889,4.293-3.6,2.231-1.149-.756-6.134-6.926-4.159-4.148L80.3,166.2,77.2,167.952l-2.233,2.777-2.982,1.982-4.833-2.247-3.053-3.6-.235-5.1.061-6.259L46.712,113.881s-25.5-23.061-37.1-36.3c-1.793-2.048-3.931-7.491-3.931-7.491L7.862,62.3a28.123,28.123,0,0,1-3.651-3,18.64,18.64,0,0,1-1.734-3.941c-.642-1.6-2.463-4.768-1.5-6.2,3.815-5.64,8.774-4.576,12.926-2.944a32.88,32.88,0,0,0,6.587,1.566s8.389-3.019,11.922-3.621a65.614,65.614,0,0,1-.783-9.427L33.741,24.7,48.349,8.621,65.8,3.3,71.6,8.262S81.695,20.48,85.752,27.484l3.86-.266L93.448,28.7l4.469,4.04,14.057-2.908,10.661,1.628,1.82.477.795-.657,5.495-4.825,4.118-1.88,12.867.049,2.724,1.344s11.284,9.8,14.754,16.411" transform="translate(-0.406 -1.907)" fill="#dd9300"/>
        <path id="Path_73" data-name="Path 73" d="M114.746,204.167l19.568-36.457,1.822-2.2,2.4.789-28.643,57.487-4.364,15.091-.869,2.812-2.6.483-.354-2.611,2.511-11.994c-1.857,4.892-5.224,14.8-5.224,14.8l-.431,2.846,1.4,2.515s8.467,7.26,12.41,10.664c4.5-34.761,51.455-87.562,51.455-87.562l4.411-5.9-.57-4.546-7.333-8.927-10.972,1.547-6.2,8.085L131.55,159.81l-17.578,1.543s-7.312-15.237-14.862-16.761c.005,2.607-.225,6.829-.225,6.829a39.305,39.305,0,0,1-4.784,5.148c7.942,16.868,6.342,54.98,6.342,54.98L98.96,214.2,97.1,211.41l-.71-33.588-8.958-27.527-1-1.753-6.746,1.534-3.44,7.537-3.322,15.37-7.32,1.029a69,69,0,0,1-6.768-3.537l5.859,8.46,16.575,27.926,8.083,30.492-.388,2.506-3.328-2.791L74.916,199.86,53.665,167.6l-2.158-3.856-3.22-1.319-18.272-4.413c6.846,6.941,21.8,19.489,21.8,19.489l24.117,30.763,7.375,21.3,1.161,11.382-.072,5.249s2.978,3.209,4.068,4.364c3.161-1.442,6.047-8.161,6.047-8.161l21.642-71.376,2.561-2.8.883,3.508s-9.028,33.81-13.1,49.2c2.46-4.582,8.256-16.767,8.256-16.767" transform="translate(-17.35 -83.578)" fill="#dd9300"/>
        <path id="Path_74" data-name="Path 74" d="M95.779,69.908C95.706,67.741,90.6,46.652,90.6,46.652L79.961,27.945l-9.256-8.6-3.689-3.067-12.875,4.05L42.686,30.935,40.108,46.508,46.53,63.624,45.421,66.1l-2.734-.882L39.192,57.9l-3.12-2.847-4.021.271-8.5,3.6s-6.79-3.928-8.975-4.87A5.753,5.753,0,0,0,7.9,55.208a3.617,3.617,0,0,0-.489,1.219,19.032,19.032,0,0,0,1.8,4.385,4.206,4.206,0,0,0,.6.572l.936,1.576,2.9,6.435s-.358,2.45-.423,3.685c-.2,3.741,5.9,8.845,5.9,8.845l10.856,2.665,10.643,3.272L53.41,96.672l1.69.38,2.421-.357.528-1.059.076-5.767,2.054-9.718.4-2.028,4.877-4.95,6.5-3.567,4.245-.422,3.491,2.261a43.962,43.962,0,0,0,1.394,5.931c.146-1.617.69-6.212.69-6.212l1.079-4.123,6-.869,3.737,1.747s2.169,1.815,3.188,1.988" transform="translate(-4.283 -9.406)" fill="#dd9300"/>
        <path id="Path_75" data-name="Path 75" d="M360.283,105.286l-6.54,2.761-.442-2.378,3.1-2.769,5.8-3.248" transform="translate(-204.219 -57.601)" fill="#dd9300"/>
        <path id="Path_76" data-name="Path 76" d="M306.6,71.835l-5.613-6.207-2.819-2.155-5.264-1.5-12.176,1.2-12.74,19.8-3.226,7.811c-1.311,3.173-2.446,6.55-3.832,9.744a35.681,35.681,0,0,1-2.229,4.448,19.128,19.128,0,0,0-2.4,4.285s2.857-.4,3.1-.416l4.838-.266,8.5-1.651,1.046-3.169,9.221-6.537,7.41-.292,4.84,2.843,9.169,16.953" transform="translate(-148.15 -35.82)" fill="#dd9300"/>
        <path id="Path_77" data-name="Path 77" d="M206.409,68.082c.864,1.621,2.513,4.782,2.513,4.782s1.786,4.625,2.581,6.972c.559,1.65.963,3.353,1.456,5.026a9.327,9.327,0,0,1,.569,1.651c.235,2.624.41,5.254.576,7.883.2,3.159.279,6.33.586,9.478a29.135,29.135,0,0,0,1.1,4.406s1.555,3.142,2.466,4.636a2.433,2.433,0,0,0,1.463,1.02,1.317,1.317,0,0,0,1.32-.944c.64-1.493,1.328-2.968,2.032-4.432,1.148-2.384,2.415-4.714,3.468-7.138,1.814-4.175,3.433-8.435,5.266-12.6,1.135-2.579,2.453-5.084,3.8-7.561a42.625,42.625,0,0,1,4.753-7.617c1.115-1.3,1.051-1.374-.448-2.193a18.434,18.434,0,0,0-7.156-2.507,24.225,24.225,0,0,0-5.848.024,40.177,40.177,0,0,0-5.187,1.72,17.128,17.128,0,0,1-3.7.808c-3,.217-5.518-1.173-7.942-2.71a4.621,4.621,0,0,0-3.677-.7" transform="translate(-119.31 -39.282)" fill="#dd9300"/>
        <path id="Path_78" data-name="Path 78" d="M343.3,204.222a16.464,16.464,0,0,1-1.511,1.73c-.8.69-1.764,1.2-2.527,1.928-1.375,1.309-2.618,2.756-3.983,4.076-1.2,1.166-2.521,2.215-3.744,3.363a13.756,13.756,0,0,0-1.246,1.547l.153.14a82.474,82.474,0,0,1,14.811-9.481l-1.953-3.3" transform="translate(-190.918 -118.046)" fill="#dd9300"/>
        <path id="Path_79" data-name="Path 79" d="M230.608,412.2l.314-.055c-.074-.94-.137-1.881-.224-2.819s-.277-1.86-.273-2.789c0-.958.207-1.914.285-2.873.075-.908.1-1.82.149-2.731l-.2-.013c-.1.442-.217.88-.291,1.326q-.646,3.893-1.263,7.792a.884.884,0,0,0,.171.611c.419.535.881,1.038,1.327,1.552" transform="translate(-132.429 -231.743)" fill="#dd9300"/>
        <path id="Path_80" data-name="Path 80" d="M343.3,204.222l1.953,3.3a82.474,82.474,0,0,0-14.811,9.481l-.153-.14a13.756,13.756,0,0,1,1.246-1.547c1.223-1.148,2.539-2.2,3.744-3.363,1.365-1.32,2.607-2.767,3.983-4.076.763-.725,1.725-1.238,2.527-1.928a16.464,16.464,0,0,0,1.511-1.73" transform="translate(-190.918 -118.046)" fill="#dd9300"/>
        <path id="Path_81" data-name="Path 81" d="M230.608,412.2c-.446-.515-.907-1.017-1.327-1.552a.884.884,0,0,1-.171-.611q.61-3.9,1.263-7.792c.074-.446.193-.884.291-1.326l.2.013c-.048.911-.075,1.822-.149,2.731-.078.959-.281,1.915-.285,2.873,0,.929.187,1.858.273,2.789s.15,1.879.224,2.819l-.314.055" transform="translate(-132.429 -231.743)" fill="#dd9300"/>
        <path id="Path_82" data-name="Path 82" d="M159.278,199.978c.236,2.658.482,5.316.7,7.975.226,2.712.649,8.139.649,8.139l.9,8.945s.687,6.734,1.029,10.1c.033.329.04.662.089.988a2.643,2.643,0,0,1-2.2,2.767c-.475.046-1.218-.728-1.239-1.241-.1-2.406-.178-4.815-.333-7.218-.163-2.535-.389-5.067-.618-7.6-.106-1.179-.307-2.348-.419-3.526-.2-2.049-.356-4.1-.53-6.153-.262-3.092-.533-6.184-.784-9.277-.178-2.19-.489-6.575-.489-6.575l-.2-3.408s-.362-4.09-.611-6.127c-.288-2.366-.54-4.745-1-7.079-.644-3.234-1.406-6.448-2.234-9.64-1.1-4.218-2.316-8.4-3.451-12.611-.211-.782-.81-3.264-.81-3.264l1.839-.8s2.458-1.558,2.65-.7c.764,3.394,1.034,8.635,1.821,12.023.873,3.757,1.837,7.493,2.658,11.262.5,2.284.9,4.6,1.167,6.919.622,5.353,1.137,10.717,1.7,16.077l-.276.027" transform="translate(-85.389 -88.677)" fill="#dd9300"/>
        <path id="Path_83" data-name="Path 83" d="M233.586,234.175l8.9-15.35,2.26-3.333,4.461-6.367,2.6-4.1,2.922-4.326,3.281-5.189,7.154-2.529-10.376,12.569-19.335,32-4.627,9.628-3.966,11.4-1.221,3.337-2.976-.327.068-1.287Z" transform="translate(-128.707 -111.55)" fill="#dd9300"/>
        <path id="Path_84" data-name="Path 84" d="M32.3,42.546a37.121,37.121,0,0,1-.783-9.427,30.465,30.465,0,0,1,2.11-10.036C36.388,16.111,42.6,11.631,48.232,7c4.8-3.945,11.019-8.773,17.449-5.321a23.063,23.063,0,0,1,5.807,4.962A107.255,107.255,0,0,1,85.635,25.865c1.211-.085,2.534-.19,3.86-.267,1.5-.086,2.641.724,3.836,1.483,2.466,1.567,4.4,2.783,7.49,2.32,2.24-.336,4.35-1.249,6.549-1.793a20.442,20.442,0,0,1,15.147,2.233,2.236,2.236,0,0,0,1.82.477,2.084,2.084,0,0,0,.795-.657,33.7,33.7,0,0,1,5.495-4.825,12.055,12.055,0,0,1,4.118-1.88A22.961,22.961,0,0,1,147.612,23a9.644,9.644,0,0,1,2.724,1.344A45.226,45.226,0,0,1,165.09,40.76a1.866,1.866,0,0,0,.557.736,1.825,1.825,0,0,0,.913.217c3.182.187,6.628,1.019,9.764,1.019a6.742,6.742,0,0,0,.822.158,10.648,10.648,0,0,1,4.713,1.558c1.428.795,3.647,1.836,5.228,1.112a6.782,6.782,0,0,1,2.641-.2,5.975,5.975,0,0,1,.368,2.05,7.923,7.923,0,0,1-.293,1.048,10.848,10.848,0,0,1-1.439,1.077C182.1,52.863,183,59.206,183.5,65.107c.1,1.212.115,2.431.159,3.648.035.964.12,1.931.07,2.891a45.512,45.512,0,0,1-.422,4.918c-.857,5.284-5.9,10.532-9.961,13.663-4.689,3.617-11.873,5.426-16.9,1.34a.662.662,0,0,0-.592-.019,47.743,47.743,0,0,0-4.242,2.38A123.156,123.156,0,0,0,109.9,141.995a131.381,131.381,0,0,0-6.646,17.047c-.584,1.828.314,3.3-.034,5.068a55.164,55.164,0,0,0-.97,10.676c0,1.664.41,3.336.336,4.991a13.757,13.757,0,0,1-.889,4.293,3.08,3.08,0,0,1-3.6,2.231,1.765,1.765,0,0,1-1.149-.756,32.65,32.65,0,0,0-6.134-6.926c-1.459-1.3-2.818-2.722-4.159-4.148-1.321-1.4-2.552-2.891-3.842-4.322-1.191-1.321-3.508-5.261-5.734-3.816-1,.652-1.507,1.826-2.233,2.777a5.1,5.1,0,0,1-2.982,1.982c-1.909.373-3.578-.987-4.833-2.247-1.067-1.071-2.594-2.11-3.053-3.6-.452-1.47-.126-3.567-.235-5.1-.147-2.074.119-4.178.061-6.259-.449-16.2-8.512-28.669-17.213-41.615-9.976-14.841-25.5-23.061-37.1-36.3-1.793-2.048-3.683-4.688-3.931-7.491-.251-2.849,2.01-5.739.353-8.493-.5-.838-1.263-1.493-1.827-2.293A18.649,18.649,0,0,1,2.36,53.74,21.733,21.733,0,0,1,.567,48.911c-.956-6.634,8.649-7.2,12.8-5.571,2.754,1.083,5.548,2.5,8.5,2.248,3.575-.3,6.9-2.441,10.432-3.042m65.389,78.331,19.567-36.457a4.876,4.876,0,0,1,1.823-2.2,1.686,1.686,0,0,1,2.4.789,2.432,2.432,0,0,1-.384,1.633C109.223,108,91.92,129.621,88.465,155.589A5.719,5.719,0,0,1,87.6,158.4a1.874,1.874,0,0,1-2.6.483c-.677-.625-.542-1.709-.353-2.611l2.511-11.994q-2.786,7.338-5.224,14.8a5.947,5.947,0,0,0-.431,2.846,5.8,5.8,0,0,0,1.4,2.515,88.306,88.306,0,0,0,10.865,11.2c4.5-34.761,26.476-65.186,53-88.1,1.895-1.637,3.933-3.438,4.41-5.9a8.84,8.84,0,0,0-.57-4.545c-1.3-3.731-3.775-7.206-7.332-8.928s-8.256-1.323-10.973,1.548c-2.364,2.5-3.882,7.028-6.2,8.085-2.656,1.211-7.649-.871-11.607-1.288-5.941-.626-12.091,3.9-17.578,1.543C89.835,75.019,89.6,62.827,82.049,61.3c.009,4.621-.689,10.336-5.009,11.977,7.943,16.868,7.223,36.357,6.342,54.98-.052,1.106-.381,2.528-1.482,2.649-1.252.138-1.8-1.53-1.862-2.788-.573-11.2.96-22.5-.71-33.588-1.441-9.567-5.216-18.6-8.958-27.527a5.594,5.594,0,0,0-1-1.753c-1.8-1.886-5.043-.437-6.746,1.534a14.861,14.861,0,0,0-3.44,7.537c-.778,5.369.968,12.05-3.322,15.37a8.364,8.364,0,0,1-7.321,1.029,24.733,24.733,0,0,1-6.768-3.537l5.859,8.459c6.175,8.917,12.4,17.917,16.575,27.926,4.057,9.722,6.082,20.149,8.082,30.492.169.871.281,1.922-.388,2.506-1.33,1.162-2.973-1.061-3.328-2.791-2.608-12.7-4.416-25.878-10.718-37.207C51.578,105.282,41.125,96.414,36.6,84.313a8.671,8.671,0,0,0-2.158-3.856,7.753,7.753,0,0,0-3.22-1.319L12.955,74.727c6.846,6.94,14.636,12.873,21.8,19.489,9.62,8.889,18.149,19.1,24.117,30.763a78.625,78.625,0,0,1,7.375,21.3A67.31,67.31,0,0,1,67.4,157.658c.022,1.455-.566,3.91-.072,5.249.546,1.479,2.979,3.208,4.069,4.363,3.161-1.442,4.755-4.935,6.047-8.161A432.892,432.892,0,0,0,99.09,87.733c.295-1.4,1.187-3.2,2.561-2.8,1.292.372,1.227,2.209.883,3.509L90.308,134.623Zm-5.9-60.087c-.073-2.167-1.462-4.074-1.971-6.146C86.762,42.206,82.4,29.927,75.967,18.827a23.966,23.966,0,0,0-9.256-8.6C65,9.237,63.2,8.41,61.417,7.553c-4.581-2.2-9.618,2.684-12.514,5.684-3.118,3.229-7.164,5.332-10.21,8.58-7.737,8.251-2.151,21.84,2.7,30.042a7.311,7.311,0,0,1,1.141,2.647c.13.959-1.11,2.476-1.11,2.476s-2.1-.062-2.734-.882c-1.449-1.878-2.519-5.14-3.495-7.322a4.877,4.877,0,0,0-3.12-2.847,4.6,4.6,0,0,0-4.021.271,13.641,13.641,0,0,1-10.78,1.222,48.8,48.8,0,0,1-6.695-2.491A5.753,5.753,0,0,0,3.9,46.09a1.788,1.788,0,0,0-.489,1.219,8.972,8.972,0,0,0,1.8,4.385,1.87,1.87,0,0,0,.6.572,1.57,1.57,0,0,1,.936,1.576c-.067,2.932,2.856,3.7,2.9,6.435.022,1.238-.358,2.45-.423,3.685-.2,3.741,2.572,7.119,5.9,8.845s7.144,2.157,10.856,2.665,7.539,1.174,10.643,3.271c4.587,3.1,7.211,7.211,12.788,8.81.554.159,1.14.211,1.69.38a3.34,3.34,0,0,0,2.421-.357c.416-.185.537-.547.528-1.059-.032-1.922-.018-3.848.076-5.767.156-3.2,1.722-6.457,2.054-9.718a6.767,6.767,0,0,1,.4-2.027c.8-1.845,3.327-3.689,4.877-4.95a18.769,18.769,0,0,1,6.5-3.567,9.593,9.593,0,0,1,4.245-.422A4.868,4.868,0,0,1,75.7,62.328c.795,1.423.651,3.28,1.648,4.57q.218-2.425.436-4.851a8.68,8.68,0,0,1,1.079-4.123c1.364-2.037,4.02-1.582,6-.869A22.37,22.37,0,0,1,88.6,58.8c.97.568,2.169,1.815,3.187,1.988m70.148-19.077a3.129,3.129,0,0,0-.219-.753,44.152,44.152,0,0,0-2.978-4.658c-1.753-2.166-3.668-4.207-5.613-6.206-.816-.838-1.951-1.358-2.819-2.155a11.788,11.788,0,0,0-5.16-2.831c-4.8-1.2-10.877-.733-13.951,3.491a107,107,0,0,0-11.068,18.834c-1.157,2.566-2.14,5.212-3.226,7.811-.831,1.991-1.728,3.954-2.548,5.949a7,7,0,0,0-.744,2.5,7.512,7.512,0,0,1-.538,2.88c-.722,1.813-1.384,3.651-2.055,5.484-.136.371-.206.766-.323,1.217.356.016.606.049.854.036,1.613-.087,3.224-.229,4.838-.266,2.561-.058,7.086,1.151,8.5-1.651a31.655,31.655,0,0,0,1.046-3.169c1.384-3.669,5.42-5.573,9.221-6.537a14.178,14.178,0,0,1,7.41-.292,13.869,13.869,0,0,1,4.84,2.844c4.836,4.022,9.648,10.443,9.169,16.953a3.511,3.511,0,0,0,1.349,2.808c3.075,2.63,7.643,2.985,11.406,2.05,3.856-.959,8.1-4.437,9.408-8.3.227-.673.345-1.378.547-2.058.154-.52.357-1.024.513-1.544.952-3.16.248-6.732,0-9.966-.121-1.6-.369-3.18-.482-4.775a12.375,12.375,0,0,1,4.034-10,45.9,45.9,0,0,0-14.664-2.255c-4.106-.062-8.384-.671-12.324.83-2.023.77-4.271,3.8-6.541,2.761a1.379,1.379,0,0,1-.441-2.378c1.017-.941,2.063-1.849,3.1-2.769a13.661,13.661,0,0,1,5.8-3.248c1.155-.284,2.35-.407,3.663-.625M87.388,29.089c.864,1.62,1.819,3.146,2.514,4.782.968,2.279,1.786,4.625,2.581,6.972.559,1.65.963,3.353,1.456,5.026a9.33,9.33,0,0,1,.569,1.651c.235,2.624.41,5.254.576,7.883.2,3.16.279,6.33.586,9.478a16.125,16.125,0,0,0,1.1,4.406,32.017,32.017,0,0,0,2.466,4.636,2.431,2.431,0,0,0,1.463,1.019,1.317,1.317,0,0,0,1.32-.944c.64-1.494,1.328-2.968,2.033-4.433,1.147-2.384,2.415-4.714,3.468-7.138,1.814-4.175,3.433-8.435,5.266-12.6,1.135-2.579,2.452-5.084,3.8-7.561a42.657,42.657,0,0,1,4.753-7.617c1.116-1.3,1.051-1.374-.448-2.193a18.435,18.435,0,0,0-7.156-2.507,24.2,24.2,0,0,0-5.848.024,40.116,40.116,0,0,0-5.187,1.72,17.153,17.153,0,0,1-3.7.808c-3,.217-5.518-1.174-7.942-2.711a4.619,4.619,0,0,0-3.677-.7m65.286,57.375a16.4,16.4,0,0,1-1.512,1.73c-.8.69-1.764,1.2-2.527,1.928-1.376,1.309-2.618,2.755-3.983,4.076-1.2,1.165-2.521,2.215-3.743,3.363a13.75,13.75,0,0,0-1.247,1.547l.153.141a82.46,82.46,0,0,1,14.811-9.481l-1.953-3.3M98.468,180.746l.314-.055c-.074-.94-.137-1.881-.224-2.819s-.277-1.86-.273-2.789c0-.958.207-1.914.285-2.873.075-.908.1-1.82.149-2.731l-.195-.014c-.1.442-.217.88-.291,1.326q-.646,3.893-1.263,7.792a.884.884,0,0,0,.17.611c.419.535.881,1.038,1.327,1.552" transform="translate(-0.289 -0.289)" fill="#dd9300"/>
        <path id="Path_85" data-name="Path 85" d="M32.3,42.546a37.121,37.121,0,0,1-.783-9.427,30.465,30.465,0,0,1,2.11-10.036C36.388,16.111,42.6,11.631,48.232,7c4.8-3.945,11.019-8.773,17.449-5.321a23.063,23.063,0,0,1,5.807,4.962A107.255,107.255,0,0,1,85.635,25.865c1.211-.085,2.534-.19,3.86-.267,1.5-.086,2.641.724,3.836,1.483,2.466,1.567,4.4,2.783,7.49,2.32,2.24-.336,4.35-1.249,6.549-1.793a20.442,20.442,0,0,1,15.147,2.233,2.236,2.236,0,0,0,1.82.477,2.084,2.084,0,0,0,.795-.657,33.7,33.7,0,0,1,5.495-4.825,12.055,12.055,0,0,1,4.118-1.88A22.961,22.961,0,0,1,147.612,23a9.644,9.644,0,0,1,2.724,1.344A45.226,45.226,0,0,1,165.09,40.76a1.866,1.866,0,0,0,.557.736,1.825,1.825,0,0,0,.913.217c3.182.187,6.628,1.019,9.764,1.019a6.742,6.742,0,0,0,.822.158,10.648,10.648,0,0,1,4.713,1.558c1.428.795,3.647,1.836,5.228,1.112a6.782,6.782,0,0,1,2.641-.2,5.975,5.975,0,0,1,.368,2.05,7.923,7.923,0,0,1-.293,1.048,10.848,10.848,0,0,1-1.439,1.077C182.1,52.863,183,59.206,183.5,65.107c.1,1.212.115,2.431.159,3.648.035.964.12,1.931.07,2.891a45.512,45.512,0,0,1-.422,4.918c-.857,5.284-5.9,10.532-9.961,13.663-4.689,3.617-11.873,5.426-16.9,1.34a.662.662,0,0,0-.592-.019,47.743,47.743,0,0,0-4.242,2.38A123.156,123.156,0,0,0,109.9,141.995a131.381,131.381,0,0,0-6.646,17.047c-.584,1.828.314,3.3-.034,5.068a55.164,55.164,0,0,0-.97,10.676c0,1.664.41,3.336.336,4.991a13.757,13.757,0,0,1-.889,4.293,3.08,3.08,0,0,1-3.6,2.231,1.765,1.765,0,0,1-1.149-.756,32.65,32.65,0,0,0-6.134-6.926c-1.459-1.3-2.818-2.722-4.159-4.148-1.321-1.4-2.552-2.891-3.842-4.322-1.191-1.321-3.508-5.261-5.734-3.816-1,.652-1.507,1.826-2.233,2.777a5.1,5.1,0,0,1-2.982,1.982c-1.909.373-3.578-.987-4.833-2.247-1.067-1.071-2.594-2.11-3.053-3.6-.452-1.47-.126-3.567-.235-5.1-.147-2.074.119-4.178.061-6.259-.449-16.2-8.512-28.669-17.213-41.615-9.976-14.841-25.5-23.061-37.1-36.3-1.793-2.048-3.683-4.688-3.931-7.491-.251-2.849,2.01-5.739.353-8.493-.5-.838-1.263-1.493-1.827-2.293A18.649,18.649,0,0,1,2.36,53.74,21.733,21.733,0,0,1,.567,48.911c-.956-6.634,8.649-7.2,12.8-5.571,2.754,1.083,5.548,2.5,8.5,2.248C25.44,45.286,28.765,43.148,32.3,42.546Zm65.389,78.331,19.567-36.457a4.876,4.876,0,0,1,1.823-2.2,1.686,1.686,0,0,1,2.4.789,2.432,2.432,0,0,1-.384,1.633C109.223,108,91.92,129.621,88.465,155.589A5.719,5.719,0,0,1,87.6,158.4a1.874,1.874,0,0,1-2.6.483c-.677-.625-.542-1.709-.353-2.611l2.511-11.994q-2.786,7.338-5.224,14.8a5.947,5.947,0,0,0-.431,2.846,5.8,5.8,0,0,0,1.4,2.515,88.306,88.306,0,0,0,10.865,11.2c4.5-34.761,26.476-65.186,53-88.1,1.895-1.637,3.933-3.438,4.41-5.9a8.84,8.84,0,0,0-.57-4.545c-1.3-3.731-3.775-7.206-7.332-8.928s-8.256-1.323-10.973,1.548c-2.364,2.5-3.882,7.028-6.2,8.085-2.656,1.211-7.649-.871-11.607-1.288-5.941-.626-12.091,3.9-17.578,1.543C89.835,75.019,89.6,62.827,82.049,61.3c.009,4.621-.689,10.336-5.009,11.977,7.943,16.868,7.223,36.357,6.342,54.98-.052,1.106-.381,2.528-1.482,2.649-1.252.138-1.8-1.53-1.862-2.788-.573-11.2.96-22.5-.71-33.588-1.441-9.567-5.216-18.6-8.958-27.527a5.594,5.594,0,0,0-1-1.753c-1.8-1.886-5.043-.437-6.746,1.534a14.861,14.861,0,0,0-3.44,7.537c-.778,5.369.968,12.05-3.322,15.37a8.364,8.364,0,0,1-7.321,1.029,24.733,24.733,0,0,1-6.768-3.537l5.859,8.459c6.175,8.917,12.4,17.917,16.575,27.926,4.057,9.722,6.082,20.149,8.082,30.492.169.871.281,1.922-.388,2.506-1.33,1.162-2.973-1.061-3.328-2.791-2.608-12.7-4.416-25.878-10.718-37.207C51.578,105.282,41.125,96.414,36.6,84.313a8.671,8.671,0,0,0-2.158-3.856,7.753,7.753,0,0,0-3.22-1.319L12.955,74.727c6.846,6.94,14.636,12.873,21.8,19.489,9.62,8.889,18.149,19.1,24.117,30.763a78.625,78.625,0,0,1,7.375,21.3A67.31,67.31,0,0,1,67.4,157.658c.022,1.455-.566,3.91-.072,5.249.546,1.479,2.979,3.208,4.069,4.363,3.161-1.442,4.755-4.935,6.047-8.161A432.892,432.892,0,0,0,99.09,87.733c.295-1.4,1.187-3.2,2.561-2.8,1.292.372,1.227,2.209.883,3.509L90.308,134.623Zm-5.9-60.087c-.073-2.167-1.462-4.074-1.971-6.146C86.762,42.206,82.4,29.927,75.967,18.827a23.966,23.966,0,0,0-9.256-8.6C65,9.237,63.2,8.41,61.417,7.553c-4.581-2.2-9.618,2.684-12.514,5.684-3.118,3.229-7.164,5.332-10.21,8.58-7.737,8.251-2.151,21.84,2.7,30.042a7.311,7.311,0,0,1,1.141,2.647c.13.959-1.11,2.476-1.11,2.476s-2.1-.062-2.734-.882c-1.449-1.878-2.519-5.14-3.495-7.322a4.877,4.877,0,0,0-3.12-2.847,4.6,4.6,0,0,0-4.021.271,13.641,13.641,0,0,1-10.78,1.222,48.8,48.8,0,0,1-6.695-2.491A5.753,5.753,0,0,0,3.9,46.09a1.788,1.788,0,0,0-.489,1.219,8.972,8.972,0,0,0,1.8,4.385,1.87,1.87,0,0,0,.6.572,1.57,1.57,0,0,1,.936,1.576c-.067,2.932,2.856,3.7,2.9,6.435.022,1.238-.358,2.45-.423,3.685-.2,3.741,2.572,7.119,5.9,8.845s7.144,2.157,10.856,2.665,7.539,1.174,10.643,3.271c4.587,3.1,7.211,7.211,12.788,8.81.554.159,1.14.211,1.69.38a3.34,3.34,0,0,0,2.421-.357c.416-.185.537-.547.528-1.059-.032-1.922-.018-3.848.076-5.767.156-3.2,1.722-6.457,2.054-9.718a6.767,6.767,0,0,1,.4-2.027c.8-1.845,3.327-3.689,4.877-4.95a18.769,18.769,0,0,1,6.5-3.567,9.593,9.593,0,0,1,4.245-.422A4.868,4.868,0,0,1,75.7,62.328c.795,1.423.651,3.28,1.648,4.57q.218-2.425.436-4.851a8.68,8.68,0,0,1,1.079-4.123c1.364-2.037,4.02-1.582,6-.869A22.37,22.37,0,0,1,88.6,58.8C89.568,59.37,90.767,60.617,91.786,60.791Zm70.148-19.077a3.129,3.129,0,0,0-.219-.753,44.152,44.152,0,0,0-2.978-4.658c-1.753-2.166-3.668-4.207-5.613-6.206-.816-.838-1.951-1.358-2.819-2.155a11.788,11.788,0,0,0-5.16-2.831c-4.8-1.2-10.877-.733-13.951,3.491a107,107,0,0,0-11.068,18.834c-1.157,2.566-2.14,5.212-3.226,7.811-.831,1.991-1.728,3.954-2.548,5.949a7,7,0,0,0-.744,2.5,7.512,7.512,0,0,1-.538,2.88c-.722,1.813-1.384,3.651-2.055,5.484-.136.371-.206.766-.323,1.217.356.016.606.049.854.036,1.613-.087,3.224-.229,4.838-.266,2.561-.058,7.086,1.151,8.5-1.651a31.655,31.655,0,0,0,1.046-3.169c1.384-3.669,5.42-5.573,9.221-6.537a14.178,14.178,0,0,1,7.41-.292,13.869,13.869,0,0,1,4.84,2.844c4.836,4.022,9.648,10.443,9.169,16.953a3.511,3.511,0,0,0,1.349,2.808c3.075,2.63,7.643,2.985,11.406,2.05,3.856-.959,8.1-4.437,9.408-8.3.227-.673.345-1.378.547-2.058.154-.52.357-1.024.513-1.544.952-3.16.248-6.732,0-9.966-.121-1.6-.369-3.18-.482-4.775a12.375,12.375,0,0,1,4.034-10,45.9,45.9,0,0,0-14.664-2.255c-4.106-.062-8.384-.671-12.324.83-2.023.77-4.271,3.8-6.541,2.761a1.379,1.379,0,0,1-.441-2.378c1.017-.941,2.063-1.849,3.1-2.769a13.661,13.661,0,0,1,5.8-3.248C159.426,42.055,160.62,41.932,161.934,41.713ZM87.388,29.089c.864,1.62,1.819,3.146,2.514,4.782.968,2.279,1.786,4.625,2.581,6.972.559,1.65.963,3.353,1.456,5.026a9.33,9.33,0,0,1,.569,1.651c.235,2.624.41,5.254.576,7.883.2,3.16.279,6.33.586,9.478a16.125,16.125,0,0,0,1.1,4.406,32.017,32.017,0,0,0,2.466,4.636,2.431,2.431,0,0,0,1.463,1.019,1.317,1.317,0,0,0,1.32-.944c.64-1.494,1.328-2.968,2.033-4.433,1.147-2.384,2.415-4.714,3.468-7.138,1.814-4.175,3.433-8.435,5.266-12.6,1.135-2.579,2.452-5.084,3.8-7.561a42.657,42.657,0,0,1,4.753-7.617c1.116-1.3,1.051-1.374-.448-2.193a18.435,18.435,0,0,0-7.156-2.507,24.2,24.2,0,0,0-5.848.024,40.116,40.116,0,0,0-5.187,1.72,17.153,17.153,0,0,1-3.7.808c-3,.217-5.518-1.174-7.942-2.711A4.619,4.619,0,0,0,87.388,29.089Zm65.286,57.375a16.4,16.4,0,0,1-1.512,1.73c-.8.69-1.764,1.2-2.527,1.928-1.376,1.309-2.618,2.755-3.983,4.076-1.2,1.165-2.521,2.215-3.743,3.363a13.75,13.75,0,0,0-1.247,1.547l.153.141a82.46,82.46,0,0,1,14.811-9.481ZM98.468,180.746l.314-.055c-.074-.94-.137-1.881-.224-2.819s-.277-1.86-.273-2.789c0-.958.207-1.914.285-2.873.075-.908.1-1.82.149-2.731l-.195-.014c-.1.442-.217.88-.291,1.326q-.646,3.893-1.263,7.792a.884.884,0,0,0,.17.611C97.561,179.729,98.023,180.232,98.468,180.746Z" transform="translate(-0.289 -0.289)" fill="none" stroke="#ebb500" stroke-miterlimit="10" stroke-width="1"/>
        <path id="Path_86" data-name="Path 86" d="M366.008,151.973l10.317-3.173,5.6-8.2.369-4.919-1.59-15.314,6.563-8.737-5.309-.63-4.906-1.4H360.049l-7.392,5.174-3.428,30.453,2.4,8.935Z" transform="translate(-201.865 -63.352)" fill="#dd9300"/>
        <path id="Path_87" data-name="Path 87" d="M32.3,42.546a37.121,37.121,0,0,1-.783-9.427,30.465,30.465,0,0,1,2.11-10.036C36.388,16.111,42.6,11.631,48.232,7c4.8-3.945,11.019-8.773,17.449-5.321a23.063,23.063,0,0,1,5.807,4.962A107.255,107.255,0,0,1,85.635,25.865c1.211-.085,2.534-.19,3.86-.267,1.5-.086,2.641.724,3.836,1.483,2.466,1.567,4.4,2.783,7.49,2.32,2.24-.336,4.35-1.249,6.549-1.793a20.442,20.442,0,0,1,15.147,2.233,2.236,2.236,0,0,0,1.82.477,2.084,2.084,0,0,0,.795-.657,33.7,33.7,0,0,1,5.495-4.825,12.055,12.055,0,0,1,4.118-1.88A22.961,22.961,0,0,1,147.612,23a9.644,9.644,0,0,1,2.724,1.344A45.226,45.226,0,0,1,165.09,40.76a1.866,1.866,0,0,0,.557.736,1.825,1.825,0,0,0,.913.217c3.182.187,6.628,1.019,9.764,1.019a6.742,6.742,0,0,0,.822.158,10.648,10.648,0,0,1,4.713,1.558c1.428.795,3.647,1.836,5.228,1.112a6.782,6.782,0,0,1,2.641-.2,5.975,5.975,0,0,1,.368,2.05,7.923,7.923,0,0,1-.293,1.048,10.848,10.848,0,0,1-1.439,1.077C182.1,52.863,183,59.206,183.5,65.107c.1,1.212.115,2.431.159,3.648.035.964.12,1.931.07,2.891a45.512,45.512,0,0,1-.422,4.918c-.857,5.284-5.9,10.532-9.961,13.663-4.689,3.617-11.873,5.426-16.9,1.34a.662.662,0,0,0-.592-.019,47.743,47.743,0,0,0-4.242,2.38A123.156,123.156,0,0,0,109.9,141.995a131.381,131.381,0,0,0-6.646,17.047c-.584,1.828.314,3.3-.034,5.068a55.164,55.164,0,0,0-.97,10.676c0,1.664.41,3.336.336,4.991a13.757,13.757,0,0,1-.889,4.293,3.08,3.08,0,0,1-3.6,2.231,1.765,1.765,0,0,1-1.149-.756,32.65,32.65,0,0,0-6.134-6.926c-1.459-1.3-2.818-2.722-4.159-4.148-1.321-1.4-2.552-2.891-3.842-4.322-1.191-1.321-3.508-5.261-5.734-3.816-1,.652-1.507,1.826-2.233,2.777a5.1,5.1,0,0,1-2.982,1.982c-1.909.373-3.578-.987-4.833-2.247-1.067-1.071-2.594-2.11-3.053-3.6-.452-1.47-.126-3.567-.235-5.1-.147-2.074.119-4.178.061-6.259-.449-16.2-8.512-28.669-17.213-41.615-9.976-14.841-25.5-23.061-37.1-36.3-1.793-2.048-3.683-4.688-3.931-7.491-.251-2.849,2.01-5.739.353-8.493-.5-.838-1.263-1.493-1.827-2.293A18.649,18.649,0,0,1,2.36,53.74,21.733,21.733,0,0,1,.567,48.911c-.956-6.634,8.649-7.2,12.8-5.571,2.754,1.083,5.548,2.5,8.5,2.248,3.575-.3,6.9-2.441,10.432-3.042m65.389,78.331,19.567-36.457a4.876,4.876,0,0,1,1.823-2.2,1.686,1.686,0,0,1,2.4.789,2.432,2.432,0,0,1-.384,1.633C109.223,108,91.92,129.621,88.465,155.589A5.719,5.719,0,0,1,87.6,158.4a1.874,1.874,0,0,1-2.6.483c-.677-.625-.542-1.709-.353-2.611l2.511-11.994q-2.786,7.338-5.224,14.8a5.947,5.947,0,0,0-.431,2.846,5.8,5.8,0,0,0,1.4,2.515,88.306,88.306,0,0,0,10.865,11.2c4.5-34.761,26.476-65.186,53-88.1,1.895-1.637,3.933-3.438,4.41-5.9a8.84,8.84,0,0,0-.57-4.545c-1.3-3.731-3.775-7.206-7.332-8.928s-8.256-1.323-10.973,1.548c-2.364,2.5-3.882,7.028-6.2,8.085-2.656,1.211-7.649-.871-11.607-1.288-5.941-.626-12.091,3.9-17.578,1.543C89.835,75.019,89.6,62.827,82.049,61.3c.009,4.621-.689,10.336-5.009,11.977,7.943,16.868,7.223,36.357,6.342,54.98-.052,1.106-.381,2.528-1.482,2.649-1.252.138-1.8-1.53-1.862-2.788-.573-11.2.96-22.5-.71-33.588-1.441-9.567-5.216-18.6-8.958-27.527a5.594,5.594,0,0,0-1-1.753c-1.8-1.886-5.043-.437-6.746,1.534a14.861,14.861,0,0,0-3.44,7.537c-.778,5.369.968,12.05-3.322,15.37a8.364,8.364,0,0,1-7.321,1.029,24.733,24.733,0,0,1-6.768-3.537l5.859,8.459c6.175,8.917,12.4,17.917,16.575,27.926,4.057,9.722,6.082,20.149,8.082,30.492.169.871.281,1.922-.388,2.506-1.33,1.162-2.973-1.061-3.328-2.791-2.608-12.7-4.416-25.878-10.718-37.207C51.578,105.282,41.125,96.414,36.6,84.313a8.671,8.671,0,0,0-2.158-3.856,7.753,7.753,0,0,0-3.22-1.319L12.955,74.727c6.846,6.94,14.636,12.873,21.8,19.489,9.62,8.889,18.149,19.1,24.117,30.763a78.625,78.625,0,0,1,7.375,21.3A67.31,67.31,0,0,1,67.4,157.658c.022,1.455-.566,3.91-.072,5.249.546,1.479,2.979,3.208,4.069,4.363,3.161-1.442,4.755-4.935,6.047-8.161A432.892,432.892,0,0,0,99.09,87.733c.295-1.4,1.187-3.2,2.561-2.8,1.292.372,1.227,2.209.883,3.509L90.308,134.623Zm-5.9-60.087c-.073-2.167-1.462-4.074-1.971-6.146C86.762,42.206,82.4,29.927,75.967,18.827a23.966,23.966,0,0,0-9.256-8.6C65,9.237,63.2,8.41,61.417,7.553c-4.581-2.2-9.618,2.684-12.514,5.684-3.118,3.229-7.164,5.332-10.21,8.58-7.737,8.251-2.151,21.84,2.7,30.042a7.311,7.311,0,0,1,1.141,2.647c.13.959-1.11,2.476-1.11,2.476s-2.1-.062-2.734-.882c-1.449-1.878-2.519-5.14-3.495-7.322a4.877,4.877,0,0,0-3.12-2.847,4.6,4.6,0,0,0-4.021.271,13.641,13.641,0,0,1-10.78,1.222,48.8,48.8,0,0,1-6.695-2.491A5.753,5.753,0,0,0,3.9,46.09a1.788,1.788,0,0,0-.489,1.219,8.972,8.972,0,0,0,1.8,4.385,1.87,1.87,0,0,0,.6.572,1.57,1.57,0,0,1,.936,1.576c-.067,2.932,2.856,3.7,2.9,6.435.022,1.238-.358,2.45-.423,3.685-.2,3.741,2.572,7.119,5.9,8.845s8.139.886,11.85,1.394a26.316,26.316,0,0,1,10.837,3.9c4.587,3.1,6.022,7.856,11.6,9.454.554.159,1.14.211,1.69.38a3.34,3.34,0,0,0,2.421-.357c.416-.185.537-.547.528-1.059-.032-1.922-.018-3.848.076-5.767.156-3.2,1.722-6.457,2.054-9.718a6.767,6.767,0,0,1,.4-2.027,22.364,22.364,0,0,1,4.791-6.346c1.939-1.578,4.174-1.46,6.583-2.171a9.593,9.593,0,0,1,4.245-.422A4.868,4.868,0,0,1,75.7,62.328c.795,1.423.651,3.28,1.648,4.57q.218-2.425.436-4.851a8.68,8.68,0,0,1,1.079-4.123c1.364-2.037,4.02-1.582,6-.869A22.37,22.37,0,0,1,88.6,58.8c.97.568,2.169,1.815,3.187,1.988m70.148-19.077a3.129,3.129,0,0,0-.219-.753,44.152,44.152,0,0,0-2.978-4.658c-1.753-2.166-3.668-4.207-5.613-6.206-.816-.838-1.951-1.358-2.819-2.155a11.788,11.788,0,0,0-5.16-2.831c-4.8-1.2-10.877-.733-13.951,3.491a107,107,0,0,0-11.068,18.834c-1.157,2.566-2.14,5.212-3.226,7.811-.831,1.991-1.728,3.954-2.548,5.949a7,7,0,0,0-.744,2.5,7.512,7.512,0,0,1-.538,2.88c-.722,1.813-1.384,3.651-2.055,5.484-.136.371-.206.766-.323,1.217.356.016.606.049.854.036,1.613-.087,3.224-.229,4.838-.266,2.561-.058,7.086,1.151,8.5-1.651a31.655,31.655,0,0,0,1.046-3.169c1.384-3.669,5.42-5.573,9.221-6.537a14.178,14.178,0,0,1,7.41-.292,13.869,13.869,0,0,1,4.84,2.844c4.836,4.022,9.648,10.443,9.169,16.953a3.511,3.511,0,0,0,1.349,2.808c3.075,2.63,7.643,2.985,11.406,2.05,3.856-.959,8.1-4.437,9.408-8.3.227-.673.345-1.378.547-2.058.154-.52.357-1.024.513-1.544.952-3.16.248-6.732,0-9.966-.121-1.6-.369-3.18-.482-4.775a12.375,12.375,0,0,1,4.034-10,45.9,45.9,0,0,0-14.664-2.255c-4.106-.062-8.384-.671-12.324.83-2.023.77-4.271,3.8-6.541,2.761a1.379,1.379,0,0,1-.441-2.378c1.017-.941,2.063-1.849,3.1-2.769a13.661,13.661,0,0,1,5.8-3.248c1.155-.284,2.35-.407,3.663-.625M87.388,29.089c.864,1.62,1.819,3.146,2.514,4.782.968,2.279,1.786,4.625,2.581,6.972.559,1.65.963,3.353,1.456,5.026a9.33,9.33,0,0,1,.569,1.651c.235,2.624.41,5.254.576,7.883.2,3.16.279,6.33.586,9.478a16.125,16.125,0,0,0,1.1,4.406,32.017,32.017,0,0,0,2.466,4.636,2.431,2.431,0,0,0,1.463,1.019,1.317,1.317,0,0,0,1.32-.944c.64-1.494,1.328-2.968,2.033-4.433,1.147-2.384,2.415-4.714,3.468-7.138,1.814-4.175,3.433-8.435,5.266-12.6,1.135-2.579,2.452-5.084,3.8-7.561a42.657,42.657,0,0,1,4.753-7.617c1.116-1.3,1.051-1.374-.448-2.193a18.435,18.435,0,0,0-7.156-2.507,24.2,24.2,0,0,0-5.848.024,40.116,40.116,0,0,0-5.187,1.72,17.153,17.153,0,0,1-3.7.808c-3,.217-5.518-1.174-7.942-2.711a4.619,4.619,0,0,0-3.677-.7m65.286,57.375a16.4,16.4,0,0,1-1.512,1.73c-.8.69-1.764,1.2-2.527,1.928-1.376,1.309-2.618,2.755-3.983,4.076-1.2,1.165-2.521,2.215-3.743,3.363a13.75,13.75,0,0,0-1.247,1.547l.153.141a82.46,82.46,0,0,1,14.811-9.481l-1.953-3.3M98.468,180.746l.314-.055c-.074-.94-.137-1.881-.224-2.819s-.277-1.86-.273-2.789c0-.958.207-1.914.285-2.873.075-.908.1-1.82.149-2.731l-.195-.014c-.1.442-.217.88-.291,1.326q-.646,3.893-1.263,7.792a.884.884,0,0,0,.17.611c.419.535.881,1.038,1.327,1.552" transform="translate(-0.289 -0.289)" fill="#dbb34f"/>
        <path id="Path_88" data-name="Path 88" d="M343.3,204.222l1.953,3.3a82.474,82.474,0,0,0-14.811,9.481l-.153-.14a13.756,13.756,0,0,1,1.246-1.547c1.223-1.148,2.539-2.2,3.744-3.363,1.365-1.32,2.607-2.767,3.983-4.076.763-.725,1.725-1.238,2.527-1.928a16.464,16.464,0,0,0,1.511-1.73" transform="translate(-190.918 -118.046)" fill="#dd9300"/>
        <path id="Path_89" data-name="Path 89" d="M159.82,198.486c.236,2.658.482,5.316.7,7.975.226,2.712.4,5.429.649,8.139.271,2.985.6,5.964.9,8.945q.513,5.05,1.029,10.1c.033.329.04.662.089.988a2.643,2.643,0,0,1-2.2,2.767c-.475.046-1.218-.728-1.239-1.241-.1-2.406-.178-4.815-.332-7.218-.163-2.535-.39-5.067-.618-7.6-.106-1.179-.307-2.348-.419-3.526-.2-2.049-.356-4.1-.53-6.153-.262-3.092-.533-6.184-.784-9.277-.178-2.19-.335-4.383-.489-6.575-.08-1.135-.1-2.275-.2-3.408-.18-2.044-.362-4.09-.611-6.127-.288-2.366-.54-4.745-1-7.079-.643-3.234-1.406-6.448-2.234-9.64-1.1-4.218-2.316-8.4-3.451-12.611a15.6,15.6,0,0,1-.4-2.409c-.093-.872.173-3.369,1.08-3.484,1.159-.147,1.982-1.19,2.52,2.969.764,3.393,1.511,6.791,2.3,10.179.873,3.757,1.837,7.493,2.658,11.262.5,2.284.9,4.6,1.167,6.919.622,5.353,1.137,10.717,1.7,16.077l-.276.027" transform="translate(-85.93 -87.185)" fill="#dbb34f"/>
        <path id="Path_90" data-name="Path 90" d="M233.5,229.214a170.886,170.886,0,0,1,8.9-15.35c.736-1.123,1.429-2.283,2.26-3.333,1.612-2.036,2.839-4.333,4.461-6.367,1-1.257,1.717-2.742,2.6-4.1.951-1.457,1.974-2.868,2.922-4.326,1.115-1.716,2.15-3.484,3.281-5.189,1.278-1.927,5.092-9.023,8.142-4.868.767,1.048-10.229,13.428-11.365,14.908-7.533,9.819-13.752,20.982-19.335,32q-2.413,4.765-4.627,9.628a47.9,47.9,0,0,0-3.966,11.4,6.079,6.079,0,0,1-1.221,3.337c-.843.861-2.631.827-2.976-.327a2.528,2.528,0,0,1,.068-1.287c2.126-9.1,6.592-17.866,10.852-26.128" transform="translate(-128.626 -106.588)" fill="#dbb34f"/>
        <line id="Line_196" data-name="Line 196" x1="0.57" y2="1.091" transform="translate(91.047 156.997)" fill="#7c1818"/>
        <g id="Group_439" data-name="Group 439" transform="translate(49.264 79.859)" style="isolation: isolate">
          <g id="Group_438" data-name="Group 438">
            <g id="Group_437" data-name="Group 437" clip-path="url(#clip-path-2)">
              <path id="Path_91" data-name="Path 91" d="M251.451,221.566a.761.761,0,0,1-.774-.685,4.546,4.546,0,0,1,.2-1.053c.212-.73,1.085-2.239,1.07-2.9a64.135,64.135,0,0,0-.719-8.027c-.235-1.577-.388-3.192-.706-4.754s-1.23-3.034-1.605-4.6a3.11,3.11,0,0,1-.017-1.7,4.131,4.131,0,0,1,2.051-2.051,14.166,14.166,0,0,1,15.783,1.656,5.482,5.482,0,0,1,2.006,4.441,11.412,11.412,0,0,1-2.474,6.6,42.524,42.524,0,0,1-7.852,8.111q-1.919,1.61-3.81,3.24c-.8.69-1.837,1.841-3.15,1.723m4.031-6.8c-.009.4-.031.794-.07,1.189a7.155,7.155,0,0,1,1.339-1.661c1.709-1.766,3.478-3.493,5.142-5.286,2.082-2.245,4.107-5.76,2.715-8.55a8.6,8.6,0,0,0-8.358-4.238c-1.85.28-3.034,1.6-2.8,3.1.433,2.739.865,5.477,1.276,8.217a42.726,42.726,0,0,1,.754,7.224" transform="translate(-193.069 -192.063)" fill="#2b465e"/>
              <path id="Path_92" data-name="Path 92" d="M128.632,210.633c.244-1.014.545-2.02.721-3.042.92-5.34,4.049-9.916,7.4-14.414.791-1.062,1.656-2.088,2.53-3.107a2.005,2.005,0,0,1,1-.725,7.685,7.685,0,0,1,1.385-.092.88.88,0,0,1,.926.638,1.454,1.454,0,0,1-.093,1.025c-1.189,1.727-2.68,3.32-3.816,5.067a58.7,58.7,0,0,0-4.9,8.341c-1.21,2.8-1.356,5.917-2.081,8.839a17.49,17.49,0,0,0-.416,3.394,2.143,2.143,0,0,1-2.3,1.955c-1.682.035-2.276-.838-2.469-2.711a29.494,29.494,0,0,0-7.25-16.47,17.679,17.679,0,0,1-2.408-3.557,1.032,1.032,0,0,1,.1-1.1,1.88,1.88,0,0,1,1.448-.24,5.322,5.322,0,0,1,2,1.441c3.288,4.543,6.213,9.222,7.747,14.376a2.017,2.017,0,0,0,.192.358l.3.021" transform="translate(-116.747 -189.253)" fill="#2b465e"/>
              <path id="Path_93" data-name="Path 93" d="M217.58,220.628c.075.2-.106.4-.391.443-.668.092-1.326.1-2,.147-1.89.14-3.84.338-5.742.337-2.137,0-4.245-.263-6.394-.176-1.019.041-2,.072-2.616-.592a1.862,1.862,0,0,1-.482-1.949,2.39,2.39,0,0,1,.315-.432,14.6,14.6,0,0,0,2.681-5.575,65.838,65.838,0,0,0,3.479-15.685c.051-.792-.063-2.888,1.249-3.265a6.07,6.07,0,0,1,2.784-.063,1.094,1.094,0,0,1,.793,1.528c-1.087,4.013-2.12,8.034-3.174,12.053-.529,2.017-1.035,4.039-1.6,6.05-.437,1.552-.9,3.1-1.459,4.632-.256.693-.09,1.068.879,1.1,2.318.068,4.637.1,6.956.138.94.015,1.881-.007,2.821.012a1.956,1.956,0,0,1,1.907,1.3" transform="translate(-164.771 -191.816)" fill="#2b465e"/>
              <path id="Path_94" data-name="Path 94" d="M188.68,192.325a8.528,8.528,0,0,1-.311,2.641c-.145.865-.3,1.728-.522,2.584-1.247,4.894-2.562,9.777-3.893,14.655-.555,2.033-1.214,4.047-1.835,6.068a1.806,1.806,0,0,1-1.751,1.339c-1.427.142-1.928-.206-1.617-1.313.678-2.42,1.487-4.817,2.1-7.248,1.337-5.286,3.286-10.474,3.806-15.893.1-1-.092-2.019,0-3.019.047-.515.265-1.308.678-1.444a4.441,4.441,0,0,1,2.469,0c.576.179.751,1.025.838,1.422q.023.106.038.21" transform="translate(-152.536 -189.985)" fill="#2b465e"/>
              <text id="_MAD" data-name=" MAD" transform="translate(6.108 54.14)" fill="#2b465e" font-size="17" font-family="Helvetica-Light, Helvetica" font-weight="300"><tspan x="0" y="0" xml:space="preserve"> MAD</tspan></text>
            </g>
          </g>
        </g>
      </g>
    </g>
    <path id="Path_488" data-name="Path 488" d="M20.932.75A20.006,20.006,0,0,0,.75,20.576V47.011A20.006,20.006,0,0,0,20.932,66.837H47.841A20.006,20.006,0,0,0,68.023,47.011V20.576A20.006,20.006,0,0,0,47.841.75ZM5.235,20.576a15.561,15.561,0,0,1,15.7-15.42H47.841a15.561,15.561,0,0,1,15.7,15.42V47.011a15.561,15.561,0,0,1-15.7,15.42H20.932a15.561,15.561,0,0,1-15.7-15.42ZM56.811,16.9a3.738,3.738,0,1,1-3.737-3.671A3.7,3.7,0,0,1,56.811,16.9ZM34.387,21.31A12.485,12.485,0,1,0,47.094,33.793,12.6,12.6,0,0,0,34.387,21.31ZM17.195,33.793A17.195,17.195,0,1,1,34.387,50.682,17.042,17.042,0,0,1,17.195,33.793Z" transform="translate(319.453 1490.662)" fill="#f0efe8" fill-rule="evenodd"/>
  </g>
</svg>
