<?xml version="1.0" encoding="UTF-8"?><svg id="b" xmlns="http://www.w3.org/2000/svg" width="168.86" height="165.51" viewBox="0 0 168.86 165.51"><defs><style>.d{stroke:#eab400;stroke-miterlimit:10;}.d,.e{fill:#dc9200;}.f{font-family:Helvetica, Helvetica;}.g{isolation:isolate;}.h{font-family:Helvetica-Light, Helvetica;font-weight:300;}.i{fill:#7c1818;}.i,.j,.e,.k{stroke-width:0px;}.j,.l{fill:#2b465e;}.k{fill:#dab24f;}.l{font-size:17.93px;}</style></defs><g id="c"><path class="e" d="m27.13,83.27c.04-.68-.09-1.46,1.13-1.58-.19.53-.38,1.05-.56,1.58h-.56Z"/><path class="e" d="m138.03,81.11l-3.76,2.11-36.92,42.55-5.88,15.09-.03,4.49-.86,9.45.3,4.42-.79,3.8-3.18,1.98-1.02-.67-5.43-6.13-3.68-3.67-5.73-8.76-2.75,1.55-1.98,2.46-2.64,1.75-4.28-1.99-2.7-3.19-.21-4.52.05-5.54-15.24-36.84s-22.58-20.42-32.84-32.14c-1.59-1.81-3.48-6.63-3.48-6.63l1.93-6.89s-2.73-1.95-3.23-2.66c-.73-1.04-1.06-2.31-1.54-3.49-.57-1.42-2.18-4.22-1.33-5.48,3.38-4.99,7.77-4.05,11.44-2.61,2.44.96,5.83,1.39,5.83,1.39,0,0,7.43-2.67,10.55-3.21-.6-2.68-.69-8.35-.69-8.35l1.87-8.89,12.93-14.24,15.45-4.71,5.14,4.39s8.93,10.82,12.52,17.02c1.07-.07,3.42-.24,3.42-.24l3.4,1.31,3.96,3.58,12.44-2.57,9.44,1.44,1.61.42.7-.58,4.86-4.27,3.65-1.66,11.39.04,2.41,1.19s9.99,8.68,13.06,14.53"/><path class="e" d="m86.54,107.07l17.32-32.28,1.61-1.95,2.12.7-25.36,50.89-3.86,13.36-.77,2.49-2.3.43-.31-2.31s1.48-7.08,2.22-10.62c-1.64,4.33-4.63,13.1-4.63,13.1l-.38,2.52,1.24,2.23s7.5,6.43,10.99,9.44c3.99-30.77,45.55-77.52,45.55-77.52l3.9-5.22-.5-4.02-6.49-7.9-9.71,1.37-5.49,7.16-10.28-1.14-15.56,1.37s-6.47-13.49-13.16-14.84c0,2.31-.2,6.05-.2,6.05,0,0-2.57,3.28-4.24,4.56,7.03,14.93,5.61,48.67,5.61,48.67l-1.31,2.35-1.65-2.47-.63-29.74-7.93-24.37-.89-1.55-5.97,1.36-3.05,6.67-2.94,13.61-6.48.91s-4.11-1.88-5.99-3.13c1.73,2.5,5.19,7.49,5.19,7.49l14.67,24.72,7.16,27-.34,2.22-2.95-2.47-9.49-32.94-18.81-28.56-1.91-3.41-2.85-1.17s-10.78-2.6-16.18-3.91c6.06,6.14,19.3,17.25,19.3,17.25l21.35,27.24,6.53,18.86,1.03,10.08-.06,4.65s2.64,2.84,3.6,3.86c2.8-1.28,5.35-7.22,5.35-7.22l19.16-63.19,2.27-2.48.78,3.11s-7.99,29.93-11.6,43.56c2.18-4.06,7.31-14.84,7.31-14.84Z"/><path class="e" d="m81.32,53.88c-.06-1.92-4.59-20.59-4.59-20.59l-9.42-16.56-8.19-7.62-3.27-2.72-11.4,3.59-10.14,9.39-2.28,13.79,5.69,15.15-.98,2.19-2.42-.78-3.09-6.48-2.76-2.52-3.56.24-7.52,3.19s-6.01-3.48-7.95-4.31c-2.11-.91-4.36-.61-5.91,1.03-.25.27-.43,1.08-.43,1.08,0,0,.76,2.71,1.6,3.88.14.2.53.51.53.51l.83,1.4,2.57,5.7s-.32,2.17-.37,3.26c-.17,3.31,5.22,7.83,5.22,7.83l9.61,2.36,9.42,2.9,11.32,7.8,1.5.34,2.14-.32.47-.94.07-5.11,1.82-8.6.36-1.79,4.32-4.38,5.75-3.16,3.76-.37,3.09,2s.72,4.11,1.23,5.25c.13-1.43.61-5.5.61-5.5l.96-3.65,5.31-.77,3.31,1.55s1.92,1.61,2.82,1.76Z"/><polyline class="e" points="138.48 42.53 132.69 44.97 132.3 42.87 135.04 40.42 140.18 37.54"/><path class="e" d="m140.59,32.2l-4.97-5.49-2.5-1.91-4.66-1.33-10.78,1.06-11.28,17.53s-2.85,6.91-2.86,6.92c-1.16,2.81-2.17,5.8-3.39,8.63-.58,1.34-1.21,2.69-1.97,3.94s-1.7,2.39-2.12,3.79c0,0,2.53-.36,2.75-.37l4.28-.24,7.52-1.46.93-2.81,8.16-5.79,6.56-.26,4.28,2.52,8.12,15.01"/><path class="e" d="m77.42,25.81c.76,1.43,2.23,4.23,2.23,4.23,0,0,1.58,4.09,2.29,6.17.49,1.46.85,2.97,1.29,4.45.15.5.46.96.5,1.46.21,2.32.36,4.65.51,6.98.18,2.8.25,5.6.52,8.39.13,1.32.98,3.9.98,3.9,0,0,1.38,2.78,2.18,4.1.26.42.82.81,1.29.9.47.09.93-.28,1.17-.84.57-1.32,1.18-2.63,1.8-3.92,1.02-2.11,2.14-4.17,3.07-6.32,1.61-3.7,3.04-7.47,4.66-11.16,1-2.28,2.17-4.5,3.36-6.69,1.27-2.33,2.46-4.7,4.21-6.74.99-1.15.93-1.22-.4-1.94-1.99-1.09-4.06-2.02-6.33-2.22-1.72-.15-3.49-.24-5.18.02-1.57.25-3.05,1.05-4.59,1.52-1.07.32-2.17.63-3.27.71-2.65.19-4.89-1.04-7.03-2.4-1.02-.65-2.07-.89-3.26-.62Z"/><path class="e" d="m135.22,76.61c-.52.6-.87,1.13-1.34,1.53-.71.61-1.56,1.06-2.24,1.71-1.22,1.16-2.32,2.44-3.53,3.61-1.07,1.03-2.23,1.96-3.31,2.98-.42.4-.74.91-1.1,1.37.05.04.09.08.14.12,4.06-3.26,8.42-6.06,13.11-8.39-.58-.98-1.09-1.85-1.73-2.92Z"/><path class="e" d="m87.23,160.08c.09-.02.18-.03.28-.05-.07-.83-.12-1.66-.2-2.5-.08-.82-.25-1.65-.24-2.47,0-.85.18-1.69.25-2.54.07-.8.09-1.61.13-2.42-.06,0-.12,0-.17-.01-.09.39-.19.78-.26,1.17-.38,2.3-.76,4.6-1.12,6.9-.03.17.04.4.15.54.37.47.78.92,1.17,1.37Z"/><path class="e" d="m135.22,76.61c.64,1.07,1.15,1.94,1.73,2.92-4.69,2.34-9.05,5.14-13.11,8.39-.05-.04-.09-.08-.14-.12.36-.46.68-.97,1.1-1.37,1.08-1.02,2.25-1.95,3.31-2.98,1.21-1.17,2.31-2.45,3.53-3.61.68-.64,1.53-1.1,2.24-1.71.47-.4.82-.93,1.34-1.53Z"/><path class="e" d="m87.23,160.08c-.39-.46-.8-.9-1.17-1.37-.11-.14-.18-.37-.15-.54.36-2.3.74-4.6,1.12-6.9.07-.39.17-.78.26-1.17.06,0,.12,0,.17.01-.04.81-.07,1.61-.13,2.42-.07.85-.25,1.7-.25,2.54,0,.82.17,1.65.24,2.47.08.83.13,1.66.2,2.5-.09.02-.18.03-.28.05Z"/><path class="e" d="m65.73,98.85c.21,2.35.43,4.71.62,7.06.2,2.4.57,7.21.57,7.21l.8,7.92s.61,5.96.91,8.94c.03.29.04.59.08.88.16,1.08-.84,2.34-1.95,2.45-.42.04-1.08-.64-1.1-1.1-.09-2.13-.16-4.26-.29-6.39-.14-2.24-.35-4.49-.55-6.73-.09-1.04-.27-2.08-.37-3.12-.17-1.81-.32-3.63-.47-5.45-.23-2.74-.47-5.48-.69-8.21-.16-1.94-.43-5.82-.43-5.82l-.18-3.02s-.32-3.62-.54-5.42c-.26-2.09-.48-4.2-.89-6.27-.57-2.86-1.24-5.71-1.98-8.53-.97-3.73-2.05-7.44-3.06-11.16-.19-.69-.72-2.89-.72-2.89l1.63-.71s2.18-1.38,2.35-.62c.68,3,.92,7.65,1.61,10.64.77,3.33,1.63,6.63,2.35,9.97.44,2.02.79,4.07,1.03,6.13.55,4.74,1.01,9.49,1.5,14.23-.08,0-.16.02-.24.02Z"/><polygon class="e" points="93.16 108.88 101.05 95.29 103.05 92.34 107 86.7 109.3 83.07 111.89 79.24 114.79 74.65 121.12 72.41 111.94 83.54 94.82 111.87 90.72 120.39 87.21 130.48 86.13 133.44 83.5 133.15 83.56 132.01 93.16 108.88"/><path class="d" d="m28.65,37.72c-.6-2.68-.8-5.58-.69-8.35.12-3.04.75-6.06,1.87-8.89,2.45-6.17,7.95-10.14,12.93-14.24,4.25-3.49,9.76-7.77,15.45-4.71,2,1.07,3.61,2.73,5.14,4.39,4.87,5.29,8.93,10.82,12.52,17.02,1.07-.07,2.24-.17,3.42-.24,1.33-.08,2.34.64,3.4,1.31,2.18,1.39,3.9,2.46,6.63,2.05,1.98-.3,3.85-1.11,5.8-1.59,4.5-1.11,9.42-.39,13.41,1.98.5.29,1.07.62,1.61.42.29-.11.5-.35.7-.58,1.54-1.78,3.02-2.85,4.86-4.27,1.09-.84,2.35-1.28,3.65-1.66,3.81-1.12,7.61-1.01,11.39.04.85.24,1.67.69,2.41,1.19,5.47,3.69,9.99,8.68,13.06,14.53.13.24.26.5.49.65.23.15.53.18.81.19,2.82.17,5.87.9,8.64.9.24.04.48.13.73.14,1.52.07,2.86.65,4.17,1.38,1.26.7,3.23,1.63,4.63.99.76-.35,2.34-.17,2.34-.17,0,0,.42,1.18.33,1.82-.05.32-.26.93-.26.93,0,0-.8.7-1.27.95-5.54,2.94-4.75,8.56-4.31,13.78.09,1.07.1,2.15.14,3.23.03.85.11,1.71.06,2.56-.08,1.45-.14,2.92-.37,4.35-.76,4.68-5.22,9.32-8.82,12.1-4.15,3.2-10.51,4.8-14.96,1.19-.11-.09-.39-.09-.52-.02-1.26.68-2.57,1.3-3.76,2.11-15.71,10.68-28.68,25.41-36.92,42.55-2.35,4.88-4.24,9.94-5.88,15.09-.52,1.62.28,2.92-.03,4.49-.61,3.12-.86,6.28-.86,9.45,0,1.47.36,2.95.3,4.42-.06,1.28-.32,2.61-.79,3.8-.57,1.46-1.45,2.13-3.18,1.98-.36-.03-.82-.35-1.02-.67-1.47-2.35-3.37-4.3-5.43-6.13-1.29-1.15-2.49-2.41-3.68-3.67-1.17-1.24-2.26-2.56-3.4-3.83-1.05-1.17-3.11-4.66-5.08-3.38-.89.58-1.33,1.62-1.98,2.46-.66.86-1.58,1.55-2.64,1.75-1.69.33-3.17-.87-4.28-1.99-.94-.95-2.3-1.87-2.7-3.19-.4-1.3-.11-3.16-.21-4.52-.13-1.84.11-3.7.05-5.54-.4-14.35-7.54-25.38-15.24-36.84-8.83-13.14-22.58-20.42-32.84-32.14-1.59-1.81-3.26-4.15-3.48-6.63s1.78-5.08.31-7.52c-.45-.74-1.12-1.32-1.62-2.03-.73-1.04-1.06-2.31-1.54-3.49-.57-1.42-1.37-2.77-1.59-4.28-.85-5.87,7.66-6.38,11.33-4.93,2.44.96,4.91,2.21,7.52,1.99,3.16-.27,6.11-2.16,9.24-2.69Zm57.89,69.35c5.77-10.76,11.55-21.52,17.32-32.28.4-.75.85-1.55,1.61-1.95s1.91-.13,2.12.7c.12.49-.11.99-.34,1.45-10.5,20.68-25.82,39.82-28.88,62.81-.12.87-.23,1.79-.77,2.49s-1.66,1.02-2.3.43c-.6-.55-.48-1.51-.31-2.31.74-3.54,1.48-7.08,2.22-10.62-1.64,4.33-3.19,8.7-4.63,13.1-.27.82-.53,1.67-.38,2.52.15.85.7,1.56,1.24,2.23,2.91,3.58,6.13,6.9,9.62,9.92,3.99-30.77,23.44-57.71,46.92-78,1.68-1.45,3.48-3.04,3.9-5.22.26-1.34-.05-2.73-.5-4.02-1.15-3.3-3.34-6.38-6.49-7.9-3.15-1.52-7.31-1.17-9.71,1.37-2.09,2.21-3.44,6.22-5.49,7.16-2.35,1.07-6.77-.77-10.28-1.14-5.26-.55-10.7,3.46-15.56,1.37-6.26-2.7-6.47-13.49-13.16-14.84,0,4.09-.61,9.15-4.43,10.6,7.03,14.93,6.39,32.19,5.61,48.67-.05.98-.34,2.24-1.31,2.35-1.11.12-1.59-1.35-1.65-2.47-.51-9.91.85-19.92-.63-29.74-1.28-8.47-4.62-16.47-7.93-24.37-.23-.55-.47-1.12-.89-1.55-1.59-1.67-4.46-.39-5.97,1.36-1.62,1.88-2.69,4.22-3.05,6.67-.69,4.75.86,10.67-2.94,13.61-1.79,1.39-4.3,1.52-6.48.91s-4.11-1.88-5.99-3.13c1.73,2.5,3.46,4.99,5.19,7.49,5.47,7.89,10.98,15.86,14.67,24.72,3.59,8.61,5.38,17.84,7.16,27,.15.77.25,1.7-.34,2.22-1.18,1.03-2.63-.94-2.95-2.47-2.31-11.24-3.91-22.91-9.49-32.94-5.56-9.99-14.81-17.85-18.81-28.56-.46-1.24-.89-2.57-1.91-3.41-.8-.66-1.84-.92-2.85-1.17-5.39-1.3-10.78-2.6-16.18-3.91,6.06,6.14,12.96,11.4,19.3,17.25,8.52,7.87,16.07,16.91,21.35,27.24,3.04,5.94,5.3,12.29,6.53,18.86.62,3.32.98,6.7,1.03,10.08.02,1.29-.5,3.46-.06,4.65.48,1.31,2.64,2.84,3.6,3.86,2.8-1.28,4.21-4.37,5.35-7.22,8.15-20.35,14.62-41.66,19.16-63.19.26-1.24,1.05-2.83,2.27-2.48,1.14.33,1.09,1.96.78,3.11-3.61,13.63-7.22,27.26-10.82,40.89,2.18-4.06,4.35-8.11,6.53-12.17Zm-5.22-53.2c-.06-1.92-1.29-3.61-1.74-5.44-2.7-11.01-6.56-21.88-12.26-31.71-1.94-3.34-4.82-5.67-8.19-7.62-1.51-.87-3.11-1.6-4.69-2.36-4.06-1.95-8.51,2.38-11.08,5.03-2.76,2.86-6.34,4.72-9.04,7.6-6.85,7.31-1.9,19.34,2.39,26.6.44.74.89,1.49,1.01,2.34s-.98,2.19-.98,2.19c0,0-1.86-.05-2.42-.78-1.28-1.66-2.23-4.55-3.09-6.48-.58-1.31-1.45-2.08-2.76-2.52-1.24-.41-2.39-.45-3.56.24-3.01,1.77-6.27,1.95-9.54,1.08-2.03-.54-3.99-1.37-5.93-2.21-2.11-.91-4.36-.61-5.91,1.03-.25.27-.47.73-.43,1.08.13,1.44.76,2.71,1.6,3.88.14.2.32.4.53.51.57.3.84.72.83,1.4-.06,2.6,2.53,3.28,2.57,5.7.02,1.1-.32,2.17-.37,3.26-.17,3.31,2.28,6.3,5.22,7.83,2.94,1.53,6.33,1.91,9.61,2.36s6.67,1.04,9.42,2.9c4.06,2.74,6.38,6.38,11.32,7.8.49.14,1.01.19,1.5.34.78.24,1.47-.02,2.14-.32.37-.16.48-.48.47-.94-.03-1.7-.02-3.41.07-5.11.14-2.83,1.52-5.72,1.82-8.6.06-.61.11-1.23.36-1.79.71-1.63,2.95-3.27,4.32-4.38,1.72-1.4,3.62-2.53,5.75-3.16,1.22-.36,2.51-.58,3.76-.37s2.47.89,3.09,2c.7,1.26.58,2.9,1.46,4.05.13-1.43.26-2.86.39-4.3.11-1.27.25-2.59.96-3.65,1.21-1.8,3.56-1.4,5.31-.77,1.15.41,2.26.93,3.31,1.55.86.5,1.92,1.61,2.82,1.76Zm62.1-16.89c-.07-.26-.09-.49-.19-.67-.86-1.39-1.62-2.86-2.64-4.12-1.55-1.92-3.25-3.73-4.97-5.49-.72-.74-1.73-1.2-2.5-1.91-1.33-1.22-2.85-2.08-4.57-2.51-4.25-1.06-9.63-.65-12.35,3.09-3.78,5.19-7.16,10.81-9.8,16.67-1.02,2.27-1.89,4.61-2.86,6.92-.74,1.76-1.53,3.5-2.26,5.27-.29.71-.66,1.47-.66,2.21,0,.91-.15,1.72-.48,2.55-.64,1.61-1.23,3.23-1.82,4.85-.12.33-.18.68-.29,1.08.31.01.54.04.76.03,1.43-.08,2.85-.2,4.28-.24,2.27-.05,6.27,1.02,7.52-1.46.44-.88.58-1.88.93-2.81,1.23-3.25,4.8-4.93,8.16-5.79,2.15-.54,4.43-.88,6.56-.26,1.6.47,3,1.45,4.28,2.52,4.28,3.56,8.54,9.25,8.12,15.01-.07.95.47,1.87,1.19,2.49,2.72,2.33,6.77,2.64,10.1,1.81,3.41-.85,7.18-3.93,8.33-7.35.2-.6.31-1.22.48-1.82.14-.46.32-.91.45-1.37.84-2.8.22-5.96,0-8.82-.11-1.41-.33-2.82-.43-4.23-.25-3.49,1.1-6.43,3.57-8.85-4.42-1.41-8.33-2-12.98-2-3.63-.06-7.42-.59-10.91.73-1.79.68-3.78,3.36-5.79,2.44-.93-.43-1.13-1.42-.39-2.11.9-.83,1.83-1.64,2.74-2.45,1.5-1.33,3.17-2.39,5.13-2.88,1.02-.25,2.08-.36,3.24-.55Zm-66-11.18c.76,1.43,1.61,2.79,2.23,4.23.86,2.02,1.58,4.09,2.29,6.17.49,1.46.85,2.97,1.29,4.45.15.5.46.96.5,1.46.21,2.32.36,4.65.51,6.98.18,2.8.25,5.6.52,8.39.13,1.32.48,2.67.98,3.9.58,1.43,1.38,2.78,2.18,4.1.26.42.82.81,1.29.9.47.09.93-.28,1.17-.84.57-1.32,1.18-2.63,1.8-3.92,1.02-2.11,2.14-4.17,3.07-6.32,1.61-3.7,3.04-7.47,4.66-11.16,1-2.28,2.17-4.5,3.36-6.69,1.27-2.33,2.46-4.7,4.21-6.74.99-1.15.93-1.22-.4-1.94-1.99-1.09-4.06-2.02-6.33-2.22-1.72-.15-3.49-.24-5.18.02-1.57.25-3.05,1.05-4.59,1.52-1.07.32-2.17.63-3.27.71-2.65.19-4.89-1.04-7.03-2.4-1.02-.65-2.07-.89-3.26-.62Zm57.8,50.8c-.52.6-.87,1.13-1.34,1.53-.71.61-1.56,1.06-2.24,1.71-1.22,1.16-2.32,2.44-3.53,3.61-1.07,1.03-2.23,1.96-3.31,2.98-.42.4-.74.91-1.1,1.37.05.04.09.08.14.12,4.06-3.26,8.42-6.06,13.11-8.39-.58-.98-1.09-1.85-1.73-2.92Zm-47.99,83.47c.09-.02.18-.03.28-.05-.07-.83-.12-1.66-.2-2.5-.08-.82-.25-1.65-.24-2.47,0-.85.18-1.69.25-2.54.07-.8.09-1.61.13-2.42-.06,0-.12,0-.17-.01-.09.39-.19.78-.26,1.17-.38,2.3-.76,4.6-1.12,6.9-.03.17.04.4.15.54.37.47.78.92,1.17,1.37Z"/><polygon class="e" points="145.63 78.77 154.77 75.96 159.73 68.71 160.05 64.35 158.65 50.79 164.46 43.06 159.76 42.5 155.41 41.26 146.58 41.26 140.36 41.26 133.81 45.84 130.78 72.8 132.9 80.71 145.63 78.77"/><path class="k" d="m28.65,37.72c-.6-2.68-.8-5.58-.69-8.35.12-3.04.75-6.06,1.87-8.89,2.45-6.17,7.95-10.14,12.93-14.24,4.25-3.49,9.76-7.77,15.45-4.71,2,1.07,3.61,2.73,5.14,4.39,4.87,5.29,8.93,10.82,12.52,17.02,1.07-.07,2.24-.17,3.42-.24,1.33-.08,2.34.64,3.4,1.31,2.18,1.39,3.9,2.46,6.63,2.05,1.98-.3,3.85-1.11,5.8-1.59,4.5-1.11,9.42-.39,13.41,1.98.5.29,1.07.62,1.61.42.29-.11.5-.35.7-.58,1.54-1.78,3.02-2.85,4.86-4.27,1.09-.84,2.35-1.28,3.65-1.66,3.81-1.12,7.61-1.01,11.39.04.85.24,1.67.69,2.41,1.19,5.47,3.69,9.99,8.68,13.06,14.53.13.24.26.5.49.65.23.15.53.18.81.19,2.82.17,5.87.9,8.64.9.24.04.48.13.73.14,1.52.07,2.86.65,4.17,1.38,1.26.7,3.23,1.63,4.63.99.76-.35,2.34-.17,2.34-.17,0,0,.42,1.18.33,1.82-.05.32-.26.93-.26.93,0,0-.8.7-1.27.95-5.54,2.94-4.75,8.56-4.31,13.78.09,1.07.1,2.15.14,3.23.03.85.11,1.71.06,2.56-.08,1.45-.14,2.92-.37,4.35-.76,4.68-5.22,9.32-8.82,12.1-4.15,3.2-10.51,4.8-14.96,1.19-.11-.09-.39-.09-.52-.02-1.26.68-2.57,1.3-3.76,2.11-15.71,10.68-28.68,25.41-36.92,42.55-2.35,4.88-4.24,9.94-5.88,15.09-.52,1.62.28,2.92-.03,4.49-.61,3.12-.86,6.28-.86,9.45,0,1.47.36,2.95.3,4.42-.06,1.28-.32,2.61-.79,3.8-.57,1.46-1.45,2.13-3.18,1.98-.36-.03-.82-.35-1.02-.67-1.47-2.35-3.37-4.3-5.43-6.13-1.29-1.15-2.49-2.41-3.68-3.67-1.17-1.24-2.26-2.56-3.4-3.83-1.05-1.17-3.11-4.66-5.08-3.38-.89.58-1.33,1.62-1.98,2.46-.66.86-1.58,1.55-2.64,1.75-1.69.33-3.17-.87-4.28-1.99-.94-.95-2.3-1.87-2.7-3.19-.4-1.3-.11-3.16-.21-4.52-.13-1.84.11-3.7.05-5.54-.4-14.35-7.54-25.38-15.24-36.84-8.83-13.14-22.58-20.42-32.84-32.14-1.59-1.81-3.26-4.15-3.48-6.63s1.78-5.08.31-7.52c-.45-.74-1.12-1.32-1.62-2.03-.73-1.04-1.06-2.31-1.54-3.49-.57-1.42-1.37-2.77-1.59-4.28-.85-5.87,7.66-6.38,11.33-4.93,2.44.96,4.91,2.21,7.52,1.99,3.16-.27,6.11-2.16,9.24-2.69Zm57.89,69.35c5.77-10.76,11.55-21.52,17.32-32.28.4-.75.85-1.55,1.61-1.95s1.91-.13,2.12.7c.12.49-.11.99-.34,1.45-10.5,20.68-25.82,39.82-28.88,62.81-.12.87-.23,1.79-.77,2.49s-1.66,1.02-2.3.43c-.6-.55-.48-1.51-.31-2.31.74-3.54,1.48-7.08,2.22-10.62-1.64,4.33-3.19,8.7-4.63,13.1-.27.82-.53,1.67-.38,2.52.15.85.7,1.56,1.24,2.23,2.91,3.58,6.13,6.9,9.62,9.92,3.99-30.77,23.44-57.71,46.92-78,1.68-1.45,3.48-3.04,3.9-5.22.26-1.34-.05-2.73-.5-4.02-1.15-3.3-3.34-6.38-6.49-7.9-3.15-1.52-7.31-1.17-9.71,1.37-2.09,2.21-3.44,6.22-5.49,7.16-2.35,1.07-6.77-.77-10.28-1.14-5.26-.55-10.7,3.46-15.56,1.37-6.26-2.7-6.47-13.49-13.16-14.84,0,4.09-.61,9.15-4.43,10.6,7.03,14.93,6.39,32.19,5.61,48.67-.05.98-.34,2.24-1.31,2.35-1.11.12-1.59-1.35-1.65-2.47-.51-9.91.85-19.92-.63-29.74-1.28-8.47-4.62-16.47-7.93-24.37-.23-.55-.47-1.12-.89-1.55-1.59-1.67-4.46-.39-5.97,1.36-1.62,1.88-2.69,4.22-3.05,6.67-.69,4.75.86,10.67-2.94,13.61-1.79,1.39-4.3,1.52-6.48.91s-4.11-1.88-5.99-3.13c1.73,2.5,3.46,4.99,5.19,7.49,5.47,7.89,10.98,15.86,14.67,24.72,3.59,8.61,5.38,17.84,7.16,27,.15.77.25,1.7-.34,2.22-1.18,1.03-2.63-.94-2.95-2.47-2.31-11.24-3.91-22.91-9.49-32.94-5.56-9.99-14.81-17.85-18.81-28.56-.46-1.24-.89-2.57-1.91-3.41-.8-.66-1.84-.92-2.85-1.17-5.39-1.3-10.78-2.6-16.18-3.91,6.06,6.14,12.96,11.4,19.3,17.25,8.52,7.87,16.07,16.91,21.35,27.24,3.04,5.94,5.3,12.29,6.53,18.86.62,3.32.98,6.7,1.03,10.08.02,1.29-.5,3.46-.06,4.65.48,1.31,2.64,2.84,3.6,3.86,2.8-1.28,4.21-4.37,5.35-7.22,8.15-20.35,14.62-41.66,19.16-63.19.26-1.24,1.05-2.83,2.27-2.48,1.14.33,1.09,1.96.78,3.11-3.61,13.63-7.22,27.26-10.82,40.89,2.18-4.06,4.35-8.11,6.53-12.17Zm-5.22-53.2c-.06-1.92-1.29-3.61-1.74-5.44-2.7-11.01-6.56-21.88-12.26-31.71-1.94-3.34-4.82-5.67-8.19-7.62-1.51-.87-3.11-1.6-4.69-2.36-4.06-1.95-8.51,2.38-11.08,5.03-2.76,2.86-6.34,4.72-9.04,7.6-6.85,7.31-1.9,19.34,2.39,26.6.44.74.89,1.49,1.01,2.34s-.98,2.19-.98,2.19c0,0-1.86-.05-2.42-.78-1.28-1.66-2.23-4.55-3.09-6.48-.58-1.31-1.45-2.08-2.76-2.52-1.24-.41-2.39-.45-3.56.24-3.01,1.77-6.27,1.95-9.54,1.08-2.03-.54-3.99-1.37-5.93-2.21-2.11-.91-4.36-.61-5.91,1.03-.25.27-.47.73-.43,1.08.13,1.44.76,2.71,1.6,3.88.14.2.32.4.53.51.57.3.84.72.83,1.4-.06,2.6,2.53,3.28,2.57,5.7.02,1.1-.32,2.17-.37,3.26-.17,3.31,2.28,6.3,5.22,7.83,2.94,1.53,7.21.78,10.49,1.23s6.85,1.59,9.59,3.45c4.06,2.74,5.33,6.95,10.27,8.37.49.14,1.01.19,1.5.34.78.24,1.47-.02,2.14-.32.37-.16.48-.48.47-.94-.03-1.7-.02-3.41.07-5.11.14-2.83,1.52-5.72,1.82-8.6.06-.61.11-1.23.36-1.79.71-1.63,2.87-4.5,4.24-5.62,1.72-1.4,3.7-1.29,5.83-1.92,1.22-.36,2.51-.58,3.76-.37s2.47.89,3.09,2c.7,1.26.58,2.9,1.46,4.05.13-1.43.26-2.86.39-4.3.11-1.27.25-2.59.96-3.65,1.21-1.8,3.56-1.4,5.31-.77,1.15.41,2.26.93,3.31,1.55.86.5,1.92,1.61,2.82,1.76Zm62.1-16.89c-.07-.26-.09-.49-.19-.67-.86-1.39-1.62-2.86-2.64-4.12-1.55-1.92-3.25-3.73-4.97-5.49-.72-.74-1.73-1.2-2.5-1.91-1.33-1.22-2.85-2.08-4.57-2.51-4.25-1.06-9.63-.65-12.35,3.09-3.78,5.19-7.16,10.81-9.8,16.67-1.02,2.27-1.89,4.61-2.86,6.92-.74,1.76-1.53,3.5-2.26,5.27-.29.71-.66,1.47-.66,2.21,0,.91-.15,1.72-.48,2.55-.64,1.61-1.23,3.23-1.82,4.85-.12.33-.18.68-.29,1.08.31.01.54.04.76.03,1.43-.08,2.85-.2,4.28-.24,2.27-.05,6.27,1.02,7.52-1.46.44-.88.58-1.88.93-2.81,1.23-3.25,4.8-4.93,8.16-5.79,2.15-.54,4.43-.88,6.56-.26,1.6.47,3,1.45,4.28,2.52,4.28,3.56,8.54,9.25,8.12,15.01-.07.95.47,1.87,1.19,2.49,2.72,2.33,6.77,2.64,10.1,1.81,3.41-.85,7.18-3.93,8.33-7.35.2-.6.31-1.22.48-1.82.14-.46.32-.91.45-1.37.84-2.8.22-5.96,0-8.82-.11-1.41-.33-2.82-.43-4.23-.25-3.49,1.1-6.43,3.57-8.85-4.42-1.41-8.33-2-12.98-2-3.63-.06-7.42-.59-10.91.73-1.79.68-3.78,3.36-5.79,2.44-.93-.43-1.13-1.42-.39-2.11.9-.83,1.83-1.64,2.74-2.45,1.5-1.33,3.17-2.39,5.13-2.88,1.02-.25,2.08-.36,3.24-.55Zm-66-11.18c.76,1.43,1.61,2.79,2.23,4.23.86,2.02,1.58,4.09,2.29,6.17.49,1.46.85,2.97,1.29,4.45.15.5.46.96.5,1.46.21,2.32.36,4.65.51,6.98.18,2.8.25,5.6.52,8.39.13,1.32.48,2.67.98,3.9.58,1.43,1.38,2.78,2.18,4.1.26.42.82.81,1.29.9.47.09.93-.28,1.17-.84.57-1.32,1.18-2.63,1.8-3.92,1.02-2.11,2.14-4.17,3.07-6.32,1.61-3.7,3.04-7.47,4.66-11.16,1-2.28,2.17-4.5,3.36-6.69,1.27-2.33,2.46-4.7,4.21-6.74.99-1.15.93-1.22-.4-1.94-1.99-1.09-4.06-2.02-6.33-2.22-1.72-.15-3.49-.24-5.18.02-1.57.25-3.05,1.05-4.59,1.52-1.07.32-2.17.63-3.27.71-2.65.19-4.89-1.04-7.03-2.4-1.02-.65-2.07-.89-3.26-.62Zm57.8,50.8c-.52.6-.87,1.13-1.34,1.53-.71.61-1.56,1.06-2.24,1.71-1.22,1.16-2.32,2.44-3.53,3.61-1.07,1.03-2.23,1.96-3.31,2.98-.42.4-.74.91-1.1,1.37.05.04.09.08.14.12,4.06-3.26,8.42-6.06,13.11-8.39-.58-.98-1.09-1.85-1.73-2.92Zm-47.99,83.47c.09-.02.18-.03.28-.05-.07-.83-.12-1.66-.2-2.5-.08-.82-.25-1.65-.24-2.47,0-.85.18-1.69.25-2.54.07-.8.09-1.61.13-2.42-.06,0-.12,0-.17-.01-.09.39-.19.78-.26,1.17-.38,2.3-.76,4.6-1.12,6.9-.03.17.04.4.15.54.37.47.78.92,1.17,1.37Z"/><path class="e" d="m135.22,76.61c.64,1.07,1.15,1.94,1.73,2.92-4.69,2.34-9.05,5.14-13.11,8.39-.05-.04-.09-.08-.14-.12.36-.46.68-.97,1.1-1.37,1.08-1.02,2.25-1.95,3.31-2.98,1.21-1.17,2.31-2.45,3.53-3.61.68-.64,1.53-1.1,2.24-1.71.47-.4.82-.93,1.34-1.53Z"/><path class="k" d="m65.73,98.85c.21,2.35.43,4.71.62,7.06.2,2.4.36,4.81.57,7.21.24,2.64.53,5.28.8,7.92.3,2.98.61,5.96.91,8.94.03.29.04.59.08.88.16,1.08-.84,2.34-1.95,2.45-.42.04-1.08-.64-1.1-1.1-.09-2.13-.16-4.26-.29-6.39-.14-2.24-.35-4.49-.55-6.73-.09-1.04-.27-2.08-.37-3.12-.17-1.81-.32-3.63-.47-5.45-.23-2.74-.47-5.48-.69-8.21-.16-1.94-.3-3.88-.43-5.82-.07-1-.09-2.01-.18-3.02-.16-1.81-.32-3.62-.54-5.42-.26-2.09-.48-4.2-.89-6.27-.57-2.86-1.24-5.71-1.98-8.53-.97-3.73-2.05-7.44-3.06-11.16-.19-.69-.28-1.42-.35-2.13-.08-.77.15-2.98.96-3.08,1.03-.13,1.76-1.05,2.23,2.63.68,3,1.34,6.01,2.03,9.01.77,3.33,1.63,6.63,2.35,9.97.44,2.02.79,4.07,1.03,6.13.55,4.74,1.01,9.49,1.5,14.23-.08,0-.16.02-.24.02Z"/><path class="k" d="m93.16,108.88c2.42-4.68,5.04-9.25,7.88-13.59.65-.99,1.26-2.02,2-2.95,1.43-1.8,2.51-3.84,3.95-5.64.89-1.11,1.52-2.43,2.3-3.63.84-1.29,1.75-2.54,2.59-3.83.99-1.52,1.9-3.08,2.9-4.59,1.13-1.71,4.51-7.99,7.21-4.31.68.93-9.06,11.89-10.06,13.2-6.67,8.69-12.18,18.58-17.12,28.33-1.42,2.81-2.79,5.65-4.1,8.52-1.48,3.25-2.89,6.57-3.51,10.09-.18,1.05-.33,2.19-1.08,2.95s-2.33.73-2.63-.29c-.11-.37-.03-.76.06-1.14,1.88-8.05,5.84-15.82,9.61-23.13Z"/><line class="i" x1="81.42" y1="139.31" x2="80.92" y2="140.27"/><g class="g"><path class="j" d="m95.61,97.13c-.4-.04-.7-.3-.69-.61,0-.21.05-.51.18-.93.19-.65.96-1.98.95-2.57-.05-2.37-.28-4.75-.64-7.11-.21-1.4-.34-2.83-.63-4.21s-1.09-2.69-1.42-4.07c-.12-.5-.18-1.02-.02-1.51.25-.76.99-1.36,1.82-1.82,4.58-2.54,10.17-1.68,13.97,1.47,1.32,1.09,1.76,2.44,1.78,3.93.03,2.15-.94,4.04-2.19,5.84-1.86,2.69-4.33,4.98-6.95,7.18-1.13.95-2.25,1.91-3.37,2.87-.71.61-1.63,1.63-2.79,1.52Zm3.57-6.02c0,.35-.03.7-.06,1.05.27-.54.74-1.01,1.18-1.47,1.51-1.56,3.08-3.09,4.55-4.68,1.84-1.99,3.64-5.1,2.4-7.57-1.07-2.15-4.28-4.22-7.4-3.75-1.64.25-2.69,1.42-2.48,2.75.38,2.42.77,4.85,1.13,7.28.32,2.11.72,4.26.67,6.4Z"/><path class="j" d="m54.45,89.94c.22-.9.48-1.79.64-2.69.81-4.73,3.58-8.78,6.55-12.76.7-.94,1.47-1.85,2.24-2.75.22-.26.54-.58.88-.64.4-.07.81-.08,1.23-.08s.77.24.82.56c.05.34.08.67-.08.91-1.05,1.53-2.37,2.94-3.38,4.49-1.57,2.41-3.23,4.82-4.34,7.38-1.07,2.48-1.2,5.24-1.84,7.83-.25.99-.32,2-.37,3-.05,1.01-.89,1.71-2.04,1.73-1.49.03-2.02-.74-2.19-2.4-.53-5.19-2.63-10.23-6.42-14.58-.85-.97-1.57-2.04-2.13-3.15-.14-.28-.14-.81.08-.97.29-.21.98-.35,1.28-.21.67.32,1.38.75,1.77,1.28,2.91,4.02,5.5,8.16,6.86,12.73.03.11.11.21.17.32.09,0,.18.01.26.02Z"/><path class="j" d="m90.68,96.52c.07.18-.09.36-.35.39-.59.08-1.17.09-1.77.13-1.67.12-3.4.3-5.08.3-1.89,0-3.76-.23-5.66-.16-.9.04-1.77.06-2.32-.52-.43-.46-.7-1.2-.43-1.73.07-.14.17-.26.28-.38,1.34-1.58,1.8-3.14,2.37-4.94,1.46-4.56,2.77-9.19,3.08-13.89.05-.7-.06-2.56,1.11-2.89.73-.21,1.7-.23,2.46-.06.72.16.87.74.7,1.35-.96,3.55-1.88,7.11-2.81,10.67-.47,1.79-.92,3.58-1.42,5.36-.39,1.37-.79,2.75-1.29,4.1-.23.61-.08.95.78.97,2.05.06,4.11.09,6.16.12.83.01,1.67,0,2.5.01.77.02,1.4.39,1.69,1.15Z"/><path class="j" d="m75.93,73.09c.11.79-.14,1.55-.28,2.34-.13.77-.27,1.53-.46,2.29-1.1,4.33-2.27,8.66-3.45,12.97-.49,1.8-1.07,3.58-1.62,5.37-.2.66-.64,1.1-1.55,1.19-1.26.13-1.71-.18-1.43-1.16.6-2.14,1.32-4.26,1.86-6.42,1.18-4.68,2.91-9.27,3.37-14.07.08-.88-.08-1.79,0-2.67.04-.46.23-1.16.6-1.28.64-.21,1.53-.2,2.19,0,.51.16.66.91.74,1.26.01.06.02.12.03.19Z"/><text class="l" transform="translate(49.34 121.26) scale(1.03 1)"><tspan class="h" x="0" y="0"> </tspan><tspan class="f" x="4.98" y="0">MAD</tspan></text></g></g></svg>