<svg xmlns="http://www.w3.org/2000/svg" width="430.866" height="492.114" viewBox="0 0 430.866 492.114">
  <g id="Group_470" data-name="Group 470" transform="translate(-776.567 -252.325)">
    <path id="Path_490" data-name="Path 490" d="M215.433,0c118.98,0,215.433,93.8,215.433,209.5S334.414,419,215.433,419,0,325.206,0,209.5,96.453,0,215.433,0Z" transform="translate(776.567 252.325)" fill="#ebdfd0"/>
    <g id="Group_467" data-name="Group 467" transform="translate(125 12.78)">
      <g id="c" transform="translate(823.997 276)">
        <path id="Path_266" data-name="Path 266" d="M73.39,257.164a7.343,7.343,0,0,1,4.461,3.776,6.114,6.114,0,0,0,7.05,3.224,20.742,20.742,0,0,0,7.418-3.141c4.394-3.191,6.315-7.952,6.716-13.3a4.463,4.463,0,0,0-.652-2.907c-1.938-2.406-4.093-4.544-7.585-4.644a3.3,3.3,0,0,1-2.389-1.8,4.965,4.965,0,0,0-2.539-2.84,3.372,3.372,0,0,1-1-1,11.623,11.623,0,0,0-13.733-4.494,7.452,7.452,0,0,0-5.263,5.9,19.256,19.256,0,0,1-1.453,3.859c-.535,1.136-1.286,2.155-1.854,3.291-2.155,4.31-.919,11.127,5.012,13.449.484.184.9,1.22.885,1.854-.1,3.809-.251,7.618-.535,11.411-.785,10.241-1.654,20.466-2.473,30.69-.134,1.554-.2,3.124-.3,4.678-.217.067-.434.117-.635.184-4.611-8.253-9.372-16.439-13.75-24.809-2.773-5.279-5.062-10.826-7.4-16.322-3.141-7.4-6.2-14.852-7.217-22.9q-1.128-8.9-1.888-17.843c-.384-4.678-1.036-9.439-.568-14.067,1.4-14.117,4.21-28.034,7.284-41.883a4.506,4.506,0,0,1,1.671-2.539c4.778-3.107,7.652-7.585,9.656-12.764,1.119-2.874,2.105-5.814,4.561-7.919.785-.668,1.554-1.32,2.272-2.055a47.291,47.291,0,0,0,9.072-13.633c.618-1.37,1.169-2.706.017-4.043-1.119-1.32-2.556-.9-3.859-.468a16.776,16.776,0,0,0-9.155,7.017c-1.47,2.255-2.74,4.644-4.143,7.033-.551-.351-1.036-.668-1.57-1,.1-.368.2-.652.267-.936.869-3.926,2.021-7.819,2.523-11.795.568-4.527.635-9.122.752-13.7.067-3.091.518-6.232-.769-9.239a24.109,24.109,0,0,1-.936-3.124c-2.122-8.17-3.609-16.523-7.017-24.308-1.136-2.606,0-4.711.852-7.2,1.186,1.537,2.122,2.94,3.258,4.16,3.826,4.11,8.821,5.714,14.2,6.5A62.9,62.9,0,0,1,69,78.721c4.31,1.136,6.816-.618,7.1-5.1.05-.685.1-1.37.134-1.938,3.675.585,7.117,1.286,10.575,1.587,1.587.134,3.224-.535,4.862-.785a2.7,2.7,0,0,1,1.554.05c2.573,1.3,5,2.222,7.718,0,.819-.668,2.539-.685,3.709-.4a42.8,42.8,0,0,1,5.931,2.172c1.169.468,2.272,1.086,3.458,1.52a1.44,1.44,0,0,0,1.236-.334c.15-.134,0-.785-.184-1.1-.685-1.053-1.4-2.088-2.189-3.074-.969-1.2-2.055-2.306-2.99-3.525-.368-.468-.819-1.27-.652-1.687.635-1.687-.084-2.957-1.036-4.16-.668-.835-1.453-1.6-2.205-2.422,1.621-1.387,3.859-2.59,3.893-5.162.033-2.523-1.871-3.993-3.893-5.279.652-.585,1.169-1,1.621-1.47,1.671-1.721,1.737-3.391-.267-4.578a84.059,84.059,0,0,0-8.554-4.143A32.051,32.051,0,0,0,86.989,35.8a13.454,13.454,0,0,1-4.878-1.671c-4.828-2.306-9.489-5.062-15.2-4.327-4.611.6-9.139,1.2-12.2,5.329-.6.819-2.189.251-2.456-.869-.551-2.339-1.036-4.695-1.52-7.033-.635-3.057-1.453-5.9-5.162-6.633-.5-.1-1.053-1.169-1.169-1.871a13.764,13.764,0,0,0-2.757-6.616c-1.737-2.088-3.442-2.222-5.363-.351-.468.451-.835.986-1.32,1.554-1.637-2.122-1.353-5.948-5.062-5.179-.969-1.6-1.554-3.542-2.874-4.527-2.088-1.554-3.091,1.1-4.644,2.088a24.451,24.451,0,0,0-1.453-2.556A15.579,15.579,0,0,0,18.86.885c-1.637-1.52-3.609-1.036-4.377,1.1a16.612,16.612,0,0,0-.5,3.007c-1.771-.952-3.592-1.771-5.263.067-2.489,2.723-1.036,5.229.735,7.7-.551.284-.969.468-1.37.7-1.988,1.136-2.172,2.189-.7,3.976C8.819,19.2,10.256,20.95,11.776,22.8a5.924,5.924,0,0,1-.885.251,3.292,3.292,0,0,0-3.107,2.823,3.136,3.136,0,0,0,1.955,3.375A27.893,27.893,0,0,0,13.1,30.539a5.762,5.762,0,0,1,1.437.585c.952.718,1.788,1.57,2.74,2.289,3.458,2.606,6.967,5.162,10.408,7.785,1.136.869,1.621,3.107.618,4.043-2.021,1.854-1.487,3.993-1.3,6.215a5.135,5.135,0,0,1-.418,2.723,54.075,54.075,0,0,1-3.224,4.594c-1.453,1.988-1.136,3.041,1.27,3.792-.384.284-.7.518-1.036.769-3.475,2.59-7,5.129-10.425,7.769a11.792,11.792,0,0,0-5.079,8.821A4.286,4.286,0,0,1,7.015,82.3,27.587,27.587,0,0,0,.533,94.459c-1.169,4.812-.652,5.714,4.093,6.349.2,2.072.4,4.16.6,6.248A11.886,11.886,0,0,0,6.263,104.4c.284-.685.785-1.654,1.337-1.754.952-.167,2.389-.117,2.907.468a4.86,4.86,0,0,0,3.341,1.854,1.771,1.771,0,0,1,.936.418c2.205,2.138,3.291,2.255,5.981.752a4.965,4.965,0,0,1,1.971-.685c2.038-.134,3.425-1.053,3.826-3.158.334-1.7.9-2.289,2.74-1.971,2.289.384,3.258-.852,2.74-3.074a24.385,24.385,0,0,1-.819-2.957,2,2,0,0,1,.718-1.621,6.412,6.412,0,0,0,3.191-7.8c-.134-.451-.117-1.27.134-1.437,2.523-1.587,3.341-4.143,4.043-7.267,8.437,19.68,7.685,39.377,3.425,58.841a34.291,34.291,0,0,0-5.78,1.37A18.088,18.088,0,0,0,26.511,147.5c-.718,2.122-.267,2.907,1.971,2.924,1.453.017,2.021-.885,2.439-1.988.3-.785.434-1.654.8-2.406,1.654-3.325,2.807-3.542,5.563-1.1a4.442,4.442,0,0,0,.952.835c1.47.635,1.353,1.687,1,2.99-1.153,4.427-2.205,8.871-3.291,13.3-.685,2.79-1.3,5.6-2.055,8.37-.635,2.339-1.7,4.594-2.105,6.983-1.253,7.568-2.506,15.153-3.308,22.771A121.722,121.722,0,0,0,28.1,215.8c.084,3.943.652,7.869,1.086,11.795.418,3.742.785,7.518,1.453,11.227.852,4.678,1.921,9.306,3.041,13.933,1.286,5.329,2.239,10.826,4.21,15.9,2.623,6.783,6.014,13.282,9.172,19.864a173.419,173.419,0,0,0,14.8,24.542c3.893,5.513,7.886,10.96,11.929,16.372,3.776,5.079,7.668,10.091,11.511,15.119a29.78,29.78,0,0,0,2.406,3.124q3.584,3.584,7.368,6.967c3.859,3.458,7.652,7.017,11.745,10.174a92.61,92.61,0,0,0,10.191,6.532,3.541,3.541,0,0,0,2.723-.15,9.1,9.1,0,0,0,2.757-2.038c1.938-2,1.4-4.477-1.069-5.58a6.585,6.585,0,0,1-1.387-.852c-5.5-4.243-10.943-8.537-16.473-12.73a163.2,163.2,0,0,1-26.931-26.43,11.5,11.5,0,0,1-2.356-4.544c-.468-2.022-.251-4.177-.434-6.282-.635-7.568-1.437-15.136-1.888-22.721a76.475,76.475,0,0,1,.585-9.94c.251-3.174.718-6.349.819-9.539.15-4.327.033-8.671.033-13.382Z" transform="translate(0 0)" fill="#fff"/>
        <path id="Path_267" data-name="Path 267" d="M73.39,257.161c0,4.695.1,9.038-.033,13.382-.1,3.191-.585,6.349-.819,9.539a76.473,76.473,0,0,0-.585,9.94c.434,7.585,1.253,15.153,1.888,22.721.167,2.088-.033,4.26.434,6.282a11.605,11.605,0,0,0,2.356,4.544A163.856,163.856,0,0,0,103.562,350c5.53,4.193,10.976,8.487,16.473,12.73a7.036,7.036,0,0,0,1.387.852c2.473,1.1,3.007,3.575,1.069,5.58a8.9,8.9,0,0,1-2.757,2.038,3.468,3.468,0,0,1-2.723.15,92.6,92.6,0,0,1-10.191-6.532c-4.093-3.174-7.886-6.733-11.745-10.174q-3.784-3.383-7.368-6.967a27.685,27.685,0,0,1-2.406-3.124c-3.843-5.045-7.718-10.041-11.511-15.119-4.026-5.413-8.036-10.859-11.929-16.372a172.479,172.479,0,0,1-14.8-24.542c-3.158-6.566-6.549-13.065-9.172-19.864-1.955-5.1-2.924-10.575-4.21-15.9-1.119-4.611-2.189-9.255-3.041-13.933-.668-3.709-1.036-7.468-1.453-11.227-.434-3.926-1-7.852-1.086-11.795a124.91,124.91,0,0,1,.384-15.621c.8-7.618,2.055-15.2,3.308-22.771.4-2.372,1.47-4.628,2.105-6.983.752-2.773,1.37-5.58,2.055-8.37,1.086-4.444,2.138-8.888,3.291-13.3.334-1.3.468-2.339-1-2.99a4.442,4.442,0,0,1-.952-.835c-2.757-2.439-3.909-2.222-5.563,1.1-.368.752-.5,1.6-.8,2.406-.434,1.119-.986,2-2.439,1.988-2.239-.033-2.69-.8-1.971-2.924a18.088,18.088,0,0,1,10.442-11.127,34.29,34.29,0,0,1,5.78-1.37c4.26-19.463,5.012-39.16-3.425-58.841-.7,3.124-1.52,5.68-4.043,7.267-.251.167-.267.986-.134,1.437a6.412,6.412,0,0,1-3.191,7.8,2,2,0,0,0-.718,1.621,27.863,27.863,0,0,0,.819,2.957c.518,2.222-.451,3.458-2.74,3.074-1.838-.3-2.406.267-2.74,1.971-.4,2.088-1.8,3.007-3.826,3.158a5.057,5.057,0,0,0-1.971.685c-2.706,1.52-3.776,1.387-5.981-.752a1.549,1.549,0,0,0-.936-.418,4.8,4.8,0,0,1-3.341-1.854c-.535-.585-1.971-.652-2.907-.468-.551.1-1.053,1.069-1.337,1.754a11.886,11.886,0,0,1-1.036,2.656c-.2-2.088-.4-4.193-.6-6.248C-.119,100.17-.637,99.267.533,94.456A27.587,27.587,0,0,1,7.015,82.294a4.174,4.174,0,0,0,1.069-2.372A11.893,11.893,0,0,1,13.163,71.1c3.442-2.64,6.95-5.179,10.425-7.769.317-.234.652-.484,1.036-.769-2.406-.752-2.723-1.821-1.27-3.792a48.3,48.3,0,0,0,3.224-4.594A4.83,4.83,0,0,0,27,51.453c-.184-2.222-.7-4.36,1.3-6.215,1.019-.936.518-3.174-.618-4.043-3.442-2.623-6.95-5.162-10.408-7.785-.952-.718-1.788-1.57-2.74-2.289a5.762,5.762,0,0,0-1.437-.585A33.928,33.928,0,0,1,9.738,29.25a3.136,3.136,0,0,1-1.955-3.375,3.291,3.291,0,0,1,3.107-2.823,3.7,3.7,0,0,0,.885-.251c-1.52-1.854-2.957-3.609-4.394-5.363-1.47-1.788-1.286-2.84.7-3.976.4-.234.819-.418,1.37-.7-1.771-2.473-3.224-4.979-.735-7.7,1.671-1.838,3.492-1.019,5.263-.067a17.921,17.921,0,0,1,.5-3.007A2.515,2.515,0,0,1,18.86.882a15.579,15.579,0,0,1,2.072,2.255,23.226,23.226,0,0,1,1.453,2.556c1.554-.986,2.556-3.642,4.644-2.088,1.32.969,1.9,2.924,2.874,4.527,3.709-.752,3.425,3.057,5.062,5.179.484-.568.869-1.1,1.32-1.554,1.921-1.871,3.625-1.737,5.363.351A13.63,13.63,0,0,1,44.4,18.725c.117.7.668,1.771,1.169,1.871,3.709.735,4.527,3.575,5.162,6.633.484,2.356.969,4.695,1.52,7.033.267,1.119,1.838,1.687,2.456.869,3.074-4.127,7.6-4.745,12.2-5.329,5.714-.735,10.375,2.021,15.2,4.327A13.455,13.455,0,0,0,86.989,35.8,32.051,32.051,0,0,1,98.818,38.89a87.733,87.733,0,0,1,8.554,4.143c2,1.186,1.938,2.874.267,4.578-.451.468-.969.885-1.621,1.47,2.021,1.286,3.926,2.757,3.893,5.279-.033,2.573-2.289,3.792-3.893,5.162.752.819,1.537,1.587,2.205,2.422.952,1.2,1.671,2.456,1.036,4.16-.167.434.284,1.22.652,1.687.936,1.22,2.038,2.322,2.99,3.525.785.986,1.5,2.021,2.189,3.074.2.3.334.969.184,1.1a1.57,1.57,0,0,1-1.236.334c-1.186-.434-2.289-1.053-3.458-1.52a42.8,42.8,0,0,0-5.931-2.172c-1.169-.267-2.89-.267-3.709.4-2.706,2.222-5.129,1.3-7.718,0a2.71,2.71,0,0,0-1.554-.05c-1.621.251-3.274.919-4.862.785-3.458-.3-6.883-1-10.575-1.587-.033.568-.084,1.253-.134,1.938-.284,4.477-2.79,6.215-7.1,5.1a54.836,54.836,0,0,0-6.365-1.22c-5.38-.8-10.375-2.389-14.2-6.5-1.136-1.22-2.055-2.623-3.258-4.16-.852,2.473-2,4.578-.852,7.2,3.408,7.785,4.9,16.139,7.017,24.308a20.358,20.358,0,0,0,.936,3.124c1.286,3.007.835,6.148.769,9.239-.117,4.578-.184,9.172-.752,13.7-.5,3.976-1.654,7.869-2.523,11.795-.067.284-.167.568-.267.936.535.334,1.019.652,1.57,1,1.387-2.389,2.673-4.761,4.143-7.033a16.758,16.758,0,0,1,9.155-7.017c1.3-.418,2.74-.835,3.859.468,1.153,1.337.6,2.673-.017,4.043a47.291,47.291,0,0,1-9.072,13.633c-.718.735-1.487,1.387-2.272,2.055-2.456,2.105-3.442,5.045-4.561,7.919-2,5.162-4.878,9.656-9.656,12.764a4.424,4.424,0,0,0-1.671,2.539c-3.091,13.85-5.881,27.75-7.284,41.883-.468,4.628.184,9.389.568,14.067q.727,8.946,1.888,17.843c1.036,8.053,4.076,15.5,7.217,22.9,2.339,5.5,4.628,11.043,7.4,16.322,4.394,8.37,9.155,16.54,13.75,24.809.217-.067.434-.117.635-.184.1-1.554.184-3.124.3-4.678.819-10.224,1.687-20.466,2.473-30.69.284-3.792.434-7.6.535-11.411,0-.635-.4-1.671-.885-1.854-5.948-2.322-7.167-9.155-5.012-13.449.568-1.119,1.32-2.155,1.854-3.291a17.956,17.956,0,0,0,1.453-3.859,7.475,7.475,0,0,1,5.263-5.9,11.616,11.616,0,0,1,13.733,4.494,3.373,3.373,0,0,0,1,1,4.97,4.97,0,0,1,2.539,2.84,3.226,3.226,0,0,0,2.389,1.8c3.492.084,5.647,2.239,7.585,4.644a4.511,4.511,0,0,1,.652,2.907c-.4,5.346-2.322,10.107-6.716,13.3a20.617,20.617,0,0,1-7.418,3.141,6.094,6.094,0,0,1-7.05-3.224,7.448,7.448,0,0,0-4.461-3.776Zm-1.32-182.3c-.084-1.186-.2-2.122-.184-3.057a6.7,6.7,0,0,1,.267-2.79,4.363,4.363,0,0,1,5.864-2.038c2.874,1.437,5.931,1.5,8.938,2.021,1.036.184,2.072.351,3.308.551-.1-.819-.117-1.286-.217-1.754-.418-2.038.1-3.191,2.088-3.642,2.874-.652,5.814-1,8.6-1.453-.635-.451-1.47-1.019-2.272-1.671-1.621-1.3-1.7-2.974.1-3.959,1.4-.769,3.174-.835,4.761-1.253.585-.15,1.153-.4,1.721-.6-.434-.518-.752-1.2-1.3-1.52-1.253-.718-2.673-1.153-3.893-1.9-1.57-.986-1.637-2.339-.267-3.592a29.971,29.971,0,0,1,2.69-1.971c-4.745-2.205-9.172-4.36-14.034-5.363-1.8-.368-3.792,0-5.53-.551a32.854,32.854,0,0,1-5.78-2.907c-4.812-2.64-9.757-4.644-15.337-2.773a4.807,4.807,0,0,0-2.823,2.222,27.981,27.981,0,0,0-1.119,5.931c-.284,1.888.484,2.606,2.506,2.556,5.279-.134,10.024,1.8,14.585,4.294,1.921,1.053,2.924,2.823,3.843,4.661.685,1.387-.317,2.372-1.236,3.057-.334.251-1.487-.134-1.938-.568-3.141-2.957-7.033-4.477-11.026-5.63a19.6,19.6,0,0,0-12.63.5,3.993,3.993,0,0,0-2.306,2.439,21.078,21.078,0,0,0-.267,7.5c.986,4.578,3.642,8.353,8.253,9.807,4.661,1.47,9.539,2.272,14.618,3.425ZM30.12,65.938a37.341,37.341,0,0,0-1.888,3.291,13.8,13.8,0,0,1-6.265,6.983,24.576,24.576,0,0,0-4.327,3.241c-5.162,4.594-7.952,10.559-9.623,17.124-.251.986-.518,1.971-.835,3.208,2.74-.685,4.962-.735,6.816,1.136.117.117.334.284.468.251a3.392,3.392,0,0,1,3.993,1.637c1.5-.919,2.807-1.7,4.076-2.523a1.425,1.425,0,0,0,.551-.668,3.037,3.037,0,0,1,3.141-2.255c1.5-.067,1.637-.652,1.186-1.971-.9-2.556-.117-4.127,2.222-5.346.618-.317,1.387-1,1.437-1.587a26.481,26.481,0,0,0-.05-5.146c-.15-1.57.251-2.573,1.888-2.94.484-.1,1.169-.434,1.286-.819.969-2.89,1.888-5.814,1.57-8.921-3.859-.217-5.58-1.587-5.647-4.695ZM86.572,260.269c-1.353-1.637-.735-2.807.7-3.675a31.929,31.929,0,0,1,3.224-1.57c.852-.4,1.988-.551,2.556-1.2,2.907-3.241,1.554-8.587-2.556-9.656-2.523-.652-5.212-.635-6.983-2.957-.518-.685-1.3-1.236-1.6-1.988a11.485,11.485,0,0,0-4.711-5.563c-3.074-1.888-5.78-.919-6.85,2.439a20.3,20.3,0,0,1-2.99,6.282c-2.422,3.208-1.955,6.516.769,8.888a1.977,1.977,0,0,0,1.537.451,49.018,49.018,0,0,0,5.446-1.921c3.525-1.52,7.05-2.473,10.792-.9.484.2,1.136.718,1.169,1.136a1.648,1.648,0,0,1-.885,1.353,38.264,38.264,0,0,1-4.979,1.086c-1.5.251-3.041.351-4.561.518v.568a11.117,11.117,0,0,1,5.847,5.4c.7,1.453,2.155,2.022,4.11,1.32Zm-49-246.355C37.4,15.6,37.3,16.77,37.154,17.94a8.31,8.31,0,0,1-.518,2.606A2.232,2.232,0,0,1,35,21.732c-.451-.017-.986-.919-1.27-1.52-1-2.172-1.9-4.394-2.84-6.6C28.3,14.665,27.1,14.1,26.6,11.725c-.134-.652-.134-1.337-.317-1.971-.217-.718-.585-1.4-1.069-2.556a23.248,23.248,0,0,1-.869,2.439c-1.019,1.921-2.623,2.021-3.843.267-.7-1-1.37-2.038-1.821-2.706-1.136.785-2.122,1.955-3.258,2.122-1.186.167-2.523-.618-4.26-1.136,1.353,1.487,2.339,2.757,3.525,3.826,1.186,1.086,1.136,2.155.134,3.107a13.139,13.139,0,0,1-2.723,1.6c.652.668,1.52,1.587,2.422,2.439a9.387,9.387,0,0,1,3.391,6.382,4.737,4.737,0,0,0,2,3.759c2.69,2,5.1,4.377,7.635,6.6l.351-.334c-.551-1.119-1.119-2.239-1.654-3.358-.568-1.2-1.086-2.422-1.654-3.625a2.958,2.958,0,0,1,.652-3.926c1.37-1.186,2.59-.484,3.776.334,1.37.952,2.69,1.971,4.01,2.924,3.141-2.807,3.158-2.823,6.582-.668,1.387-.685,2.59-1.754,3.759-1.7,1.119.05,2.189,1.27,3.007,1.8-.568-2.306-1.4-3.291-3.341-3.224-1.737.05-2.272-.434-2.088-2.322a8.908,8.908,0,0,0-3.375-7.9ZM25.977,65.771a9.825,9.825,0,0,0-1.37.652c-2.422,1.788-4.928,3.492-7.217,5.43a33.082,33.082,0,0,0-4.711,4.962c-.551.7-.418,1.955-.668,3.391,2.957-2.84,5.2-5.563,7.986-7.468a16.042,16.042,0,0,0,5.981-6.95ZM34.731,38.1c2.59-3.458,3.308-3.642,7.017-2.088q2.673-2.473,1.27-4.511c-2.422,2.573-2.807,2.556-6.031-.15-2.489,3.843-4.711,1.3-6.967-.735-.067.184-.15.351-.217.535,1.6,2.255,3.208,4.511,4.928,6.95ZM37.3,59.656c.117-1.32-.635-1.654-1.6-1.771-1.019-.117-2.055-.117-3.041-.3-1.387-.267-2.573-.819-2.372-2.773-.819,1.119-1.621,2.239-2.673,3.692,3.492.418,6.549.785,9.707,1.169Zm6.014,99.638c1.955-2.356,4.11-4.661,4.294-7.919a7.093,7.093,0,0,0-.618-2.172c-.167.05-.334.1-.5.167q-1.579,4.962-3.174,9.94ZM7.382,87.673a19,19,0,0,0-3.575,9.84c0,.234.351.484.551.735.234-.234.6-.418.668-.685.819-3.291,1.587-6.6,2.356-9.907ZM45.824,38.739c-.267.05-.518.117-.785.167,1,2.473-.936,3.492-2.189,4.945,1.537-.535,3.792.551,4.427-1.387.317-.969-.919-2.473-1.453-3.726ZM31.089,50.083a5.826,5.826,0,0,1,5.8-1.637,7.118,7.118,0,0,0,2.556-.418V47.36c-1.737.969-2.757-2.172-4.711-.384-1.169,1.069-3.007,1.37-3.625,3.091Zm8.454,11.778-.167-.418c-.468.1-1.053.05-1.37.317-.869.7-1.57,1.57-2.422,2.306-1.119.969-1.086,1.554.217,2.289,1.253-1.5,2.489-2.99,3.726-4.494Zm-.852-22c-.167.15-.334.284-.484.434,1.119,1.153,1.637,2.924,3.709,3.107-1.069-1.169-2.138-2.356-3.224-3.525Z" transform="translate(0 0.003)" fill="#cbd38b"/>
        <path id="Path_268" data-name="Path 268" d="M52.422,61.24c-5.079-1.169-9.957-1.955-14.618-3.425-4.611-1.453-7.267-5.229-8.253-9.807a20.674,20.674,0,0,1,.267-7.5,3.993,3.993,0,0,1,2.306-2.439,19.6,19.6,0,0,1,12.63-.5c3.993,1.153,7.886,2.673,11.026,5.63.468.434,1.6.819,1.938.568.936-.7,1.921-1.671,1.236-3.057a9.7,9.7,0,0,0-3.843-4.661c-4.561-2.489-9.306-4.427-14.585-4.294-2.021.05-2.773-.652-2.506-2.556a27.784,27.784,0,0,1,1.119-5.931,4.858,4.858,0,0,1,2.823-2.222c5.58-1.871,10.525.134,15.337,2.773a34.048,34.048,0,0,0,5.78,2.907c1.721.551,3.726.167,5.53.551,4.862,1,9.306,3.158,14.034,5.363-1.086.8-1.955,1.3-2.69,1.971-1.37,1.253-1.3,2.59.267,3.592,1.22.769,2.64,1.186,3.893,1.9.551.317.869,1,1.3,1.52-.568.2-1.136.451-1.721.6-1.6.418-3.375.484-4.761,1.253-1.8.986-1.721,2.673-.1,3.959.8.635,1.654,1.2,2.272,1.671-2.807.451-5.73.819-8.6,1.453-1.988.451-2.506,1.621-2.088,3.642.1.468.117.936.217,1.754-1.236-.2-2.272-.384-3.308-.551-3.007-.518-6.064-.585-8.938-2.021a4.363,4.363,0,0,0-5.864,2.038,7.3,7.3,0,0,0-.267,2.79c0,.936.1,1.871.184,3.057Z" transform="translate(19.649 13.622)" fill="#cbd38b"/>
        <path id="Path_269" data-name="Path 269" d="M27.238,39.47c.067,3.091,1.788,4.477,5.647,4.695.317,3.107-.618,6.031-1.57,8.921-.134.384-.8.7-1.286.819-1.654.368-2.038,1.37-1.888,2.94a26.481,26.481,0,0,1,.05,5.146c-.05.585-.835,1.27-1.437,1.587-2.339,1.22-3.124,2.79-2.222,5.346.468,1.32.317,1.9-1.186,1.971A3.037,3.037,0,0,0,20.2,73.151a1.334,1.334,0,0,1-.551.668c-1.27.819-2.573,1.587-4.076,2.523-.618-1.3-2.055-2.021-3.993-1.637-.134.033-.351-.134-.468-.251C9.279,72.582,7.04,72.633,4.3,73.318c.317-1.236.585-2.222.835-3.208,1.687-6.566,4.477-12.53,9.623-17.124a22.509,22.509,0,0,1,4.327-3.241,13.8,13.8,0,0,0,6.265-6.983,37.345,37.345,0,0,1,1.888-3.291Z" transform="translate(2.882 26.471)" fill="#cbd38b"/>
        <path id="Path_270" data-name="Path 270" d="M60.177,166.855c-1.938.685-3.391.134-4.11-1.32a11.053,11.053,0,0,0-5.847-5.4v-.568c1.52-.167,3.057-.267,4.561-.518a46.4,46.4,0,0,0,4.979-1.086,1.648,1.648,0,0,0,.885-1.353c-.033-.418-.685-.919-1.169-1.136-3.742-1.57-7.284-.618-10.792.9a49,49,0,0,1-5.446,1.921,1.915,1.915,0,0,1-1.537-.451c-2.723-2.389-3.191-5.68-.769-8.888a20.118,20.118,0,0,0,2.99-6.282c1.069-3.341,3.792-4.327,6.85-2.439a11.573,11.573,0,0,1,4.711,5.563c.3.752,1.086,1.3,1.6,1.988,1.771,2.339,4.461,2.306,6.983,2.957,4.127,1.069,5.463,6.4,2.556,9.656-.585.652-1.7.8-2.556,1.2a31.921,31.921,0,0,0-3.224,1.57c-1.42.869-2.055,2.038-.7,3.675Z" transform="translate(26.394 93.417)" fill="#cbd38b"/>
        <path id="Path_271" data-name="Path 271" d="M33.093,11.019a8.908,8.908,0,0,1,3.375,7.9c-.167,1.888.351,2.372,2.088,2.322,1.955-.067,2.79.919,3.341,3.224-.835-.535-1.9-1.754-3.007-1.8-1.153-.05-2.372,1.019-3.759,1.7-3.425-2.138-3.442-2.138-6.582.668-1.3-.969-2.64-1.971-4.01-2.924-1.169-.819-2.406-1.52-3.776-.334a2.938,2.938,0,0,0-.652,3.926c.585,1.186,1.086,2.422,1.654,3.625.535,1.136,1.1,2.239,1.654,3.358l-.351.334c-2.523-2.222-4.945-4.594-7.635-6.6a4.737,4.737,0,0,1-2-3.759,9.49,9.49,0,0,0-3.391-6.382c-.919-.852-1.771-1.771-2.422-2.439a13.591,13.591,0,0,0,2.723-1.6c1-.952,1.053-2.021-.134-3.107C9.019,8.062,8.017,6.793,6.68,5.306c1.737.518,3.074,1.3,4.26,1.136,1.136-.167,2.122-1.32,3.258-2.122.451.668,1.119,1.7,1.821,2.706,1.236,1.754,2.823,1.654,3.843-.267A19.892,19.892,0,0,0,20.73,4.32c.484,1.153.852,1.838,1.069,2.556.184.635.184,1.32.317,1.971.518,2.372,1.7,2.94,4.294,1.888.936,2.205,1.838,4.427,2.84,6.6.284.6.819,1.487,1.27,1.52a2.262,2.262,0,0,0,1.637-1.186,8.31,8.31,0,0,0,.518-2.606c.15-1.169.251-2.339.418-4.026Z" transform="translate(4.478 2.897)" fill="#cbd38b"/>
        <path id="Path_272" data-name="Path 272" d="M21.157,39.387a16.042,16.042,0,0,1-5.981,6.95c-2.79,1.921-5.029,4.644-7.986,7.468.251-1.42.117-2.673.668-3.391a33.947,33.947,0,0,1,4.711-4.962c2.289-1.938,4.795-3.642,7.217-5.43a8.223,8.223,0,0,1,1.37-.652Z" transform="translate(4.82 26.404)" fill="#cbd38b"/>
        <path id="Path_273" data-name="Path 273" d="M22.768,25.815c-1.721-2.439-3.325-4.695-4.928-6.95.067-.184.15-.351.217-.535,2.255,2.021,4.477,4.578,6.967.735,3.208,2.706,3.609,2.723,6.031.15q1.42,2.038-1.27,4.511c-3.709-1.537-4.427-1.353-7.017,2.088Z" transform="translate(11.963 12.293)" fill="#cbd38b"/>
        <path id="Path_274" data-name="Path 274" d="M26.227,37.662c-3.158-.384-6.215-.752-9.707-1.169,1.053-1.453,1.871-2.573,2.673-3.692-.2,1.971.986,2.506,2.372,2.773,1,.2,2.038.184,3.041.3.969.117,1.721.451,1.6,1.771Z" transform="translate(11.077 21.997)" fill="#d87b63"/>
        <path id="Path_275" data-name="Path 275" d="M25.93,99.407q1.579-4.962,3.174-9.94c.167-.05.334-.1.5-.167a6.772,6.772,0,0,1,.618,2.172c-.184,3.258-2.322,5.563-4.294,7.919Z" transform="translate(17.388 59.89)" fill="#fff"/>
        <path id="Path_276" data-name="Path 276" d="M5.855,52.48C5.07,55.788,4.3,59.1,3.5,62.387c-.067.267-.434.451-.668.685-.184-.251-.568-.5-.551-.735A18.945,18.945,0,0,1,5.855,52.5Z" transform="translate(1.527 35.196)" fill="#cbd38b"/>
        <path id="Path_277" data-name="Path 277" d="M28.624,23.19c.535,1.253,1.771,2.757,1.453,3.726-.652,1.955-2.907.852-4.427,1.387,1.253-1.453,3.208-2.473,2.189-4.945C28.106,23.307,28.356,23.24,28.624,23.19Z" transform="translate(17.201 15.552)" fill="#d87b63"/>
        <path id="Path_278" data-name="Path 278" d="M21.35,32.178V31.71" transform="translate(14.317 21.266)" fill="#fff"/>
        <path id="Path_279" data-name="Path 279" d="M18.617,31.439c.6-1.721,2.456-2.021,3.625-3.091,1.955-1.8,2.974,1.353,4.711.384V29.4a7.44,7.44,0,0,1-2.556.418,5.81,5.81,0,0,0-5.8,1.637Z" transform="translate(12.472 18.631)" fill="#d87b63"/>
        <path id="Path_280" data-name="Path 280" d="M25.575,37.188c-1.236,1.487-2.473,2.99-3.726,4.494-1.3-.735-1.337-1.3-.217-2.289.835-.735,1.554-1.6,2.422-2.306.334-.267.9-.217,1.37-.317l.167.418Z" transform="translate(13.968 24.66)" fill="#d87b63"/>
        <path id="Path_281" data-name="Path 281" d="M23.344,23.857c1.069,1.169,2.138,2.356,3.224,3.525-2.072-.184-2.59-1.955-3.709-3.107.167-.15.334-.284.484-.434Z" transform="translate(15.329 15.988)" fill="#d87b63"/>
        <path id="Path_282" data-name="Path 282" d="M18.284,272.239c-.033.251-.05.5-.084.752,1.086.234,2.239.785,3.241.6.819-.15,1.487-1.169,2.222-1.8-.167-.117-.351-.251-.518-.368-1.621.267-3.241.551-4.862.819Z" transform="translate(12.204 182.03)" fill="#d19333"/>
        <path id="Path_283" data-name="Path 283" d="M23.673,271.778c-.735.635-1.4,1.671-2.222,1.8-1.019.184-2.155-.368-3.241-.6l.084-.752c1.621-.267,3.241-.551,4.862-.819l.518.368Z" transform="translate(12.211 182.023)" fill="#d19333"/>
        <path id="Path_284" data-name="Path 284" d="M48.726,232.247a5.555,5.555,0,0,1-1.938-.852c-.384-.4-.351-1.2-.568-2.105,1.053,1.086,1.771,1.838,2.489,2.573v.384Z" transform="translate(30.996 153.775)" fill="#d19333"/>
        <line id="Line_201" data-name="Line 201" x1="7.702" y1="2.523" transform="translate(39.292 146.667)" fill="#cbd38b"/>
        <path id="Path_285" data-name="Path 285" d="M38.826,45.827l-5.563.2L30.64,41.116l2.94-5.1,5.563-.2,2.623,4.912Z" transform="translate(20.547 24.023)" fill="#d87b63"/>
        <path id="Path_286" data-name="Path 286" d="M40.756,32.753l-5.146-.518L32.57,28.042l2.122-3.692,5.146.518,3.041,4.193Z" transform="translate(21.842 16.33)" fill="#d87b63"/>
        <path id="Path_287" data-name="Path 287" d="M29.306,43.907l-5.146-.518L21.12,39.2l2.122-3.675,5.146.5,3.041,4.21Z" transform="translate(14.162 23.822)" fill="#d87b63"/>
        <path id="Path_288" data-name="Path 288" d="M19.9,31.43l1.637-7,6.582-2.89,4.962,4.127-1.621,7-6.6,2.89Z" transform="translate(13.344 14.446)" fill="#d87b63"/>
        <path id="Path_289" data-name="Path 289" d="M38.554,31.038l-4.01,3.274-5.112-.819-1.1-4.11,4.01-3.274,5.112.819Z" transform="translate(18.998 17.511)" fill="#d87b63"/>
        <path id="Path_290" data-name="Path 290" d="M10.03,47.224l.7-5.3,4.227-3.258L18.5,40.708,17.8,46l-4.227,3.258Z" transform="translate(6.725 25.934)" fill="#d87b63"/>
        <path id="Path_291" data-name="Path 291" d="M23.992,30.18l5.146.668,2.907,4.277L29.823,38.75l-5.146-.668L21.77,33.805Z" transform="translate(14.598 20.24)" fill="#d87b63"/>
        <path id="Path_292" data-name="Path 292" d="M24.536,38.437l-5.162-.518L16.35,33.725l2.122-3.675,5.146.5,3.041,4.21Z" transform="translate(10.963 20.153)" fill="#d87b63"/>
      </g>
      <rect id="Rectangle_561" data-name="Rectangle 561" width="273" height="55" transform="translate(732 485.329)" fill="#2b465e"/>
      <text id="STRANDURTER" transform="translate(763 520.329)" fill="#fbf2e8" font-size="29" font-family="Helvetica"><tspan x="0" y="0">STRANDURTER</tspan></text>
    </g>
  </g>
</svg>
