<svg xmlns="http://www.w3.org/2000/svg" width="430.866" height="419.003" viewBox="0 0 430.866 419.003"><defs><style>.a{fill:#ebdfd0;}.b{fill:#afb780;}.c{fill:#bc7b63;}.d{fill:#fff;}.e{fill:#2b465e;}.f{fill:#fbf2e8;font-size:29px;font-family:Helvetica;}</style></defs><g transform="translate(-745 -260)"><path class="a" d="M215.433,0c118.98,0,215.433,93.8,215.433,209.5S334.414,419,215.433,419,0,325.206,0,209.5,96.453,0,215.433,0Z" transform="translate(745 260)"/><path class="b" d="M112.37,336.587a5.77,5.77,0,0,1-1.285-.78c-5.09-3.919-10.13-7.9-15.236-11.789a151.043,151.043,0,0,1-24.927-24.472,10.657,10.657,0,0,1-2.179-4.211,38.124,38.124,0,0,1-.39-5.8c-.585-7.008-1.333-14.017-1.74-21.041a70.21,70.21,0,0,1,.537-9.2c.228-2.943.667-5.886.764-8.829.13-4.016.033-8.033.033-12.39a6.841,6.841,0,0,1,4.13,3.48,5.627,5.627,0,0,0,6.52,2.976,19.207,19.207,0,0,0,6.862-2.911c4.065-2.959,5.854-7.366,6.228-12.309a4.2,4.2,0,0,0-.6-2.7c-1.8-2.228-3.789-4.211-7.025-4.293a3.026,3.026,0,0,1-2.211-1.675,4.554,4.554,0,0,0-2.342-2.618,3.352,3.352,0,0,1-.927-.927,10.764,10.764,0,0,0-12.716-4.163,6.9,6.9,0,0,0-4.878,5.447,17.45,17.45,0,0,1-1.35,3.561c-.488,1.057-1.2,2-1.707,3.041-1.984,3.984-.862,10.309,4.651,12.456a2.17,2.17,0,0,1,.813,1.724c-.1,3.529-.228,7.057-.488,10.569-.715,9.48-1.528,18.943-2.293,28.407-.114,1.447-.2,2.894-.276,4.342-.2.065-.39.114-.6.179-4.26-7.642-8.667-15.22-12.732-22.96-2.569-4.894-4.683-10.033-6.846-15.122-2.911-6.846-5.74-13.74-6.683-21.2-.7-5.5-1.285-10.992-1.74-16.521-.358-4.342-.959-8.748-.537-13.025a326.418,326.418,0,0,1,6.748-38.765,4.106,4.106,0,0,1,1.561-2.342c4.423-2.878,7.073-7.025,8.943-11.821,1.024-2.65,1.951-5.382,4.228-7.333.715-.618,1.447-1.22,2.1-1.9a43.516,43.516,0,0,0,8.39-12.618c.585-1.268,1.089-2.5.016-3.756-1.041-1.22-2.374-.829-3.577-.439a15.52,15.52,0,0,0-8.472,6.5c-1.35,2.1-2.537,4.293-3.837,6.5-.5-.325-.959-.618-1.447-.927.1-.341.179-.6.244-.862.813-3.642,1.87-7.236,2.342-10.911a126.951,126.951,0,0,0,.7-12.683c.065-2.862.472-5.772-.715-8.553a21.96,21.96,0,0,1-.862-2.894c-1.968-7.561-3.35-15.3-6.488-22.5-1.057-2.407,0-4.358.8-6.667,1.106,1.415,1.968,2.715,3.008,3.854,3.545,3.8,8.163,5.285,13.138,6.016A55.3,55.3,0,0,1,63.9,72.858c4,1.041,6.309-.569,6.569-4.716.033-.634.081-1.268.13-1.8,3.415.537,6.585,1.187,9.789,1.463,1.463.13,2.992-.488,4.488-.732a2.554,2.554,0,0,1,1.447.049c2.39,1.2,4.634,2.065,7.138,0a4.574,4.574,0,0,1,3.447-.374,40.485,40.485,0,0,1,5.5,2c1.089.439,2.114,1.008,3.2,1.415a1.41,1.41,0,0,0,1.154-.309c.146-.114,0-.732-.163-1.008-.634-.976-1.3-1.935-2.016-2.846-.894-1.106-1.9-2.13-2.764-3.252-.341-.439-.748-1.171-.6-1.561.6-1.561-.065-2.732-.959-3.854-.618-.781-1.333-1.48-2.033-2.244,1.5-1.285,3.577-2.407,3.61-4.781.033-2.342-1.724-3.691-3.61-4.878.6-.537,1.073-.927,1.5-1.35,1.545-1.594,1.61-3.138-.26-4.244A77.274,77.274,0,0,0,91.54,36,29.569,29.569,0,0,0,80.6,33.133a12.379,12.379,0,0,1-4.5-1.545c-4.472-2.13-8.781-4.683-14.065-4-4.26.553-8.455,1.106-11.3,4.943-.569.764-2.033.228-2.276-.8-.5-2.163-.959-4.342-1.415-6.52-.585-2.829-1.333-5.464-4.781-6.146-.472-.1-.976-1.089-1.089-1.724a12.4,12.4,0,0,0-2.553-6.114C37,9.3,35.425,9.165,33.653,10.905c-.423.423-.781.911-1.22,1.447-1.512-1.968-1.252-5.5-4.683-4.8-.894-1.48-1.447-3.285-2.65-4.2C23.165,1.913,22.238,4.385,20.791,5.3a23.3,23.3,0,0,0-1.35-2.374,14.611,14.611,0,0,0-1.919-2.1,2.324,2.324,0,0,0-4.049,1.024A15.917,15.917,0,0,0,13,4.645C11.359,3.767,9.668,3,8.124,4.71c-2.293,2.52-.959,4.846.683,7.138-.5.26-.894.439-1.268.65-1.837,1.057-2.016,2.033-.65,3.691,1.333,1.626,2.667,3.236,4.081,4.959a5.044,5.044,0,0,1-.813.228A3.033,3.033,0,0,0,7.278,24a2.9,2.9,0,0,0,1.8,3.122,32.325,32.325,0,0,0,3.106,1.2,5.12,5.12,0,0,1,1.333.553c.878.667,1.659,1.463,2.537,2.13,3.2,2.407,6.439,4.781,9.642,7.2,1.057.8,1.5,2.878.569,3.74-1.87,1.724-1.382,3.707-1.22,5.756a4.677,4.677,0,0,1-.39,2.52,47.561,47.561,0,0,1-2.992,4.244c-1.35,1.837-1.057,2.813,1.171,3.512-.358.26-.65.488-.959.715-3.22,2.39-6.472,4.748-9.659,7.187a10.952,10.952,0,0,0-4.7,8.163,3.888,3.888,0,0,1-.992,2.2,25.548,25.548,0,0,0-6,11.269c-1.089,4.439-.6,5.285,3.789,5.87.179,1.919.374,3.854.553,5.789a11.208,11.208,0,0,0,.959-2.455c.26-.634.732-1.528,1.236-1.626.878-.163,2.211-.114,2.7.439a4.483,4.483,0,0,0,3.089,1.707,1.506,1.506,0,0,1,.862.39c2.049,1.984,3.041,2.1,5.545.7a4.691,4.691,0,0,1,1.821-.634,3.42,3.42,0,0,0,3.545-2.911c.309-1.577.846-2.114,2.537-1.837,2.114.358,3.008-.8,2.537-2.846a24.488,24.488,0,0,1-.764-2.732,1.811,1.811,0,0,1,.667-1.5,5.943,5.943,0,0,0,2.959-7.236c-.114-.407-.114-1.171.114-1.317,2.342-1.48,3.106-3.837,3.756-6.732,7.805,18.228,7.106,36.456,3.171,54.473a32.444,32.444,0,0,0-5.35,1.268,16.79,16.79,0,0,0-9.675,10.309c-.667,1.968-.244,2.683,1.821,2.715,1.35.016,1.87-.813,2.26-1.854.276-.732.407-1.528.748-2.228,1.528-3.073,2.6-3.268,5.155-1.024a3.851,3.851,0,0,0,.878.764c1.366.585,1.252,1.561.927,2.764-1.057,4.1-2.049,8.212-3.041,12.325-.634,2.585-1.2,5.187-1.9,7.756-.585,2.163-1.577,4.26-1.951,6.455-1.154,7.008-2.325,14.033-3.073,21.09a112.8,112.8,0,0,0-.358,14.456c.081,3.642.6,7.285,1.008,10.911.39,3.464.732,6.959,1.35,10.39.8,4.325,1.772,8.618,2.813,12.895,1.187,4.943,2.081,10.016,3.886,14.732,2.423,6.293,5.561,12.293,8.488,18.391A158.732,158.732,0,0,0,57.3,289.886q5.415,7.659,11.041,15.155c3.5,4.7,7.106,9.334,10.651,14a26.257,26.257,0,0,0,2.228,2.894q3.317,3.317,6.813,6.455c3.577,3.2,7.09,6.488,10.878,9.431a90.26,90.26,0,0,0,9.431,6.049,3.27,3.27,0,0,0,2.52-.146,7.954,7.954,0,0,0,2.537-1.886,3,3,0,0,0-.992-5.171Z" transform="translate(902.963 296.991)"/><path class="b" d="M20.916,26.5c1.8-1.659,2.748,1.252,4.358.341v.618a6.488,6.488,0,0,1-2.358.374,5.392,5.392,0,0,0-5.366,1.512c.569-1.594,2.276-1.87,3.35-2.862Z" transform="translate(913.928 313.25)"/><path class="b" d="M15.583,34.175c.976-1.35,1.724-2.374,2.472-3.415-.179,1.821.927,2.325,2.2,2.569.927.179,1.886.179,2.813.276.894.1,1.594.423,1.48,1.642-2.927-.358-5.756-.683-8.992-1.073Z" transform="translate(912.675 316.243)"/><path class="b" d="M20.606,39.077c-1.2-.683-1.252-1.22-.211-2.114.781-.667,1.447-1.48,2.244-2.13.309-.244.846-.2,1.268-.293l.146.39c-1.154,1.382-2.293,2.764-3.447,4.163Z" transform="translate(915.246 318.61)"/><path class="b" d="M21.6,22.63l.455-.39,2.976,3.268C23.112,25.346,22.641,23.7,21.6,22.63Z" transform="translate(916.463 310.909)"/><path class="b" d="M26.276,21.773c.244-.049.488-.1.732-.163.488,1.171,1.642,2.537,1.35,3.447-.6,1.8-2.683.8-4.1,1.285,1.171-1.35,2.959-2.293,2.033-4.585Z" transform="translate(918.128 310.515)"/><path class="b" d="M23.07,33.616c-.943-.1-1.9-.1-2.813-.276-1.285-.244-2.39-.748-2.2-2.569-.748,1.041-1.512,2.065-2.472,3.415,3.236.39,6.065.732,8.992,1.073.114-1.22-.585-1.528-1.48-1.642Z" transform="translate(912.701 316.25)"/><path class="b" d="M28.354,25.057c.293-.894-.846-2.276-1.35-3.447-.244.049-.488.1-.732.163.927,2.293-.862,3.236-2.033,4.585,1.415-.5,3.512.52,4.1-1.285Z" transform="translate(918.116 310.515)"/><path class="b" d="M22.91,27.857a7.2,7.2,0,0,0,2.358-.374v-.618c-1.61.894-2.553-2.016-4.358-.341-1.073.992-2.781,1.268-3.35,2.862a5.382,5.382,0,0,1,5.366-1.512Z" transform="translate(913.934 313.259)"/><path class="b" d="M22.641,34.829c-.8.65-1.463,1.463-2.244,2.13-1.041.894-1.008,1.431.211,2.114,1.154-1.4,2.309-2.781,3.447-4.163l-.146-.39c-.423.081-.976.049-1.268.293Z" transform="translate(915.244 318.597)"/><path class="b" d="M21.6,22.63c1.041,1.057,1.512,2.7,3.431,2.878L22.055,22.24Z" transform="translate(916.463 310.909)"/><path class="c" d="M24.562,35.248c-2.927-.358-5.756-.683-8.992-1.073.976-1.35,1.724-2.374,2.472-3.415-.179,1.821.927,2.325,2.2,2.569.927.179,1.886.179,2.813.276.894.1,1.594.423,1.48,1.642Z" transform="translate(912.688 316.243)"/><path class="c" d="M27,21.616c.488,1.171,1.642,2.537,1.35,3.447-.6,1.8-2.683.8-4.1,1.285,1.171-1.35,2.959-2.293,2.033-4.585.244-.049.488-.1.732-.163Z" transform="translate(918.122 310.509)"/><path class="d" d="M20.17,30.159V29.72" transform="translate(915.568 315.592)"/><path class="c" d="M17.566,29.373c.569-1.594,2.276-1.87,3.35-2.862,1.8-1.659,2.748,1.252,4.358.341v.618a6.488,6.488,0,0,1-2.358.374,5.392,5.392,0,0,0-5.366,1.512Z" transform="translate(913.928 313.256)"/><path class="c" d="M24.061,34.914c-1.154,1.382-2.293,2.764-3.447,4.163-1.2-.683-1.236-1.22-.211-2.114.781-.667,1.447-1.48,2.244-2.13.309-.244.846-.2,1.268-.293l.146.39Z" transform="translate(915.255 318.61)"/><path class="c" d="M22.055,22.24l2.976,3.268c-1.919-.163-2.39-1.8-3.431-2.878C21.746,22.5,21.909,22.37,22.055,22.24Z" transform="translate(916.463 310.909)"/><path class="c" d="M36.577,42.9l-5.155.179L29,38.524l2.716-4.716,5.155-.179,2.423,4.537Z" transform="translate(921.096 318.04)"/><path class="c" d="M38.4,30.493l-4.764-.472-2.8-3.886,1.951-3.415,4.781.472,2.8,3.886Z" transform="translate(922.248 311.21)"/><path class="c" d="M27.527,41.113l-4.781-.488-2.8-3.886,1.951-3.4,4.781.472,2.8,3.886Z" transform="translate(915.43 317.858)"/><path class="c" d="M18.79,29.211,20.3,22.723l6.1-2.683,4.585,3.821-1.512,6.488-6.1,2.667Z" transform="translate(914.704 309.532)"/><path class="c" d="M36.264,28.943l-3.707,3.041-4.732-.764-1.024-3.8,3.724-3.024,4.716.764Z" transform="translate(919.719 312.255)"/><path class="c" d="M9.4,44.259l.65-4.911,3.919-3.008,3.268,1.886-.65,4.894-3.919,3.024Z" transform="translate(908.825 319.737)"/><path class="c" d="M22.619,28.26l4.748.618,2.7,3.968L28,36.2l-4.748-.618L20.57,31.61Z" transform="translate(915.818 314.678)"/><path class="c" d="M22.987,35.9l-4.781-.472-2.8-3.886,1.951-3.415,4.781.488,2.8,3.886Z" transform="translate(912.588 314.597)"/><rect class="e" width="330" height="55" transform="translate(795 504)"/><text class="f" transform="translate(851 539)"><tspan x="0" y="0">STRANDURTER</tspan></text></g></svg>