<svg xmlns="http://www.w3.org/2000/svg" width="430.866" height="419.003" viewBox="0 0 430.866 419.003"><defs><style>.a{fill:#ebdfd0;}.b{fill:#d19333;}.c{fill:#dab24f;}.d{fill:#2b465e;}.e{fill:#fbf2e8;font-size:29px;font-family:Helvetica;}</style></defs><g transform="translate(-744.567 -747.376)"><path class="a" d="M215.433,0c118.98,0,215.433,93.8,215.433,209.5S334.414,419,215.433,419,0,325.206,0,209.5,96.453,0,215.433,0Z" transform="translate(744.567 747.376)"/><g transform="translate(854.359 813.371)"><path class="b" d="M91,199.048c3.069-2.747,6.064-5.567,9.249-8.11,3.229-2.572,6.575-5.012,9.965-7.379a8.936,8.936,0,0,1-.453-.818c-4.062-8.533-9.279-16.117-17.535-21.173a63.149,63.149,0,0,1-5.932-3.711c-4.705-3.668-9.323-7.452-13.9-11.281a4.353,4.353,0,0,1-1.388-2.426c-.365-2.353-.424-4.764-.672-7.131a22.851,22.851,0,0,0-.7-4.72c-1.841-5.8-3.843-11.544-5.6-16.775-3.156-.511-5.962-.76-8.65-1.461a9.588,9.588,0,0,0-7.467.921c-2.382,1.388-4.515,3.215-6.9,4.588-1.622.95-1.549,2.1-1.125,3.536q1.995,6.926,3.974,13.838a62.227,62.227,0,0,0,7.452,16.015c1.9,3.01,4.033,5.9,6.21,8.738,2.206,2.879,4.457,5.743,6.912,8.417,6.824,7.452,13.765,14.787,20.632,22.2,1.987,2.148,3.9,4.384,5.947,6.751Z" transform="translate(18.289 52.439)"/><path class="b" d="M51.674,174.935a1.722,1.722,0,0,1,.891.994c.409,1.154.628,2.382,1.037,3.536,2.513,7.131,4.734,14.393,7.73,21.319,1.885,4.354,4.778,8.329,7.5,12.274a119.79,119.79,0,0,0,9.059,11.894c8.373,9.366,17.023,18.484,25.483,27.763a4.937,4.937,0,0,1,1.344,2.732c1.563-1.271,3.069-2.586,4.574-3.931-2.06-2.367-3.974-4.6-5.947-6.751-6.853-7.423-13.808-14.744-20.632-22.2-2.44-2.674-4.705-5.523-6.912-8.417-2.177-2.835-4.3-5.728-6.21-8.738A62.226,62.226,0,0,1,62.136,189.4q-1.973-6.926-3.974-13.838c-.409-1.432-.5-2.6,1.125-3.536,2.382-1.388,4.515-3.2,6.9-4.588a9.588,9.588,0,0,1,7.467-.921c2.689.687,5.494.95,8.65,1.461,1.753,5.231,3.755,10.988,5.6,16.775a23.149,23.149,0,0,1,.7,4.72c.248,2.382.307,4.778.672,7.131a4.223,4.223,0,0,0,1.388,2.426c4.574,3.828,9.191,7.628,13.9,11.281a63.152,63.152,0,0,0,5.932,3.711c8.256,5.056,13.487,12.654,17.534,21.173.132.278.292.541.453.818,1.651-1.154,3.3-2.279,4.968-3.4,0-.015-.029-.044-.044-.058-3.317-6.4-6.678-12.786-11.485-18.25a3.226,3.226,0,0,1-.731-3.346c3.375-12.727,6.678-25.483,10.082-38.225a69.339,69.339,0,0,0,1.417-28.42c-.614-4.135-1.739-8.227-2.016-12.391-.6-9.293-.848-18.6-1.14-27.894-.219-6.9-.307-13.808-.424-20.705,0-.541.073-1.081.117-1.812.833.1,1.549.2,2.265.263a45.568,45.568,0,0,0,7.16.409c4.968-.453,8.811-3.142,12.186-6.692,1.973-2.09,4.164-3.974,6.3-5.9,1.213-1.111,2.7-1.958,3.682-3.229a38.2,38.2,0,0,0,6.824-15.2c1.257-5.553.482-11.018-.395-16.526-1.388-8.723-4.354-16.643-10.74-23A39.123,39.123,0,0,0,135.488.832C127.043-.746,118.948-.337,111.466,4.4a10.979,10.979,0,0,1-6.327,1.666c-2.265-.058-4.544.2-6.824.219-7.949.088-15.927.058-23.686,2.09a167.731,167.731,0,0,0-16.292,4.72c-6.795,2.513-12.406,6.97-17.418,12.216-4.238,4.442-8.1,9.089-10.828,14.656-3.185,6.517-3.507,13.531-2.922,20.442.7,8.563,1.607,17.228,5.859,25.162-1.067.395-2.09.789-3.127,1.154a22.871,22.871,0,0,0-11.66,8.65,19.994,19.994,0,0,1-5.2,5.421,12.518,12.518,0,0,0-5.8,8.49c-.278,1.388-.8,2.718-1.111,4.091-.643,2.82-1.8,5.669-1.651,8.46.161,3.215-1.315,5.772-1.958,8.636-.95,4.238-2.177,8.475-2.5,12.786-.438,5.786,3.785,9.936,9.264,10.3a15.292,15.292,0,0,0,10.667-3.346c2.119-1.622,4.486-1.4,6.824-1.359a3.041,3.041,0,0,1,2.148,1.2c3.054,4.384,6.079,8.8,8.943,13.312,3.39,5.333,7.394,9.819,13.779,11.558Zm40.519-1.783a2.636,2.636,0,0,1-.307.117c-.877-2.06-1.768-4.121-2.6-6.2-.862-2.133-1.49-4.033.161-6.371,1.359-1.929,1.68-4.559,2.616-6.824a16.71,16.71,0,0,1,1.739-2.63c.1.073.2.132.307.2q-.942,10.849-1.9,21.7Zm34.178-.628c-2.177,7.934-4.179,15.927-6.342,23.862-1.184,4.325-2.513,8.621-3.828,13.078a50.469,50.469,0,0,1-18.309-18.689,3.318,3.318,0,0,1-.321-2.09c1.461-8.051,3.3-16.044,4.413-24.139.964-7.058,1.2-14.232,1.651-21.363.234-3.8.438-7.628.336-11.427-.1-3.419-.628-6.824-.979-10.243-.015-.19-.088-.365-.088-.541-.19-5.889-1.87-11.47-3.142-17.169-.774-3.463-.833-7.087-1.242-10.623-.395-3.419-.891-6.824-1.227-10.243a1.964,1.964,0,0,1,.833-1.607,7.623,7.623,0,0,0,4.164-4.676c.511-1.49,1.315-2.236,3-2.016,1.943.248,3.945.161,5.874.453a5.044,5.044,0,0,1,2.323,1.286c1.461,1.213,2.82,2.338,4.968,1.549.541-.2,1.359.511,2.09.672,3.083.687,3.931,2.6,3.828,5.655-.161,4.793.161,9.6.321,14.393.219,6.327.511,12.639.745,18.966.132,3.448,0,6.912.321,10.331.395,4.267,1.023,8.519,1.7,12.756,1.71,10.681,1.841,21.275-1.052,31.81ZM37.339,49.052c.38-1.607.468-3.288.789-4.91.994-4.968,4.194-8.3,8.037-11.31A80.824,80.824,0,0,1,69.617,20.12c4.588-1.593,9.03-3.653,13.706-4.939a95.816,95.816,0,0,1,13.209-2.367c7.744-.994,15.518-1.593,22.941-4.486a40.513,40.513,0,0,1,18.411-2.689,5.4,5.4,0,0,1,1.593.38c9.79,4.077,17.228,10.579,20.691,20.837a103.266,103.266,0,0,1,2.806,12.333c1.622,7.861-.19,15.2-3.872,22.093-1.008,1.885-2.922,3.273-4.442,4.866-1.943,2.031-3.974,3.974-5.859,6.049-1.154,1.271-2.06,2.586-4.077,2.747-2.163.161-4.281.921-6.444,1.257-5.027.774-9.191-1.461-13.326-3.872a6.591,6.591,0,0,0-6.079-.818,7.419,7.419,0,0,1-5.041-.438,33.706,33.706,0,0,0-7.861-1.622c-3.054-.395-5.246.76-6.824,3.668-1.622,3-1.885,2.849-5.173,1.856a9.151,9.151,0,0,0-9.352,3.39C83.382,80.1,82.242,81.929,81,83.8a20.913,20.913,0,0,0-11.953-3.726c1.227-3.127,2.309-5.889,3.39-8.665,2.806-7.2,8.9-10.4,15.664-12.625a31.593,31.593,0,0,1,7.92-1.476c8.665-.511,17.33-.848,26.009-1.14,2.572-.088,5.158.2,7.744.307.672.029,1.476.219,1.973-.073a13.788,13.788,0,0,0,2.206-2.031c-.672-.526-1.271-1.3-2.016-1.52a16.584,16.584,0,0,0-4.164-.614c-4.924-.2-9.849-.365-14.773-.424a51.528,51.528,0,0,0-5.231.468,75.426,75.426,0,0,0-1.987-8.753,57.063,57.063,0,0,0-4.077-8.665c-1.257-2.279-3.273-2.776-5.07-1.593A39.571,39.571,0,0,1,102.7,52.646a84.861,84.861,0,0,0-8.855.044c-12.2,1.3-22.181,6.444-28.318,17.505-1.432,2.586-2.075,5.626-3.156,8.636a11.274,11.274,0,0,0-9.936-1.14c-3.069,1.184-5.713,3.419-8.417,5.114-5.2-5.275-5.845-12.157-6.97-18.82a36.9,36.9,0,0,1,.263-14.86ZM91.7,97.856c-2.323-3.989-4.442-7.628-6.78-11.631.687-1.257,1.563-2.864,2.6-4.749C88.934,87.028,90.264,92.259,91.7,97.856ZM9.532,118.707c.8-3.288,1.68-6.546,2.6-9.8a11.879,11.879,0,0,1,1.2-2.674c1.637-2.835,3.843-3.273,6.239-1.023,2.908,2.718,5.669,5.611,8.475,8.446.716.716,1.359,1.505,2.236,2.484a47.675,47.675,0,0,0-21.217,6.5,32.832,32.832,0,0,1,.482-3.931ZM31.86,143.942c-3.01-1.856-6.648-1.563-9.834.409-2.133,1.33-4.238,2.732-6.269,4.238-4.53,3.346-10.3-.321-10.74-4.837a22.758,22.758,0,0,1,3.931-15.606c2.031-2.937,5.392-4.486,8.665-5.772,6.006-2.353,12.23-3.653,18.557-1.461a56.637,56.637,0,0,1,9.819,4.588c3.492,2.031,6.707,4.515,10.024,6.824a2.4,2.4,0,0,0,3.522-.643c1.023-1.271.979-2.309-.5-3.185-5.728-3.346-11.237-7.218-17.257-9.892-3.609-1.607-6.137-4.033-8.767-6.575-4.048-3.916-7.993-7.964-11.938-11.923A37.551,37.551,0,0,1,34.124,91.69c2.835-.979,5.816-1.563,8.621-2.616,3.083-1.154,6.064-2.616,9.059-3.989a15.858,15.858,0,0,1,9.556-1.067c-1.14,1.213-2.075,2.206-3.01,3.2-4.457,4.793-6.824,10.638-8.3,16.877-.774,3.288-1.4,6.619-1.9,9.965-.132.848.263,2.382.818,2.6,1.344.541,2.528-.336,3-1.68.57-1.68.935-3.434,1.344-5.158,1.637-6.985,3.507-13.9,8.227-19.551A49.546,49.546,0,0,1,66.5,85.333a2.239,2.239,0,0,1,1.914-.351,33.558,33.558,0,0,1,14.437,10.2,23.054,23.054,0,0,1,3.711,6.78,173.76,173.76,0,0,1,5.494,18c1.651,7.233,2.221,14.627-.117,21.889a15.521,15.521,0,0,1-6.882,8.8,7.725,7.725,0,0,0-2.63,3.185,33.956,33.956,0,0,0-1.739,5.246c-.438,1.549-1.257,2.338-2.966,1.885-6.9-1.87-12.742-.058-17.71,5a16.567,16.567,0,0,1-3.507,2.689,31.737,31.737,0,0,1-4.252,1.7c-2.236-2.893-4.647-5.728-6.736-8.8a55.423,55.423,0,0,1-3.609-6.838,26.556,26.556,0,0,0-10.068-10.784Z" transform="translate(0 0)"/><path class="c" d="M50.9,77.019a11.274,11.274,0,0,0-9.936-1.14c-3.069,1.184-5.713,3.419-8.417,5.114-5.2-5.275-5.845-12.157-6.97-18.82a36.9,36.9,0,0,1,.263-14.86c.38-1.607.468-3.288.789-4.91.994-4.968,4.194-8.3,8.037-11.31A80.825,80.825,0,0,1,58.119,18.381c4.588-1.593,9.03-3.653,13.706-4.939a95.816,95.816,0,0,1,13.209-2.367c7.744-.994,15.518-1.593,22.941-4.486A40.513,40.513,0,0,1,126.386,3.9a5.4,5.4,0,0,1,1.593.38c9.79,4.077,17.228,10.579,20.691,20.837a103.263,103.263,0,0,1,2.806,12.333c1.622,7.861-.19,15.2-3.872,22.093-1.008,1.885-2.922,3.273-4.442,4.866-1.943,2.031-3.974,3.974-5.859,6.049-1.154,1.271-2.06,2.586-4.077,2.747-2.163.161-4.281.921-6.444,1.257-5.027.774-9.191-1.461-13.326-3.872a6.591,6.591,0,0,0-6.079-.818,7.419,7.419,0,0,1-5.041-.438,33.706,33.706,0,0,0-7.861-1.622c-3.054-.395-5.246.76-6.824,3.668-1.622,3-1.885,2.849-5.173,1.856a9.151,9.151,0,0,0-9.352,3.39c-1.242,1.739-2.382,3.565-3.624,5.436a20.913,20.913,0,0,0-11.953-3.726c1.227-3.127,2.309-5.889,3.39-8.665,2.806-7.2,8.9-10.4,15.664-12.625a31.593,31.593,0,0,1,7.92-1.476c8.665-.511,17.33-.848,26.009-1.14,2.572-.088,5.158.2,7.744.307.672.029,1.476.219,1.973-.073a13.788,13.788,0,0,0,2.206-2.031c-.672-.526-1.271-1.3-2.016-1.52a16.584,16.584,0,0,0-4.164-.614c-4.924-.2-9.849-.365-14.773-.424a51.529,51.529,0,0,0-5.231.468,75.424,75.424,0,0,0-1.987-8.753,57.063,57.063,0,0,0-4.077-8.665c-1.257-2.279-3.273-2.776-5.07-1.593A39.571,39.571,0,0,1,91.2,50.907a84.859,84.859,0,0,0-8.855.044c-12.2,1.3-22.181,6.444-28.318,17.505-1.432,2.586-2.075,5.626-3.156,8.636Z" transform="translate(11.513 1.724)"/><path class="c" d="M50.735,143.932c-2.236-2.893-4.647-5.728-6.736-8.8A55.421,55.421,0,0,1,40.39,128.3a26.556,26.556,0,0,0-10.068-10.784c-3.01-1.856-6.648-1.563-9.834.409-2.133,1.33-4.238,2.732-6.269,4.238-4.53,3.346-10.3-.321-10.74-4.837A22.758,22.758,0,0,1,7.41,101.718c2.031-2.937,5.392-4.486,8.665-5.772,6.006-2.353,12.23-3.653,18.557-1.461a56.637,56.637,0,0,1,9.819,4.588c3.492,2.031,6.707,4.515,10.024,6.824A2.4,2.4,0,0,0,58,105.254c1.023-1.271.979-2.309-.5-3.185-5.728-3.346-11.237-7.218-17.257-9.892-3.609-1.607-6.137-4.033-8.767-6.575-4.048-3.916-7.993-7.964-11.938-11.923a37.551,37.551,0,0,1,13.049-8.417c2.835-.979,5.816-1.563,8.621-2.616,3.083-1.154,6.064-2.616,9.059-3.989a15.858,15.858,0,0,1,9.556-1.067c-1.14,1.213-2.075,2.206-3.01,3.2-4.457,4.793-6.824,10.638-8.3,16.877-.774,3.288-1.4,6.619-1.9,9.965-.132.848.263,2.382.818,2.6,1.344.541,2.528-.336,3-1.68.57-1.68.935-3.434,1.344-5.158C53.409,76.41,55.28,69.5,60,63.843A49.545,49.545,0,0,1,64.967,58.9a2.239,2.239,0,0,1,1.914-.351,33.558,33.558,0,0,1,14.437,10.2,23.054,23.054,0,0,1,3.711,6.78,173.76,173.76,0,0,1,5.494,18c1.651,7.233,2.221,14.627-.117,21.889a15.521,15.521,0,0,1-6.882,8.8,7.725,7.725,0,0,0-2.63,3.185,33.955,33.955,0,0,0-1.739,5.246c-.438,1.549-1.257,2.338-2.966,1.885-6.9-1.87-12.742-.058-17.71,5a16.566,16.566,0,0,1-3.507,2.689,31.737,31.737,0,0,1-4.252,1.7Z" transform="translate(1.552 26.429)"/><path class="b" d="M85.479,185.928A50.469,50.469,0,0,1,67.17,167.239a3.318,3.318,0,0,1-.321-2.09c1.461-8.051,3.3-16.044,4.413-24.139.964-7.058,1.2-14.232,1.651-21.363.234-3.8.438-7.628.336-11.427-.1-3.419-.628-6.824-.979-10.243-.015-.19-.088-.365-.088-.541-.19-5.889-1.87-11.47-3.142-17.169-.774-3.463-.833-7.087-1.242-10.623-.395-3.419-.891-6.824-1.227-10.243a1.964,1.964,0,0,1,.833-1.607,7.623,7.623,0,0,0,4.164-4.676c.511-1.49,1.315-2.236,3-2.016,1.943.248,3.945.161,5.874.453a5.044,5.044,0,0,1,2.323,1.286c1.461,1.213,2.82,2.338,4.968,1.549.541-.2,1.359.511,2.09.672,3.083.687,3.931,2.6,3.828,5.655-.161,4.793.161,9.6.321,14.393.219,6.327.511,12.639.745,18.966.132,3.448,0,6.912.321,10.331.395,4.267,1.023,8.519,1.7,12.756,1.71,10.681,1.841,21.275-1.052,31.81C93.5,156.908,91.5,164.9,89.337,172.835c-1.184,4.325-2.513,8.621-3.828,13.078Z" transform="translate(30.707 23.55)"/><path class="c" d="M6.2,89.875a32.832,32.832,0,0,1,.482-3.931c.8-3.288,1.68-6.546,2.6-9.8a11.88,11.88,0,0,1,1.2-2.674c1.637-2.835,3.843-3.273,6.239-1.023,2.908,2.718,5.669,5.611,8.475,8.446.716.716,1.359,1.505,2.236,2.484a47.675,47.675,0,0,0-21.217,6.5Z" transform="translate(2.865 32.748)"/></g><g transform="translate(0 10)"><rect class="d" width="181" height="55" transform="translate(873 1014)"/><text class="e" transform="translate(904 1049)"><tspan x="0" y="0">SVAMPE</tspan></text></g></g></svg>