<svg xmlns="http://www.w3.org/2000/svg" width="430.866" height="419.003" viewBox="0 0 430.866 419.003">
  <g id="Group_474" data-name="Group 474" transform="translate(-1319.616 -747.376)">
    <path id="Path_492" data-name="Path 492" d="M215.433,0c118.98,0,215.433,93.8,215.433,209.5S334.414,419,215.433,419,0,325.206,0,209.5,96.453,0,215.433,0Z" transform="translate(1319.616 747.376)" fill="#ebdfd0"/>
    <g id="Group_466" data-name="Group 466" transform="translate(-145.6 132.5)">
      <g id="Group_465" data-name="Group 465" transform="translate(39.75 78.241)">
        <g id="c" transform="translate(1541.419 581.77)">
          <path id="Path_256" data-name="Path 256" d="M176.3,130.51c.786-1.26,1.29-2.106,1.809-2.921,1.26-1.972,2.328-4.167,4.878-4.834,5.457-1.423,9.445.786,10.6,6.2.964,4.493-.578,8.6-2.447,12.589a39.91,39.91,0,0,1-7.414,10.661,49.136,49.136,0,0,0-6.153,8.986c-1.468,2.521-1.216,5.368-.949,8.259.89,9.49,1.631,18.979.193,28.528a47.566,47.566,0,0,1-4,13.6,113.056,113.056,0,0,0-4.315,11.18,43.4,43.4,0,0,1-9.208,14.487,36.606,36.606,0,0,1-13.968,9.935c-1.809.7-3.588,1.453-5.323,2.3a2.093,2.093,0,0,0-.875,1.364c-1.171,7.488-2.269,14.991-3.47,22.479a21.245,21.245,0,0,1-1.349,4.73c-1.868,4.448-3.751,8.9-5.827,13.241-3.143,6.583-4.6,13.7-6.7,20.625a5.694,5.694,0,0,1-2.891,3.529,2.063,2.063,0,0,1-2.773-.652c-.371-.415-.252-1.5-.044-2.18,1.082-3.6,2.269-7.162,3.41-10.735.771-2.4,1.527-4.819,2.18-6.88a17.93,17.93,0,0,1-3.321-.074,1.826,1.826,0,0,1-.86-1.483c.474-5.086,1.038-10.157,1.587-15.228a90.214,90.214,0,0,1,5.308-23.339,16.814,16.814,0,0,0,.519-1.676c.044-.148-.044-.341-.089-.652-5.842.682-11.7,1.142-17.467,2.091-8.645,1.423-17.274,2.966-25.815,4.908-9.564,2.18-17.393,7.206-22.3,15.94a28.2,28.2,0,0,0-2.372,7.473c-.474,2.017-.089,4.27-2.343,5.56a3.9,3.9,0,0,1-5.427-1.542c-3.143-6.717-2.713-13.122,1.216-19.484,1.987-3.2,4.878-5.279,7.577-7.7a49,49,0,0,0,5.961-6.658c3.336-4.3,6.7-8.6,9.668-13.167a40.077,40.077,0,0,0,3.974-8.822,15.2,15.2,0,0,0,.386-5.575c-.193-3.766-.7-7.5-.875-11.269a53.2,53.2,0,0,1,.356-6.509c.119-1.616,1.349-2.194,2.684-2.313a2.392,2.392,0,0,1,2.728,2c.652,2.862,1.26,5.738,1.9,8.6a15.354,15.354,0,0,0,.771,2.891c1.068,2.343.652,4.463-.208,6.806-1.2,3.292-1.9,6.761-2.891,10.127a26.768,26.768,0,0,1-5.9,10.913c-.875.949-1.6,2.017-2.713,3.44,2.106-.756,3.766-1.364,5.427-1.957,7.1-2.506,14.457-3.84,21.871-2.58,4.878.83,9.475-.445,14.19-.385,3.055.03,6.124.074,9.178.252,1.824.1,2.521-.623,2.55-2.372q.178-8.363.445-16.726a31.97,31.97,0,0,1,.445-5.976c1.216-5.471.578-10.913-.178-16.325-.9-6.45-2.12-12.856-3.351-19.246-1.631-8.541-3.529-17.037-5.041-25.607-.979-5.531-1.542-11.15-2.12-16.74-.445-4.241-.563-8.526-.9-12.781-.4-5.13-1.053-10.246-1.29-15.376-.341-7.266-.386-14.546-.608-21.812-.059-1.987-.326-3.989-.519-5.976-.415-4.2-.9-8.392-1.29-12.6-.474-5.145-.993-10.305-1.26-15.465-.43-8.541-.1-16.993,4.7-24.54a6.53,6.53,0,0,1,2.536-2.506c2.476-1.112,3.737-.4,4.433,2.209,1.142,4.359,2.209,8.748,3.277,12.974a52.693,52.693,0,0,1,6.48-3.737,14.5,14.5,0,0,1,6.109-1.157c2.98.148,4.389,2.98,3.1,5.709-1.394,2.966-2.758,5.961-4.419,8.778-1.779,3.01-4.656,4.982-7.651,6.643a5.379,5.379,0,0,0-2.966,4.389c-1.69,11.758-1.72,23.576-1.839,35.423-.1,10.157,1.527,20.062,3.025,30,.578,3.8,2.387,7.384,3.218,11.15,1.631,7.3,3.114,14.62,4.374,21.975,1.453,8.392,2.7,16.815,3.855,25.252a101.911,101.911,0,0,1,1.335,14.353c-.044,5.012-.964,10.009-1.453,15.02-.119,1.2.089,14.442.089,15.821,2-1.379,3.87-14.116,6.2-13.063.326.148,1.186-.445,1.542-.89a7.406,7.406,0,0,1,6.687-2.847c1.631.119,2.432-.89,3.232-2.031.964-1.394,1.942-2.8,2.966-4.167a3.766,3.766,0,0,1,3.662-1.661c.386.044,1.068-.148,1.142-.371.741-2.358,2.135-4.819,1.883-7.088-.282-2.58.148-5,.222-7.473.193-6.761.608-13.523.4-20.284a42.366,42.366,0,0,0-4.419-17.319c-1.868-3.855-3.336-7.9-4.863-11.907a80.814,80.814,0,0,1-3.425-9.8c-1.379-5.62-1.779-11.358,1.127-16.681,1.868-3.4,4.7-5.694,8.867-5.8,2.343-.059,3.989,1.29,5.471,2.8,3.025,3.069,4.522,6.969,5.679,11.032.1.386.222.771.5,1.72ZM131.371,263.841c-2.209,8.971-7.666,16.963-8.1,26.749C126.389,286.586,131.386,270.231,131.371,263.841Z" transform="translate(22.697 14.985)" fill="#31465c"/>
          <path id="Path_257" data-name="Path 257" d="M76.134,9.421a36.375,36.375,0,0,0,.5,5.264A5.623,5.623,0,0,0,78.462,17.5a11.035,11.035,0,0,1,3.5,5.353,50.071,50.071,0,0,1,2.521,13.078c.237,5.086,1.631,10.112,2,15.2.386,5.323.163,10.691.222,16.029.015,1.69.059,3.381.148,5.056.237,4.745.682,9.49.7,14.249.015,5.116-.43,10.216-.534,15.332a24.53,24.53,0,0,0,.593,5.071c1.231,6.287,2.417,12.589,3.826,18.831,1.853,8.185,1.794,16.474,1.72,24.762-.074,7.414,1.987,14.279,4.8,21q5.961,14.257,11.981,28.469c1.349,3.188,2.788,6.361,4.33,9.475.7,1.394.993,2.758.148,4-2.61,3.885-5.056,7.933-8.155,11.4-1.438,1.6-4.211,2.076-6.45,2.817-.43.133-1.557-.786-1.824-1.438-1.275-3.025-2.239-6.2-3.559-9.208-3.5-8.022-7.1-16-10.72-23.976-2.106-4.626-4.537-9.1-6.465-13.8-2.728-6.672-5.323-13.4-7.607-20.24a104.421,104.421,0,0,1-4.181-15.6c-1.231-7.266-2.491-14.65-1.72-22.049.311-3.025,1.676-5.946,2.639-8.9a32.576,32.576,0,0,1,1.468-3.4c1.409-3.129,1.038-6.183.089-9.4-.712-2.387-.593-5.012-1.157-7.458a59,59,0,0,0-2.343-7.31c-2.165-5.8-4.345-11.6-4.908-17.808a10.569,10.569,0,0,1,.919-5.086,25.967,25.967,0,0,0,1.972-17.007A163.947,163.947,0,0,1,59.675,28.43a30.951,30.951,0,0,1,1.483-13.582c1.008-2.936,1.794-5.961,2.966-8.822a7.078,7.078,0,0,1,4.789-4.567c1.068-.282,2-1.053,3.069-1.364a2.171,2.171,0,0,1,2.8,1.75,44.376,44.376,0,0,1,1.364,7.562ZM90.472,172.926c.252-.326.326-.386.311-.415a7.551,7.551,0,0,0-.208-.83,44.305,44.305,0,0,1-2.743-13.375A55.574,55.574,0,0,0,85.624,143.2c-1.779-5.516-2.387-11.121-3.247-16.726-.638-4.181-.8-8.541-2.135-12.485A114.047,114.047,0,0,1,74.9,88.5c-.593-6.2-.534-12.455-1.023-18.668-.282-3.6-.178-7.236-1.468-10.765a73.572,73.572,0,0,1-2.046-8.7c-.089-.386-.222-.756-.371-1.216-.638,5.887-1.3,11.61-1.868,17.334a20.576,20.576,0,0,0,.608,8.318c1.157,3.692,1.987,7.488,2.788,11.284.741,3.559.816,7.325,1.987,10.72,1.6,4.671.43,9.134-.178,13.6-.667,4.923-2.328,9.7-2.966,14.62-1.1,8.57.845,16.77,4.463,24.51a80.439,80.439,0,0,0,6.317,10.958c2.877,4.256,6.139,8.274,9.3,12.455Zm-11.358-4.8c-.208.074-.415.148-.623.237a33.786,33.786,0,0,0,1.053,3.277q3.27,7.518,6.628,15.006c3.143,6.969,6.391,13.894,9.46,20.892,1.75,3.989,3.188,8.1,4.849,12.114.282.667,1.1,1.72,1.453,1.646a8.214,8.214,0,0,0,3.781-1.616,45.25,45.25,0,0,0,4.152-5.279Q94.52,191.312,79.114,168.122Z" transform="translate(28.721 0)" fill="#31465c"/>
          <path id="Path_258" data-name="Path 258" d="M16.986,95.351a24.919,24.919,0,0,1-2.728-3.9,16.429,16.429,0,0,1-1.053-9.831,6.483,6.483,0,0,1,10.75-3.8c3.588,3.4,4.849,7.785,5,12.8a46.378,46.378,0,0,0,1.008,7.547,4.6,4.6,0,0,0,1.512,2.387c6.2,5.19,29.7,41.829,30.145,42.229,3.692,3.485,7.444,6.88,11.091,10.424,4.152,4.033,8.155,8.259,12.351,12.233a45.915,45.915,0,0,0,6.109,4.582c3.232,2.165,5.471,5.427,8.037,8.333,1.483,1.69,4.181,4.493,5.664,6.183,1.112,1.275-.015,1.631-.875,3.44-.682,1.453-.267,6.984-1.587,6.85-3.8-.341-9.075-6.079-12.87-6.257-.282,0-.652-.044-.845.133-1.512,1.29-2.4.089-3.2-1.082-2.135-3.114-4.211-6.287-6.361-9.386a3.142,3.142,0,0,0-1.483-1.068c-1.468-.549-2.966-.993-4.463-1.453-3.8-1.171-6.065-4.3-7.962-7.77-2.269-4.152-4.3-8.452-7.221-12.129-2.135-2.684-4.389-5.279-6.672-7.814-3.143-3.5-6.331-6.954-9.594-10.32-1.9-1.957-3.989-3.677-5.931-5.575q-2.447-2.38-4.76-4.893c-3.455-3.781-6.791-7.681-10.35-11.328-.786-.8-2.283-.949-3.47-1.053a31.214,31.214,0,0,1-12.351-3.262C-.021,108.948-.97,105.953.824,99.651c1.29-4.522,5.412-6.672,10.454-5.961A18.754,18.754,0,0,1,15.044,95.1c.608.222,1.216.43,1.824.638.03-.133.044-.267.074-.415Z" transform="translate(0 36.754)" fill="#31465c"/>
          <path id="Path_259" data-name="Path 259" d="M109.219,221.991a20.9,20.9,0,0,1-1.72-3.025,243.018,243.018,0,0,1-7.355-24.11,138.536,138.536,0,0,0-6.406-17.689c-1.512-3.662-4.7-6.139-7.77-8.526-5.442-4.226-10.795-8.6-15.243-13.819-5.234-6.139-10.884-12.114-14.383-19.469-3.1-6.509-5.546-13.33-8.1-20.077-1.112-2.936-1.661-6.094-2.639-9.089-1.275-3.87-4.152-6.317-7.7-8.066a14.621,14.621,0,0,0-2.269-.993,13.043,13.043,0,0,1-8.185-7.3c-1.438-3.055-3.084-6.109-3.9-9.356-1.2-4.745,1.26-7.577,5.338-9.5a5.592,5.592,0,0,1,2.017-.03c.059-.445.133-.875.148-1.3.222-4.226.341-8.452.727-12.663a5.637,5.637,0,0,1,1.69-2.862c1.171-1.246,2.432-.875,3.485.311a91.9,91.9,0,0,1,6.806,7.829c4.345,6.124,9.015,12.114,11.314,19.424A107.407,107.407,0,0,1,57.9,92.6a149.192,149.192,0,0,0,7.043,23.087c2.506,6.584,4.256,13.449,6.732,20.047,1.883,5.056,4.419,9.86,6.584,14.813.593,1.364.875,2.847,1.394,4.241a4.156,4.156,0,0,0,1.053,1.527c4.448,4.063,9.045,7.977,13.345,12.2a20.621,20.621,0,0,1,4.2,6.2c3.811,8.511,5.976,17.541,8.244,26.556,1.246,4.952,3.084,9.742,4.7,14.59.9,2.728,1.127,4.359-1.972,6.124ZM54.683,110.279c-.474-3.648-1.542-6.806-4.018-9.119a62.713,62.713,0,0,1-9.92-12.292c-1.2-1.883-2.669-3.618-3.677-5.59-1.794-3.485-5.012-5.1-8.229-6.761-.816-.415-1.587-.044-1.379,1.053a16.931,16.931,0,0,0,.9,3.559C30.6,86.5,33.42,91.063,39.469,93.3c6.2,2.3,10.542,6.732,10.987,13.983a8.328,8.328,0,0,0,1.587,3.633c.341.534,1.231.741,1.868,1.1.3-.638.578-1.29.786-1.735ZM38.194,63.1c-.222.03-.445.074-.682.1a41.894,41.894,0,0,0,1.483,5.976,42.9,42.9,0,0,0,3.114,5.5q5.338,9.03,10.706,18.03c.133-.074.267-.163.4-.237-1.853-11.4-8.481-20.358-15.02-29.374Z" transform="translate(11.235 25.755)" fill="#31465c"/>
          <path id="Path_261" data-name="Path 261" d="M106.536,188.04c0,6.391-5,22.731-8.1,26.749.445-9.786,5.887-17.778,8.1-26.749Z" transform="translate(47.533 90.785)" fill="#fff"/>
          <path id="Path_262" data-name="Path 262" d="M87.7,156.926c-3.158-4.2-6.406-8.2-9.3-12.455a81.35,81.35,0,0,1-6.317-10.958c-3.633-7.74-5.56-15.94-4.463-24.51.623-4.923,2.283-9.712,2.966-14.62.608-4.478,1.779-8.926.178-13.6-1.171-3.4-1.231-7.162-1.987-10.72-.8-3.8-1.631-7.592-2.788-11.284a20.577,20.577,0,0,1-.608-8.318c.549-5.723,1.216-11.447,1.868-17.334.133.46.282.83.371,1.216a74.267,74.267,0,0,0,2.046,8.7c1.29,3.529,1.186,7.177,1.468,10.765.489,6.213.43,12.47,1.023,18.668A113.226,113.226,0,0,0,77.5,97.972c1.334,3.959,1.5,8.3,2.135,12.485.86,5.62,1.468,11.225,3.247,16.726a55.574,55.574,0,0,1,2.209,15.109,44.761,44.761,0,0,0,2.743,13.375,7.55,7.55,0,0,1,.208.83c0,.03-.059.089-.311.415Z" transform="translate(31.497 15.999)" fill="#d87b63"/>
          <path id="Path_263" data-name="Path 263" d="M72.923,113.38q15.391,23.176,30.753,46.277a45.248,45.248,0,0,1-4.152,5.279,8.372,8.372,0,0,1-3.781,1.616c-.356.074-1.171-.979-1.453-1.646-1.661-4.018-3.114-8.14-4.849-12.114-3.069-7-6.317-13.923-9.46-20.892q-3.358-7.473-6.628-15.006a31.23,31.23,0,0,1-1.053-3.277c.208-.074.415-.148.623-.237Z" transform="translate(34.913 54.742)" fill="#d87b63"/>
          <path id="Path_264" data-name="Path 264" d="M53.329,102.789c-.208.445-.489,1.1-.786,1.735-.638-.356-1.527-.549-1.868-1.1a8.69,8.69,0,0,1-1.587-3.633C48.629,92.544,44.3,88.11,38.1,85.812,32.052,83.573,29.234,79.006,27,73.638a18.154,18.154,0,0,1-.9-3.559c-.208-1.112.578-1.483,1.379-1.053,3.2,1.661,6.435,3.277,8.229,6.761,1.008,1.972,2.491,3.707,3.677,5.59A62.282,62.282,0,0,0,49.3,93.67c2.476,2.313,3.544,5.471,4.018,9.119Z" transform="translate(12.588 33.245)" fill="#d87b63"/>
          <path id="Path_265" data-name="Path 265" d="M33.552,59.92c6.539,9.015,13.167,17.986,15.02,29.374-.133.074-.267.163-.4.237q-5.36-9.008-10.706-18.03A41.407,41.407,0,0,1,34.353,66a41.894,41.894,0,0,1-1.483-5.976C33.092,59.994,33.315,59.95,33.552,59.92Z" transform="translate(15.877 28.933)" fill="#d87b63"/>
        </g>
      </g>
      <rect id="Rectangle_559" data-name="Rectangle 559" width="155" height="55" transform="translate(1611.95 882.683)" fill="#2b465e"/>
      <text id="TANG" transform="translate(1650.95 917.683)" fill="#fbf2e8" font-size="29" font-family="Helvetica"><tspan x="0" y="0">TANG</tspan></text>
    </g>
  </g>
</svg>
