<svg xmlns="http://www.w3.org/2000/svg" width="430.866" height="419.003" viewBox="0 0 430.866 419.003"><defs><style>.a{fill:#ebdfd0;}.b{fill:#576d3d;}.c{fill:#2b465e;}.d{fill:#fbf2e8;font-size:29px;font-family:Helvetica;}</style></defs><g transform="translate(-183.76 -747.376)"><path class="a" d="M215.433,0c118.98,0,215.433,93.8,215.433,209.5S334.414,419,215.433,419,0,325.206,0,209.5,96.453,0,215.433,0Z" transform="translate(183.76 747.376)"/><g transform="translate(229.999 775.375)"><path class="b" d="M126.782,45.589q-3.091-3.7-2.43-5.826a24.973,24.973,0,0,1,2.9,1.552c6.665,4.719,13.369,9.375,19.92,14.247a130.414,130.414,0,0,1,25.886,25.364c1.628,2.124,3.918,3.727,5.648,5.788,1.679,2,3.066,4.261,4.541,6.424a19.8,19.8,0,0,0,2.8,3.562c-.954-5.266-1.9-10.545-2.862-15.811-.5-2.722-.954-5.444-1.552-8.141a28.649,28.649,0,0,0-9.2-15.849,50.212,50.212,0,0,1-9.667-10.761c-.445-.687-.9-1.361-1.285-2.086-1.425-2.633-.979-3.676,2.442-4.6-2.862-1.921-5.419-3.638-8.154-5.482.865-.611,1.336-.954,1.87-1.336-1.768-1.476-3.434-2.875-5.05-4.21,1.6-2.62,3.358-.687,5.05-1.221-1.221-.687-2.417-1.437-3.663-2.061-1.4-.712-2.9-1.221-4.249-2.01a3,3,0,0,1-1.45-1.781c-.165-1.259.8-1.692,1.972-1.666a6.14,6.14,0,0,0,.852-.153c-.432-1.463-2.62-2.557-.852-4.249-1.132-2.035-4.478-2.849-2.926-6.182-1.984-1.03-4.007-2.01-5.966-3.116C140,5.2,138.74,4.261,137.429,3.4c-.878-.572-1.908-1.361-1.068-2.353A3.415,3.415,0,0,1,139.2.05a53.787,53.787,0,0,1,6.309,2.442c1.348-1.6,2.264-1.883,4.452,1.374,1.6.267,3.5-.979,4.478,1.336,3.918-1.45,2.913,2.811,4.885,4.16.114-1.119.191-2.112.318-3.1a12.2,12.2,0,0,1,.509-2.748c.165-.432.992-.992,1.323-.89a2.108,2.108,0,0,1,1.247,1.323c.6,2.8,1.056,5.622,1.577,8.535,2.582-1.73,4.007-1.208,4.986,1.844.687,2.137,1.183,4.35,1.934,7.174a8.211,8.211,0,0,0,1.145-2.073c.343-2.048,1.768-1.654,3.142-1.59,1.59.076,1.081,1.119,1.081,2.023-.025,4.439-.013,8.879-.013,13.318l.458.114c.331-.763.623-1.552.992-2.29a4.03,4.03,0,0,1,.878-1.4c1.972-1.577,3.333-1.056,3.587,1.45.369,3.613.458,7.263.929,10.876a18.1,18.1,0,0,0,1.615,5.737c2.455,4.846,3.231,10.024,3.384,15.328A184.248,184.248,0,0,0,191.618,91.8c.432,2.277.318,4.656.814,6.907,1.259,5.622,2.8,11.181,4.1,16.8,1.946,8.446,3.854,16.905,5.648,25.377,1.03,4.9,1.819,9.833,3.078,14.921,1.183-3.053,2.4-6.106,3.524-9.184a2.782,2.782,0,0,0-.254-1.59c-.509-1.552-1.145-3.066-1.552-4.643a6.139,6.139,0,0,1,.2-2.061,16.989,16.989,0,0,1,1.743.852,10.172,10.172,0,0,1,1.31,1.374c.14-3.574.28-6.653.394-9.731a16.112,16.112,0,0,0,0-2.073c-.229-2.112.076-4.1-1.323-6.258-2.086-3.206-3.18-7.06-4.617-10.672-.178-.458-.025-1.463.28-1.628a1.983,1.983,0,0,1,1.819.064,35.7,35.7,0,0,1,2.913,3.218c0-2.773-.064-5.419.013-8.065.076-2.379.28-4.757.458-7.123q.534-7.212,1.081-14.438a2.7,2.7,0,0,1,.038-.56c1.73-5.851-.051-11.423-1.259-17.071a16.442,16.442,0,0,1-.127-5c.191-1.883,1.641-2.773,3.371-3.053,1.666-.267,2.468,1,3.193,2.188,1.743,2.824,1.615,6.118,2.15,9.235a17.965,17.965,0,0,1,.127,1.844h.547c-.1-2.086-.064-4.185-.331-6.246-.267-2.035-1.119-4.032-1.208-6.068a34.475,34.475,0,0,1,.75-5.966,26.892,26.892,0,0,1,.5-3.536c.178-.623.763-1.5,1.272-1.59,1.03-.165,2.417-.356,2.62,1.31.229,1.87.382,3.74.547,5.61.305,3.549.585,7.1.929,11.1,1.221-1.984,2.175-3.574,3.18-5.114.331-.509.776-1.17,1.285-1.3a5.141,5.141,0,0,1,3.053-.1c.483.229.674,1.717.534,2.569-.929,5.317-2.277,10.583-2.926,15.926-.725,6.017-3.295,11.436-4.707,17.223a53.162,53.162,0,0,1-5.673,14.7,11.271,11.271,0,0,0-.979,3.218c-1.03,4.338-2.15,8.663-2.964,13.038a33.321,33.321,0,0,0-.407,6.945c.305,10.749-3.18,20.365-8.523,29.473a4.511,4.511,0,0,0-.636,2.239,161.813,161.813,0,0,1-2.252,28.7c-1.539,9.031-3.358,18.025-5,27.031-3.091,16.88-6.754,33.7-7.912,50.83-.547,8.065-1.7,16.066-2,24.143a68.367,68.367,0,0,1-1.323,9.311c-.318,1.781-2.29,2.811-4.274,2.493a13.623,13.623,0,0,0-2.773-.242c-1.59.089-1.844-.916-1.692-2.061q1.374-9.884,2.875-19.755c.789-5.152,1.7-10.278,2.531-15.417q2.461-15.322,4.859-30.656c2.01-12.911,4.109-25.81,5.889-38.746.992-7.149,1.45-14.361,2.086-21.548a4.994,4.994,0,0,0-3.8-5.025,10.629,10.629,0,0,0-5.648.471,124.082,124.082,0,0,0-23.354,11.69c-3.752,2.379-7.212,5.253-11.079,7.429-4.249,2.391-8.8,4.236-13.229,6.309-4.77,2.239-9.527,4.49-14.3,6.691a34.689,34.689,0,0,1-12.758,2.849,20.251,20.251,0,0,0-3.689.585c-4.083.992-8.1,2.29-12.237,3-6.754,1.183-12.771,4.045-18.635,7.4-9.706,5.546-17.8,12.987-25.428,21.078-4.21,4.465-8.955,8.446-14.857,10.7A4.219,4.219,0,0,1,32,249.8c-1.2-2.849-.585-4.745,2.646-7.48q8.3-7.079,16.727-14.018a40.534,40.534,0,0,1,4.9-3.129c2.15-1.3,4.312-2.544,6.487-3.8a148,148,0,0,1,27.934-12.313c-2.391-.432-4.541-.814-6.691-1.208-2.213-.407-4.414-.954-6.653-1.208a81.643,81.643,0,0,1-22.718-5.711A94.978,94.978,0,0,1,31.355,186.39c-4.02-3.295-7.238-7.607-10.66-11.575-1.514-1.755-1.5-7.734-.293-9.6,1.107-1.7,2.124-2.162,3.727-.954a70.126,70.126,0,0,1,8.624,7.225,124.361,124.361,0,0,0,25.5,20.429,102.235,102.235,0,0,0,15.315,7.619c3.689,1.425,7.861,1.577,11.792,2.417,7.327,1.552,14.6.865,21.9-.254,4.643-.712,9.324-1.259,14.005-1.666a23.113,23.113,0,0,0,7.848-1.666c4.859-2.213,9.769-4.312,14.641-6.475a15.792,15.792,0,0,0,1.437-.878c-3.295-.75-6.373-1.45-9.451-2.15,1.463-1.959,3.269-1.755,4.935-1.768a52.457,52.457,0,0,1,7.34.382c4.07.56,7.263-1.056,10.342-3.447,6.22-4.821,12.8-9.07,20.454-11.3,4.439-1.3,8.853-2.659,13.331-3.829a28.782,28.782,0,0,1,4.91-.432,10.036,10.036,0,0,0,.242-1.794c-.127-5.775-.267-11.563-.483-17.338a5.044,5.044,0,0,0-.84-2.633c-2.2-3.053-4.414-6.118-6.831-8.993-4.388-5.215-10.329-8.027-16.778-9.515-5.8-1.336-11.715-2.162-17.618-3-11.728-1.666-23.507-1.425-35.273-.5-13.394,1.043-26.738.178-40.094-.75-8.014-.56-16.066-.75-24.041-1.615a113.394,113.394,0,0,1-15.633-3.142,143.746,143.746,0,0,1-17.77-5.343c-6.882-2.76-13.42-6.347-20.136-9.54-1.463-.687-2.124-1.666-1.743-3.282a14.237,14.237,0,0,0,.178-1.5c.407-3.613,1.552-4.172,4.935-2.671,5.673,2.506,11.4,4.91,17.058,7.34,2.213-2.417,5.711-2.786,9.617-.687,2.811,1.514,5.381,3.46,8.039,5.228.623.407,1.2.89,1.755,1.323.216-.153.369-.216.407-.305,1.145-3.663,4.452-4.478,8.408-2.061,2.888,1.768,5.762,3.562,8.65,5.343a8.3,8.3,0,0,0,1.2.522c1.476-2.315,2.226-2.684,5.126-2.01,3.663.852,7.289,1.844,10.914,2.824,4.592,1.247,9.438,1.959,13.674,3.956,5.94,2.8,11.932,1.514,17.91,1.5,9.362-.025,18.724-.382,28.086-.611.343,0,.687-.076,1.31-.14a32.27,32.27,0,0,1-2.837-2.213,10.633,10.633,0,0,1-1.336-1.959c1.043-.178,2.213-.738,3.091-.445a15.642,15.642,0,0,1,4.427,2.468,11.167,11.167,0,0,0,8.408,2.315,37.879,37.879,0,0,1,6.157.343c-1.832-2.226-3.574-4.223-5.164-6.335a26.009,26.009,0,0,1-2.709-4.49c-.229-.5.331-1.374.534-2.073a6.46,6.46,0,0,1,1.781.967c3.8,4.147,7.5,8.383,11.334,12.5.432.471,1.387.458,2.1.687,6.627,2.137,13.305,4.121,19.844,6.475,4.287,1.552,7.543,4.694,10.456,8.141a7.017,7.017,0,0,0,1.908,1.717c-.471-2.328-.941-4.668-1.437-7-.674-3.129-1.31-6.271-2.073-9.388-1.794-7.378-5.457-13.852-9.884-19.933-2-2.748-3.791-5.686-6.131-8.09a29.6,29.6,0,0,0-6.615-4.579,72.926,72.926,0,0,0-6.933-3.409c-1.208-.547-2.29-1.361-1.857-2.62.293-.84,1.59-1.323,2.7-2.175-2.417-2.1-5.075-4.439-7.8-6.729-.89-.75-1.463-1.488-.827-2.748-2.773-1.3-5.559-2.557-8.294-3.905-1.577-.776-3.1-1.641-4.617-2.557-1.2-.725-1.743-1.692-.687-2.849-3.307-1.666-6.475-3.485-9.82-4.872a1.881,1.881,0,0,1-1.107-2.506c.1-.5,1.45-.84,2.29-1.069.432-.114.967.178,1.615-.064-1.921-.865-3.791-1.857-5.762-2.582-3-1.107-3.345-2.1-1.336-4.579ZM24.231,170.541c2.379,8.039,24.169,25.441,32.322,26C44.571,189.061,34.522,179.661,24.231,170.541Zm34.574-52.777c-3.256-2.061-6.182-3.969-9.171-5.788-1.323-.814-2.722-1.514-4.49-.75,1.2,2.48,2.01,5.037,5.355,5.33,2.671.229,5.3.763,8.306,1.221Zm-20.543,129c6.322-3.078,11.067-7.937,15.353-13.318C47.522,236.75,43.1,242.016,38.262,246.761ZM212.81,60.917c-.343.127-.687.267-1.043.394l.878,2.633,1.145-.42c-.331-.878-.661-1.743-.979-2.62Zm14.628,8.166-.509-.114-1.221,5.686c.14.025.293.064.432.089C226.573,72.861,227.006,70.966,227.438,69.084ZM33.225,109.191l.318-.407q-2.671-1.164-5.355-2.341c-.064.153-.127.305-.2.458,1.743.763,3.485,1.526,5.241,2.29Zm41.646,9.591v-.522l-4.325-.649c-.025.28-.064.56-.089.84C71.932,118.565,73.4,118.667,74.871,118.782Z" transform="translate(0)"/><path class="b" d="M19.04,134.07c10.3,9.12,20.352,18.521,32.322,26C43.2,159.511,21.419,142.109,19.04,134.07Z" transform="translate(5.191 36.471)"/><path class="b" d="M49.142,94.059c-3-.458-5.635-.992-8.306-1.221-3.333-.28-4.147-2.837-5.355-5.33,1.768-.75,3.167-.051,4.49.75,2.977,1.819,5.9,3.727,9.171,5.788Z" transform="translate(9.663 23.717)"/><path class="b" d="M30.07,196.848c4.834-4.757,9.26-10.011,15.353-13.318C41.137,188.923,36.392,193.783,30.07,196.848Z" transform="translate(8.192 49.925)"/><path class="b" d="M167.513,47.89c.331.878.661,1.743.979,2.62l-1.145.42L166.47,48.3c.343-.127.687-.267,1.043-.394Z" transform="translate(45.297 13.027)"/><path class="b" d="M179.16,54.334c-.432,1.883-.865,3.778-1.3,5.661-.14-.025-.293-.064-.432-.089l1.221-5.686Z" transform="translate(48.278 14.749)"/><path class="b" d="M27.231,86.428c-1.743-.763-3.485-1.526-5.241-2.29.064-.153.127-.305.2-.458q2.671,1.164,5.355,2.341l-.318.407Z" transform="translate(5.994 22.763)"/><path class="b" d="M59.794,93.63c-1.476-.114-2.938-.216-4.414-.331.025-.28.064-.56.089-.84l4.325.649Z" transform="translate(15.077 25.151)"/></g><g transform="translate(0 6)"><rect class="c" width="166" height="55" transform="translate(316 1018)"/><text class="d" transform="translate(350 1053)"><tspan x="0" y="0">URTER</tspan></text></g></g></svg>